NotoSerifTamilSlanted-CondensedExtraBold.ufo
<glyph name="exclam" format="2">
  <advance width="371.62380952380954"/>
  <unicode hex="0021"/>
  <outline>
    <contour>
      <point x="148.57619047619048" y="231.89285714285717" type="line"/>
      <point x="214.14761904761906" y="231.89285714285717" type="line"/>
      <point x="384.8309523809524" y="714.0" type="line"/>
      <point x="206.45000000000002" y="714.0" type="line"/>
    </contour>
    <contour>
      <point x="153.75238095238097" y="-8.0" type="curve" smooth="yes"/>
      <point x="195.70238095238096" y="-8.0"/>
      <point x="241.51666666666668" y="16.095238095238095"/>
      <point x="241.51666666666668" y="86.07619047619048" type="curve" smooth="yes"/>
      <point x="241.51666666666668" y="134.94761904761907"/>
      <point x="209.0619047619048" y="158.19047619047618"/>
      <point x="164.18333333333337" y="158.19047619047618" type="curve" smooth="yes"/>
      <point x="111.15476190476191" y="158.19047619047618"/>
      <point x="76.73571428571428" y="120.00000000000001"/>
      <point x="76.73571428571428" y="64.36428571428571" type="curve" smooth="yes"/>
      <point x="76.73571428571428" y="16.27857142857143"/>
      <point x="108.0547619047619" y="-8.0"/>
    </contour>
  </outline>
</glyph>
<glyph name="quotedbl" format="2">
  <advance width="463.8047619047619"/>
  <unicode hex="0022"/>
  <outline>
    <contour>
      <point x="128.79761904761907" y="432.35238095238094" type="line"/>
      <point x="195.56190476190477" y="432.35238095238094" type="line"/>
      <point x="317.90238095238095" y="714.0" type="line"/>
      <point x="159.02380952380952" y="714.0" type="line"/>
    </contour>
    <contour>
      <point x="332.6595238095238" y="432.35238095238094" type="line"/>
      <point x="399.10714285714283" y="432.35238095238094" type="line"/>
      <point x="520.8999999999999" y="714.0" type="line"/>
      <point x="362.88571428571424" y="714.0" type="line"/>
    </contour>
  </outline>
</glyph>
<glyph name="numbersign" format="2">
  <advance width="485.6333333333333"/>
  <unicode hex="0023"/>
  <outline>
    <contour>
      <point x="51.70714285714286" y="0.0" type="line"/>
      <point x="118.6214285714286" y="0.0" type="line"/>
      <point x="175.5214285714286" y="199.6047619047619" type="line"/>
      <point x="271.06190476190477" y="199.6047619047619" type="line"/>
      <point x="215.32619047619048" y="0.0" type="line"/>
      <point x="282.3071428571428" y="0.0" type="line"/>
      <point x="337.65952380952376" y="199.6047619047619" type="line"/>
      <point x="441.2095238095238" y="199.6047619047619" type="line"/>
      <point x="448.90952380952376" y="269.95476190476194" type="line"/>
      <point x="359.0547619047619" y="269.95476190476194" type="line"/>
      <point x="408.3119047619047" y="448.497619047619" type="line"/>
      <point x="498.5095238095239" y="448.497619047619" type="line"/>
      <point x="508.30476190476185" y="520.395238095238" type="line"/>
      <point x="430.25476190476195" y="520.395238095238" type="line"/>
      <point x="484.60714285714283" y="714.0" type="line"/>
      <point x="418.0095238095239" y="714.0" type="line"/>
      <point x="363.6571428571429" y="520.395238095238" type="line"/>
      <point x="267.56904761904764" y="520.395238095238" type="line"/>
      <point x="320.60476190476186" y="714.0" type="line"/>
      <point x="253.70714285714286" y="714.0" type="line"/>
      <point x="201.35476190476192" y="520.395238095238" type="line"/>
      <point x="99.15476190476191" y="520.395238095238" type="line"/>
      <point x="89.35952380952381" y="448.497619047619" type="line"/>
      <point x="179.4119047619048" y="448.497619047619" type="line"/>
      <point x="128.77142857142857" y="269.95476190476194" type="line"/>
      <point x="40.30714285714286" y="269.95476190476194" type="line"/>
      <point x="32.607142857142854" y="199.6047619047619" type="line"/>
      <point x="108.92380952380951" y="199.6047619047619" type="line"/>
    </contour>
    <contour>
      <point x="194.5047619047619" y="269.95476190476194" type="line"/>
      <point x="245.3095238095238" y="448.497619047619" type="line"/>
      <point x="342.39761904761906" y="448.497619047619" type="line"/>
      <point x="291.5928571428572" y="269.95476190476194" type="line"/>
    </contour>
  </outline>
</glyph>
<glyph name="percent" format="2">
  <advance width="806.0238095238096"/>
  <unicode hex="0025"/>
  <outline>
    <contour>
      <point x="175.13095238095238" y="0.0" type="line"/>
      <point x="244.97380952380954" y="0.0" type="line"/>
      <point x="690.7333333333333" y="714.0" type="line"/>
      <point x="623.8873095238096" y="714.0" type="line"/>
    </contour>
    <contour>
      <point x="200.83571428571432" y="279.45238095238096" type="curve" smooth="yes"/>
      <point x="352.1285714285715" y="279.45238095238096"/>
      <point x="422.30000000000007" y="467.0"/>
      <point x="422.30000000000007" y="583.447619047619" type="curve" smooth="yes"/>
      <point x="422.30000000000007" y="663.6642857142857"/>
      <point x="383.3404761904762" y="724.547619047619"/>
      <point x="294.45476190476194" y="724.547619047619" type="curve" smooth="yes"/>
      <point x="144.59761904761905" y="724.547619047619"/>
      <point x="76.60714285714285" y="542.5999999999999"/>
      <point x="76.60714285714285" y="417.1571428571428" type="curve"/>
      <point x="76.60714285714285" y="328.0357142857143"/>
      <point x="125.0142857142857" y="279.45238095238096"/>
    </contour>
    <contour>
      <point x="216.4547619047619" y="332.35" type="curve" smooth="yes"/>
      <point x="193.27380952380952" y="332.35"/>
      <point x="183.92142857142858" y="361.9071428571429"/>
      <point x="183.92142857142858" y="407.3119047619047" type="curve" smooth="yes"/>
      <point x="183.92142857142858" y="485.97857142857146"/>
      <point x="225.0738095238095" y="669.402380952381"/>
      <point x="290.602380952381" y="669.402380952381" type="curve" smooth="yes"/>
      <point x="314.947619047619" y="669.402380952381"/>
      <point x="323.13571428571436" y="642.4095238095239"/>
      <point x="323.13571428571436" y="597.9238095238095" type="curve" smooth="yes"/>
      <point x="323.13571428571436" y="517.0095238095238"/>
      <point x="281.9833333333333" y="332.35"/>
    </contour>
    <contour>
      <point x="569.9023809523809" y="-9.847619047619048" type="curve" smooth="yes"/>
      <point x="721.1952380952382" y="-9.847619047619048"/>
      <point x="791.0500000000002" y="177.15238095238095"/>
      <point x="791.0500000000002" y="293.28333333333336" type="curve" smooth="yes"/>
      <point x="791.0500000000002" y="373.1166666666667"/>
      <point x="752.4071428571428" y="434.0"/>
      <point x="663.2047619047619" y="434.0" type="curve" smooth="yes"/>
      <point x="513.6642857142856" y="434.0"/>
      <point x="445.67380952380955" y="252.75238095238097"/>
      <point x="445.67380952380955" y="126.99285714285716" type="curve"/>
      <point x="445.67380952380955" y="38.73571428571429"/>
      <point x="493.76428571428573" y="-9.847619047619048"/>
    </contour>
    <contour>
      <point x="583.9571428571429" y="42.50238095238095" type="curve" smooth="yes"/>
      <point x="561.4761904761905" y="42.50238095238095"/>
      <point x="552.1238095238094" y="71.74285714285713"/>
      <point x="552.1238095238094" y="117.46428571428571" type="curve" smooth="yes"/>
      <point x="552.1238095238094" y="195.4309523809524"/>
      <point x="593.2761904761904" y="379.55476190476185"/>
      <point x="658.804761904762" y="379.55476190476185" type="curve" smooth="yes"/>
      <point x="683.1500000000001" y="379.55476190476185"/>
      <point x="691.3380952380952" y="351.8619047619047"/>
      <point x="691.3380952380952" y="307.5404761904762" type="curve" smooth="yes"/>
      <point x="691.3380952380952" y="227.00952380952384"/>
      <point x="650.502380952381" y="42.50238095238095"/>
    </contour>
  </outline>
</glyph>
<glyph name="quotesingle" format="2">
  <advance width="270.2404761904762"/>
  <unicode hex="0027"/>
  <outline>
    <contour>
      <point x="141.43809523809523" y="432.35238095238094" type="line"/>
      <point x="208.20238095238096" y="432.35238095238094" type="line"/>
      <point x="316.5452380952382" y="714.0" type="line"/>
      <point x="158.9142857142857" y="714.0" type="line"/>
    </contour>
  </outline>
</glyph>
<glyph name="parenleft" format="2">
  <advance width="372.7047619047619"/>
  <unicode hex="0028"/>
  <outline>
    <contour>
      <point x="254.20952380952377" y="-140.89761904761906" type="curve"/>
      <point x="269.0047619047619" y="-74.04523809523809" type="line"/>
      <point x="218.56428571428572" y="-30.00952380952381"/>
      <point x="200.92857142857142" y="51.52857142857143"/>
      <point x="200.92857142857142" y="128.23333333333335" type="curve" smooth="yes"/>
      <point x="200.92857142857142" y="256.9190476190476"/>
      <point x="249.38095238095235" y="589.992857142857"/>
      <point x="435.75714285714287" y="708.209523809524" type="curve"/>
      <point x="446.45714285714286" y="773.7452380952382" type="line"/>
      <point x="175.25238095238097" y="704.5309523809524"/>
      <point x="41.300000000000004" y="420.9238095238095"/>
      <point x="41.300000000000004" y="173.85000000000002" type="curve" smooth="yes"/>
      <point x="41.300000000000004" y="34.27619047619048"/>
      <point x="104.14047619047618" y="-86.76666666666665"/>
    </contour>
  </outline>
</glyph>
<glyph name="parenright" format="2">
  <advance width="372.7047619047619"/>
  <unicode hex="0029"/>
  <outline>
    <contour>
      <point x="-40.25714285714286" y="-137.84761904761905" type="line"/>
      <point x="231.81190476190477" y="-69.18095238095239"/>
      <point x="364.9" y="215.29047619047617"/>
      <point x="364.9" y="461.5" type="curve" smooth="yes"/>
      <point x="364.9" y="601.0738095238096"/>
      <point x="302.4428571428571" y="721.8000000000001"/>
      <point x="152.53809523809525" y="776.247619047619" type="curve"/>
      <point x="138.0595238095238" y="709.395238095238" type="line"/>
      <point x="187.63571428571427" y="665.907142857143"/>
      <point x="204.57142857142856" y="584.5214285714285"/>
      <point x="204.57142857142856" y="507.5" type="curve" smooth="yes"/>
      <point x="204.57142857142856" y="379.13095238095246"/>
      <point x="157.68333333333334" y="45.357142857142854"/>
      <point x="-29.55714285714286" y="-71.9952380952381" type="curve"/>
    </contour>
  </outline>
</glyph>
<glyph name="asterisk" format="2">
  <advance width="537.9428571428572"/>
  <unicode hex="002A"/>
  <outline>
    <contour>
      <point x="349.34285714285716" y="355.8595238095238" type="line"/>
      <point x="350.1880952380953" y="522.65" type="line"/>
      <point x="451.8333333333333" y="387.6000000000001" type="line"/>
      <point x="517.5738095238096" y="478.0" type="line"/>
      <point x="399.20476190476194" y="548.1023809523809" type="line"/>
      <point x="531.3833333333334" y="553.1476190476191" type="line"/>
      <point x="511.85952380952375" y="664.1071428571429" type="line"/>
      <point x="365.35238095238094" y="591.209523809524" type="line"/>
      <point x="433.43809523809523" y="740.8928571428571" type="line"/>
      <point x="327.3309523809524" y="765.0" type="line"/>
      <point x="323.6380952380952" y="597.8928571428571" type="line"/>
      <point x="223.6095238095238" y="737.1071428571429" type="line"/>
      <point x="158.41666666666666" y="643.8595238095237" type="line"/>
      <point x="277.3333333333333" y="575.152380952381" type="line"/>
      <point x="143.0595238095238" y="567.2428571428571" type="line"/>
      <point x="163.96666666666667" y="458.147619047619" type="line"/>
      <point x="309.6380952380952" y="533.209523809524" type="line"/>
      <point x="244.23571428571432" y="379.65" type="line"/>
    </contour>
  </outline>
</glyph>
<glyph name="plus" format="2">
  <advance width="466.84285714285716"/>
  <unicode hex="002B"/>
  <outline>
    <contour>
      <point x="218.4809523809524" y="141.68571428571428" type="line"/>
      <point x="292.76190476190476" y="141.68571428571428" type="line"/>
      <point x="292.76190476190476" y="321.5928571428571" type="line"/>
      <point x="445.44761904761907" y="321.5928571428571" type="line"/>
      <point x="445.44761904761907" y="393.4071428571429" type="line"/>
      <point x="292.76190476190476" y="393.4071428571429" type="line"/>
      <point x="292.76190476190476" y="573.3142857142857" type="line"/>
      <point x="218.4809523809524" y="573.3142857142857" type="line"/>
      <point x="218.4809523809524" y="393.4071428571429" type="line"/>
      <point x="66.0952380952381" y="393.4071428571429" type="line"/>
      <point x="66.0952380952381" y="321.5928571428571" type="line"/>
      <point x="218.4809523809524" y="321.5928571428571" type="line"/>
    </contour>
  </outline>
</glyph>
<glyph name="comma" format="2">
  <advance width="288.9214285714286"/>
  <unicode hex="002C"/>
  <outline>
    <contour>
      <point x="-12.538095238095234" y="-152.10714285714283" type="line"/>
      <point x="127.45714285714288" y="-122.84761904761903"/>
      <point x="202.36190476190478" y="-36.72619047619048"/>
      <point x="202.36190476190478" y="67.55476190476192" type="curve" smooth="yes"/>
      <point x="202.36190476190478" y="124.87857142857142"/>
      <point x="168.25000000000003" y="157.19047619047618"/>
      <point x="125.05952380952382" y="157.19047619047618" type="curve" smooth="yes"/>
      <point x="86.9047619047619" y="157.19047619047618"/>
      <point x="51.96666666666666" y="129.0"/>
      <point x="51.96666666666666" y="83.65714285714286" type="curve" smooth="yes"/>
      <point x="51.96666666666666" y="28.433333333333337"/>
      <point x="94.24761904761904" y="28.19761904761905"/>
      <point x="94.24761904761904" y="-12.109523809523811" type="curve" smooth="yes"/>
      <point x="94.24761904761904" y="-52.50952380952381"/>
      <point x="63.06428571428572" y="-80.34523809523809"/>
      <point x="1.516666666666667" y="-97.20952380952382" type="curve"/>
    </contour>
  </outline>
</glyph>
<glyph name="hyphen" format="2">
  <advance width="269.4666666666667"/>
  <unicode hex="002D"/>
  <outline>
    <contour>
      <point x="13.257142857142856" y="217.8595238095238" type="line"/>
      <point x="239.02380952380955" y="217.8595238095238" type="line"/>
      <point x="265.07857142857137" y="327.1404761904762" type="line"/>
      <point x="38.99523809523809" y="327.1404761904762" type="line"/>
    </contour>
  </outline>
</glyph>
<glyph name="period" format="2">
  <advance width="288.9214285714286"/>
  <unicode hex="002E"/>
  <outline>
    <contour>
      <point x="112.20238095238095" y="-8.0" type="curve" smooth="yes"/>
      <point x="153.7690476190476" y="-8.0"/>
      <point x="199.9666666666667" y="16.095238095238095"/>
      <point x="199.9666666666667" y="86.07619047619048" type="curve" smooth="yes"/>
      <point x="199.9666666666667" y="134.94761904761907"/>
      <point x="167.5119047619048" y="158.19047619047618"/>
      <point x="122.25" y="158.19047619047618" type="curve" smooth="yes"/>
      <point x="69.60476190476192" y="158.19047619047618"/>
      <point x="34.80238095238095" y="120.00000000000001"/>
      <point x="34.80238095238095" y="64.36428571428571" type="curve" smooth="yes"/>
      <point x="34.80238095238095" y="16.27857142857143"/>
      <point x="66.5047619047619" y="-8.0"/>
    </contour>
  </outline>
</glyph>
<glyph name="slash" format="2">
  <advance width="250.26666666666665"/>
  <unicode hex="002F"/>
  <outline>
    <contour>
      <point x="-97.89761904761903" y="-121.0" type="line"/>
      <point x="-23.357142857142858" y="-121.0" type="line"/>
      <point x="378.18333333333334" y="760.0" type="line"/>
      <point x="303.3261904761905" y="760.0" type="line"/>
    </contour>
  </outline>
</glyph>
<glyph name="zero" format="2">
  <advance width="516.8261904761905"/>
  <unicode hex="0030"/>
  <outline>
    <contour>
      <point x="230.15714285714284" y="-11.0" type="curve" smooth="yes"/>
      <point x="437.04761904761904" y="-11.0"/>
      <point x="531.952380952381" y="311.05"/>
      <point x="531.952380952381" y="507.5166666666667" type="curve" smooth="yes"/>
      <point x="531.952380952381" y="657.8"/>
      <point x="455.1619047619048" y="725.0"/>
      <point x="354.6761904761904" y="725.0" type="curve" smooth="yes"/>
      <point x="147.62142857142857" y="725.0"/>
      <point x="49.41666666666667" y="422.34999999999997"/>
      <point x="49.41666666666667" y="218.46666666666667" type="curve" smooth="yes"/>
      <point x="49.41666666666667" y="69.18333333333334"/>
      <point x="121.60714285714286" y="-11.0"/>
    </contour>
    <contour>
      <point x="236.14523809523808" y="59.609523809523814" type="curve" smooth="yes"/>
      <point x="205.2309523809524" y="59.609523809523814"/>
      <point x="185.29761904761907" y="97.25238095238096"/>
      <point x="185.29761904761907" y="172.34047619047618" type="curve" smooth="yes"/>
      <point x="185.29761904761907" y="338.56666666666666"/>
      <point x="261.57380952380953" y="655.3904761904762"/>
      <point x="350.2357142857143" y="655.3904761904762" type="curve" smooth="yes"/>
      <point x="383.69761904761907" y="655.3904761904762"/>
      <point x="402.3309523809524" y="617.7476190476191"/>
      <point x="402.3309523809524" y="544.6595238095239" type="curve" smooth="yes"/>
      <point x="402.3309523809524" y="381.8452380952381"/>
      <point x="330.602380952381" y="59.609523809523814"/>
    </contour>
  </outline>
</glyph>
<glyph name="one" format="2">
  <advance width="516.8261904761905"/>
  <unicode hex="0031"/>
  <outline>
    <contour>
      <point x="45.385714285714286" y="0.0" type="line"/>
      <point x="422.56428571428575" y="0.0" type="line"/>
      <point x="434.6595238095238" y="54.897619047619045" type="line"/>
      <point x="393.9190476190476" y="54.897619047619045" type="line" smooth="yes"/>
      <point x="357.5357142857143" y="54.897619047619045"/>
      <point x="328.64047619047625" y="58.35"/>
      <point x="328.64047619047625" y="85.54285714285714" type="curve" smooth="yes"/>
      <point x="328.64047619047625" y="94.09047619047618"/>
      <point x="332.65238095238095" y="113.49761904761905"/>
      <point x="336.05238095238093" y="129.13095238095238" type="curve" smooth="yes"/>
      <point x="461.64047619047625" y="718.0" type="line"/>
      <point x="342.57380952380953" y="718.0" type="line"/>
      <point x="270.99047619047616" y="666.0" type="line" smooth="yes"/>
      <point x="203.3904761904762" y="617.0"/>
      <point x="158.63571428571427" y="601.0"/>
      <point x="118.23571428571428" y="589.0" type="curve"/>
      <point x="116.83571428571429" y="538.995238095238"/>
      <point x="137.25476190476192" y="511.752380952381"/>
      <point x="161.75476190476192" y="511.752380952381" type="curve" smooth="yes"/>
      <point x="198.83809523809524" y="511.752380952381"/>
      <point x="235.5738095238095" y="548.9690476190476"/>
      <point x="291.0142857142857" y="615.752380952381" type="curve"/>
      <point x="294.31428571428575" y="615.752380952381" type="line"/>
      <point x="279.8309523809524" y="573.2404761904762"/>
      <point x="270.55952380952374" y="529.8285714285715"/>
      <point x="260.79047619047617" y="482.18333333333334" type="curve" smooth="yes"/>
      <point x="184.72142857142856" y="118.24285714285713" type="line" smooth="yes"/>
      <point x="175.11666666666667" y="73.39999999999998"/>
      <point x="153.08333333333334" y="54.897619047619045"/>
      <point x="111.83571428571429" y="54.897619047619045" type="curve" smooth="yes"/>
      <point x="57.48095238095238" y="54.897619047619045" type="line"/>
    </contour>
  </outline>
</glyph>
<glyph name="two" format="2">
  <advance width="516.8261904761905"/>
  <unicode hex="0032"/>
  <outline>
    <contour>
      <point x="-10.402380952380952" y="0.0" type="line"/>
      <point x="419.07619047619045" y="0.0" type="line"/>
      <point x="472.22619047619054" y="216.64761904761903" type="line"/>
      <point x="412.85714285714295" y="216.64761904761903" type="line"/>
      <point x="406.02142857142854" y="198.25238095238095" type="line" smooth="yes"/>
      <point x="391.04999999999995" y="155.82857142857142"/>
      <point x="368.8095238095239" y="115.29761904761905"/>
      <point x="310.8666666666666" y="115.29761904761905" type="curve" smooth="yes"/>
      <point x="108.60000000000001" y="115.29761904761905" type="line"/>
      <point x="269.9452380952381" y="257.6928571428571" type="line" smooth="yes"/>
      <point x="470.2190476190476" y="416.1119047619048"/>
      <point x="529.0428571428573" y="487.47857142857146"/>
      <point x="529.0428571428573" y="589.7714285714285" type="curve" smooth="yes"/>
      <point x="529.0428571428573" y="672.795238095238"/>
      <point x="459.6809523809524" y="724.0"/>
      <point x="337.9" y="724.0" type="curve" smooth="yes"/>
      <point x="198.45476190476188" y="724.0"/>
      <point x="122.91190476190476" y="656.447619047619"/>
      <point x="122.91190476190476" y="575.3976190476192" type="curve" smooth="yes"/>
      <point x="122.91190476190476" y="516.2047619047619"/>
      <point x="172.82857142857142" y="487.70238095238096"/>
      <point x="240.85238095238094" y="487.70238095238096" type="curve"/>
      <point x="245.19761904761907" y="585.8595238095237"/>
      <point x="276.8904761904762" y="660.2547619047618"/>
      <point x="324.6928571428571" y="660.2547619047618" type="curve" smooth="yes"/>
      <point x="356.26666666666665" y="660.2547619047618"/>
      <point x="373.4642857142858" y="624.4499999999999"/>
      <point x="373.4642857142858" y="574.9761904761904" type="curve" smooth="yes"/>
      <point x="373.4642857142858" y="489.5214285714286"/>
      <point x="346.22857142857146" y="421.3"/>
      <point x="217.91666666666666" y="300.9547619047619" type="curve" smooth="yes"/>
      <point x="10.664285714285715" y="106.79523809523809" type="line"/>
    </contour>
  </outline>
</glyph>
<glyph name="three" format="2">
  <advance width="516.8261904761905"/>
  <unicode hex="0033"/>
  <outline>
    <contour>
      <point x="197.06190476190474" y="-10.0" type="curve" smooth="yes"/>
      <point x="321.3595238095238" y="-10.0"/>
      <point x="474.12142857142857" y="49.4"/>
      <point x="474.12142857142857" y="230.6" type="curve" smooth="yes"/>
      <point x="474.12142857142857" y="312.7833333333333"/>
      <point x="425.22142857142865" y="361.4404761904762"/>
      <point x="347.5380952380953" y="371.1238095238096" type="curve"/>
      <point x="467.22142857142865" y="395.4404761904762"/>
      <point x="528.6214285714285" y="491.5"/>
      <point x="528.6214285714285" y="584.8166666666667" type="curve" smooth="yes"/>
      <point x="528.6214285714285" y="673.4"/>
      <point x="454.602380952381" y="724.0"/>
      <point x="343.8571428571429" y="724.0" type="curve" smooth="yes"/>
      <point x="217.29999999999998" y="724.0"/>
      <point x="115.81904761904762" y="655.4357142857143"/>
      <point x="115.81904761904762" y="573.4357142857143" type="curve" smooth="yes"/>
      <point x="115.81904761904762" y="526.7857142857142"/>
      <point x="165.5047619047619" y="512.1023809523809"/>
      <point x="230.11666666666665" y="512.1023809523809" type="curve"/>
      <point x="243.4047619047619" y="591.1023809523809"/>
      <point x="268.1404761904762" y="661.1023809523809"/>
      <point x="322.7238095238095" y="661.1023809523809" type="curve" smooth="yes"/>
      <point x="361.47857142857146" y="661.1023809523809"/>
      <point x="375.59523809523813" y="628.5166666666667"/>
      <point x="375.59523809523813" y="583.0261904761905" type="curve" smooth="yes"/>
      <point x="375.59523809523813" y="473.33095238095234"/>
      <point x="300.2952380952381" y="401.1071428571429"/>
      <point x="196.65952380952382" y="401.1071428571429" type="curve" smooth="yes"/>
      <point x="168.8595238095238" y="401.1071428571429" type="line"/>
      <point x="158.47619047619045" y="337.2095238095238" type="line"/>
      <point x="196.64285714285714" y="337.2095238095238" type="line" smooth="yes"/>
      <point x="275.8119047619048" y="337.2095238095238"/>
      <point x="319.09523809523813" y="297.33571428571423"/>
      <point x="319.09523809523813" y="224.79285714285712" type="curve" smooth="yes"/>
      <point x="319.09523809523813" y="118.5452380952381"/>
      <point x="262.1571428571428" y="64.00476190476189"/>
      <point x="212.5690476190476" y="64.00476190476189" type="curve" smooth="yes"/>
      <point x="149.9309523809524" y="64.00476190476189"/>
      <point x="120.00000000000001" y="119.34999999999998"/>
      <point x="122.48333333333333" y="200.90238095238095" type="curve"/>
      <point x="48.96428571428571" y="200.90238095238095"/>
      <point x="8.726190476190476" y="166.94761904761904"/>
      <point x="8.726190476190476" y="111.83809523809525" type="curve" smooth="yes"/>
      <point x="8.726190476190476" y="55.99047619047619"/>
      <point x="57.28571428571429" y="-10.0"/>
    </contour>
  </outline>
</glyph>
<glyph name="four" format="2">
  <advance width="516.8261904761905"/>
  <unicode hex="0034"/>
  <outline>
    <contour>
      <point x="122.41904761904763" y="0.0" type="line"/>
      <point x="438.40952380952376" y="0.0" type="line"/>
      <point x="450.82142857142856" y="54.897619047619045" type="line"/>
      <point x="437.2642857142857" y="54.897619047619045" type="line" smooth="yes"/>
      <point x="404.27619047619044" y="54.897619047619045"/>
      <point x="384.43571428571437" y="60.19761904761904"/>
      <point x="384.43571428571437" y="92.09761904761906" type="curve" smooth="yes"/>
      <point x="384.43571428571437" y="99.49761904761905"/>
      <point x="386.43571428571437" y="117.59285714285714"/>
      <point x="388.43571428571437" y="126.29285714285713" type="curve" smooth="yes"/>
      <point x="513.0238095238096" y="714.0" type="line"/>
      <point x="366.00000000000006" y="714.0" type="line"/>
      <point x="38.68571428571428" y="249.89761904761906" type="line"/>
      <point x="22.495238095238093" y="184.96666666666667" type="line"/>
      <point x="480.31190476190477" y="184.96666666666667" type="line"/>
      <point x="494.8595238095238" y="251.68333333333334" type="line"/>
      <point x="73.71904761904761" y="251.68333333333334" type="line"/>
      <point x="87.85000000000001" y="228.40238095238095" type="line"/>
      <point x="243.33571428571426" y="447.8190476190477" type="line" smooth="yes"/>
      <point x="272.97380952380956" y="489.84761904761905"/>
      <point x="319.4119047619048" y="561.9761904761904"/>
      <point x="346.95" y="616.7071428571428" type="curve"/>
      <point x="328.65" y="554.7071428571428"/>
      <point x="311.51428571428573" y="477.14761904761906"/>
      <point x="300.51428571428573" y="425.25476190476184" type="curve" smooth="yes"/>
      <point x="237.6095238095238" y="126.89761904761906" type="line" smooth="yes"/>
      <point x="222.89761904761906" y="57.790476190476184"/>
      <point x="182.70238095238096" y="54.897619047619045"/>
      <point x="151.65714285714284" y="54.897619047619045" type="curve" smooth="yes"/>
      <point x="133.8309523809524" y="54.897619047619045" type="line"/>
    </contour>
  </outline>
</glyph>
<glyph name="five" format="2">
  <advance width="516.8261904761905"/>
  <unicode hex="0035"/>
  <outline>
    <contour>
      <point x="194.95476190476194" y="-10.0" type="curve" smooth="yes"/>
      <point x="370.9785714285714" y="-10.0"/>
      <point x="473.8285714285714" y="105.04761904761904"/>
      <point x="473.8285714285714" y="254.5595238095238" type="curve" smooth="yes"/>
      <point x="473.8285714285714" y="371.2071428571429"/>
      <point x="395.60952380952386" y="434.95476190476194"/>
      <point x="273.37619047619046" y="434.95476190476194" type="curve" smooth="yes"/>
      <point x="229.73333333333335" y="434.95476190476194"/>
      <point x="201.6857142857143" y="426.50238095238103"/>
      <point x="179.39047619047616" y="418.95476190476194" type="curve"/>
      <point x="228.0285714285714" y="600.2500000000001" type="line"/>
      <point x="410.3738095238095" y="600.2500000000001" type="line" smooth="yes"/>
      <point x="443.48571428571427" y="600.2500000000001"/>
      <point x="453.4690476190476" y="590.95"/>
      <point x="453.4690476190476" y="576.102380952381" type="curve" smooth="yes"/>
      <point x="453.4690476190476" y="568.8023809523809"/>
      <point x="450.93333333333334" y="544.5547619047619"/>
      <point x="449.06904761904764" y="526.854761904762" type="curve"/>
      <point x="510.9857142857143" y="526.854761904762" type="line"/>
      <point x="542.8642857142856" y="714.0" type="line"/>
      <point x="193.8261904761905" y="714.0" type="line"/>
      <point x="98.14999999999999" y="369.3" type="line"/>
      <point x="137.8357142857143" y="345.75714285714287" type="line"/>
      <point x="158.92380952380952" y="356.75714285714287"/>
      <point x="185.12380952380954" y="367.75714285714287"/>
      <point x="225.02857142857144" y="367.75714285714287" type="curve" smooth="yes"/>
      <point x="281.95238095238096" y="367.75714285714287"/>
      <point x="322.8928571428571" y="327.552380952381"/>
      <point x="322.8928571428571" y="246.8595238095238" type="curve" smooth="yes"/>
      <point x="322.8928571428571" y="126.48095238095239"/>
      <point x="277.05476190476196" y="62.14047619047619"/>
      <point x="205.74523809523808" y="62.14047619047619" type="curve" smooth="yes"/>
      <point x="128.0809523809524" y="62.14047619047619"/>
      <point x="113.52857142857144" y="136.65"/>
      <point x="113.92857142857143" y="195.3047619047619" type="curve"/>
      <point x="51.68333333333334" y="195.3047619047619"/>
      <point x="22.976190476190474" y="156.3904761904762"/>
      <point x="22.976190476190474" y="108.63571428571429" type="curve" smooth="yes"/>
      <point x="22.976190476190474" y="44.36904761904763"/>
      <point x="72.1047619047619" y="-10.0"/>
    </contour>
  </outline>
</glyph>
<glyph name="six" format="2">
  <advance width="516.8261904761905"/>
  <unicode hex="0036"/>
  <outline>
    <contour>
      <point x="243.29285714285714" y="-10.0" type="curve" smooth="yes"/>
      <point x="412.89761904761906" y="-10.0"/>
      <point x="495.8" y="126.76428571428569"/>
      <point x="495.8" y="268.5476190476191" type="curve" smooth="yes"/>
      <point x="495.8" y="360.8952380952381"/>
      <point x="451.2" y="438.24285714285713"/>
      <point x="354.0333333333333" y="438.24285714285713" type="curve" smooth="yes"/>
      <point x="292.47380952380956" y="438.24285714285713"/>
      <point x="252.5809523809524" y="412.502380952381"/>
      <point x="226.0809523809524" y="388.7904761904762" type="curve"/>
      <point x="263.3261904761904" y="573.452380952381"/>
      <point x="317.71190476190475" y="663.1023809523809"/>
      <point x="385.53809523809525" y="663.1023809523809" type="curve" smooth="yes"/>
      <point x="427.9357142857143" y="663.1023809523809"/>
      <point x="431.1357142857143" y="598.1476190476191"/>
      <point x="429.0357142857143" y="532.3571428571428" type="curve"/>
      <point x="509.89523809523797" y="532.3571428571428"/>
      <point x="558.3523809523809" y="566.0"/>
      <point x="558.3523809523809" y="620.5571428571429" type="curve" smooth="yes"/>
      <point x="558.3523809523809" y="676.6095238095239"/>
      <point x="507.5619047619047" y="724.0"/>
      <point x="410.67619047619047" y="724.0" type="curve" smooth="yes"/>
      <point x="195.17619047619047" y="724.0"/>
      <point x="58.64523809523809" y="468.84999999999997"/>
      <point x="58.64523809523809" y="220.23333333333332" type="curve" smooth="yes"/>
      <point x="58.64523809523809" y="64.60000000000001"/>
      <point x="140.71190476190475" y="-10.0"/>
    </contour>
    <contour>
      <point x="260.895238095238" y="56.03333333333333" type="curve" smooth="yes"/>
      <point x="222.62619047619046" y="56.03333333333333"/>
      <point x="198.59761904761908" y="97.25238095238096"/>
      <point x="198.59761904761908" y="187.60714285714283" type="curve" smooth="yes"/>
      <point x="198.59761904761908" y="234.61190476190478"/>
      <point x="203.51666666666668" y="274.1309523809524"/>
      <point x="212.5333333333333" y="325.0" type="curve"/>
      <point x="232.97857142857143" y="349.6047619047619"/>
      <point x="266.6119047619047" y="376.2095238095238"/>
      <point x="299.86190476190484" y="376.2095238095238" type="curve" smooth="yes"/>
      <point x="335.6785714285714" y="376.2095238095238"/>
      <point x="354.12380952380954" y="336.6404761904762"/>
      <point x="354.12380952380954" y="265.9833333333333" type="curve" smooth="yes"/>
      <point x="354.12380952380954" y="149.55714285714288"/>
      <point x="315.23809523809524" y="56.03333333333333"/>
    </contour>
  </outline>
</glyph>
<glyph name="seven" format="2">
  <advance width="516.8261904761905"/>
  <unicode hex="0037"/>
  <outline>
    <contour>
      <point x="104.52857142857141" y="0.0" type="line"/>
      <point x="185.30238095238093" y="0.0" type="line"/>
      <point x="567.1404761904763" y="649.7023809523808" type="line"/>
      <point x="579.85" y="714.0" type="line"/>
      <point x="157.11904761904765" y="714.0" type="line"/>
      <point x="109.4547619047619" y="499.25" type="line"/>
      <point x="171.3714285714286" y="499.25" type="line"/>
      <point x="185.05476190476193" y="549.2500000000001" type="line" smooth="yes"/>
      <point x="194.05476190476193" y="582.2500000000001"/>
      <point x="215.25476190476192" y="600.5666666666666"/>
      <point x="246.35476190476194" y="600.5666666666666" type="curve" smooth="yes"/>
      <point x="468.3428571428571" y="600.5666666666666" type="line"/>
    </contour>
  </outline>
</glyph>
<glyph name="eight" format="2">
  <advance width="516.8261904761905"/>
  <unicode hex="0038"/>
  <outline>
    <contour>
      <point x="242.58333333333331" y="-10.0" type="curve" smooth="yes"/>
      <point x="385.7928571428571" y="-10.0"/>
      <point x="486.02857142857147" y="58.8"/>
      <point x="486.02857142857147" y="207.60000000000002" type="curve" smooth="yes"/>
      <point x="486.02857142857147" y="285.8"/>
      <point x="443.44523809523804" y="340.2476190476191"/>
      <point x="385.71190476190475" y="380.4071428571429" type="curve"/>
      <point x="474.997619047619" y="428.2476190476191"/>
      <point x="537.5452380952381" y="479.1"/>
      <point x="537.5452380952381" y="581.8166666666667" type="curve" smooth="yes"/>
      <point x="537.5452380952381" y="663.4"/>
      <point x="471.14285714285717" y="724.0"/>
      <point x="359.7404761904762" y="724.0" type="curve" smooth="yes"/>
      <point x="192.79523809523812" y="724.0"/>
      <point x="128.56428571428572" y="632.7428571428571"/>
      <point x="128.56428571428572" y="532.0785714285714" type="curve" smooth="yes"/>
      <point x="128.56428571428572" y="462.7595238095238"/>
      <point x="161.11190476190478" y="403.20476190476194"/>
      <point x="206.35238095238094" y="361.6047619047619" type="curve"/>
      <point x="107.51190476190476" y="317.9047619047619"/>
      <point x="29.816666666666666" y="271.9666666666667"/>
      <point x="29.816666666666666" y="157.16666666666666" type="curve" smooth="yes"/>
      <point x="29.816666666666666" y="60.28333333333333"/>
      <point x="115.22619047619048" y="-10.0"/>
    </contour>
    <contour>
      <point x="244.952380952381" y="49.35" type="curve" smooth="yes"/>
      <point x="194.56190476190477" y="49.35"/>
      <point x="164.7809523809524" y="88.84285714285714"/>
      <point x="164.7809523809524" y="151.85238095238097" type="curve" smooth="yes"/>
      <point x="164.7809523809524" y="234.60238095238097"/>
      <point x="201.88333333333335" y="289.85476190476186"/>
      <point x="263.90952380952376" y="321.8595238095238" type="curve"/>
      <point x="318.78809523809525" y="281.5023809523809"/>
      <point x="348.43333333333334" y="239.90238095238095"/>
      <point x="348.43333333333334" y="178.65714285714287" type="curve" smooth="yes"/>
      <point x="348.43333333333334" y="93.20714285714286"/>
      <point x="300.59523809523813" y="49.35"/>
    </contour>
    <contour>
      <point x="329.45952380952383" y="415.35" type="curve"/>
      <point x="289.5333333333333" y="447.7071428571429"/>
      <point x="268.64047619047614" y="490.1547619047619"/>
      <point x="268.64047619047614" y="538.947619047619" type="curve" smooth="yes"/>
      <point x="268.64047619047614" y="615.2571428571428"/>
      <point x="305.92857142857144" y="664.4976190476192"/>
      <point x="352.62857142857143" y="664.4976190476192" type="curve" smooth="yes"/>
      <point x="391.09047619047624" y="664.4976190476192"/>
      <point x="410.5761904761905" y="626.6928571428571"/>
      <point x="410.5761904761905" y="576.6" type="curve" smooth="yes"/>
      <point x="410.5761904761905" y="512.6904761904761"/>
      <point x="388.8833333333334" y="456.8904761904762"/>
    </contour>
  </outline>
</glyph>
<glyph name="nine" format="2">
  <advance width="516.8261904761905"/>
  <unicode hex="0039"/>
  <outline>
    <contour>
      <point x="167.95238095238096" y="-10.0" type="curve" smooth="yes"/>
      <point x="420.691261904762" y="-10.0"/>
      <point x="523.8976190476191" y="347.9333333333334"/>
      <point x="523.8976190476191" y="536.6666666666666" type="curve" smooth="yes"/>
      <point x="523.8976190476191" y="656.4333333333334"/>
      <point x="457.9904761904762" y="724.0"/>
      <point x="352.2047619047619" y="724.0" type="curve" smooth="yes"/>
      <point x="212.1944523809524" y="724.0"/>
      <point x="90.31904761904761" y="604.1833333333333"/>
      <point x="90.31904761904761" y="434.0" type="curve" smooth="yes"/>
      <point x="90.31904761904761" y="341.2"/>
      <point x="140.14761904761906" y="275.0"/>
      <point x="230.8404761904762" y="275.0" type="curve" smooth="yes"/>
      <point x="290.4119047619048" y="275.0"/>
      <point x="332.3190476190476" y="308.0"/>
      <point x="362.6547619047619" y="343.0" type="curve"/>
      <point x="314.4" y="159.71904761904761"/>
      <point x="264.0238095238095" y="55.29285714285714"/>
      <point x="180.3642857142857" y="55.29285714285714" type="curve" smooth="yes"/>
      <point x="129.79285714285714" y="55.29285714285714"/>
      <point x="111.55714285714286" y="115.03333333333333"/>
      <point x="111.95714285714287" y="167.45714285714286" type="curve"/>
      <point x="62.67857142857143" y="167.45714285714286"/>
      <point x="32.79047619047619" y="138.84761904761908"/>
      <point x="32.79047619047619" y="92.80952380952381" type="curve" smooth="yes"/>
      <point x="32.79047619047619" y="36.147619047619045"/>
      <point x="76.83333333333334" y="-10.0"/>
    </contour>
    <contour>
      <point x="287.0238095238095" y="349.85238095238094" type="curve" smooth="yes"/>
      <point x="254.03809523809525" y="349.85238095238094"/>
      <point x="234.40476190476193" y="380.49285714285713"/>
      <point x="234.40476190476193" y="439.4190476190476" type="curve" smooth="yes"/>
      <point x="234.40476190476193" y="541.452380952381"/>
      <point x="278.8619047619048" y="655.5714285714286"/>
      <point x="337.1619047619048" y="655.5714285714286" type="curve" smooth="yes"/>
      <point x="368.14761904761906" y="655.5714285714286"/>
      <point x="389.9452380952381" y="622.7666666666667"/>
      <point x="389.9452380952381" y="545.2833333333333" type="curve" smooth="yes"/>
      <point x="389.9452380952381" y="510.7476190476191"/>
      <point x="383.10952380952375" y="460.0547619047619"/>
      <point x="374.09285714285716" y="426.35" type="curve"/>
      <point x="355.5642857142857" y="389.29285714285714"/>
      <point x="326.4619047619047" y="350.1690476190476"/>
    </contour>
  </outline>
</glyph>
<glyph name="colon" format="2">
  <advance width="345.07380952380953"/>
  <unicode hex="003A"/>
  <outline>
    <contour>
      <point x="208.64999999999998" y="374.80952380952385" type="curve" smooth="yes"/>
      <point x="250.59999999999997" y="374.80952380952385"/>
      <point x="296.4142857142857" y="399.45238095238096"/>
      <point x="296.4142857142857" y="469.26904761904757" type="curve" smooth="yes"/>
      <point x="296.4142857142857" y="518.304761904762"/>
      <point x="263.9595238095239" y="541.0"/>
      <point x="219.08095238095237" y="541.0" type="curve" smooth="yes"/>
      <point x="166.05238095238096" y="541.0"/>
      <point x="131.63333333333333" y="502.8095238095238"/>
      <point x="131.63333333333333" y="447.17380952380955" type="curve" smooth="yes"/>
      <point x="131.63333333333333" y="399.6357142857143"/>
      <point x="162.95238095238096" y="374.80952380952385"/>
    </contour>
    <contour>
      <point x="122.44523809523808" y="-8.0" type="curve" smooth="yes"/>
      <point x="164.3952380952381" y="-8.0"/>
      <point x="210.20952380952383" y="16.095238095238095"/>
      <point x="210.20952380952383" y="86.07619047619048" type="curve" smooth="yes"/>
      <point x="210.20952380952383" y="134.94761904761907"/>
      <point x="177.75476190476186" y="158.19047619047618"/>
      <point x="132.8761904761905" y="158.19047619047618" type="curve" smooth="yes"/>
      <point x="79.84761904761905" y="158.19047619047618"/>
      <point x="45.42857142857143" y="120.00000000000001"/>
      <point x="45.42857142857143" y="64.36428571428571" type="curve" smooth="yes"/>
      <point x="45.42857142857143" y="16.27857142857143"/>
      <point x="77.1309523809524" y="-8.0"/>
    </contour>
  </outline>
</glyph>
<glyph name="semicolon" format="2">
  <advance width="344.37380952380954"/>
  <unicode hex="003B"/>
  <outline>
    <contour>
      <point x="-14.895238095238097" y="-152.10714285714283" type="line"/>
      <point x="125.09999999999998" y="-122.84761904761903"/>
      <point x="199.3047619047619" y="-36.72619047619048"/>
      <point x="199.3047619047619" y="67.55476190476192" type="curve" smooth="yes"/>
      <point x="199.3047619047619" y="124.87857142857142"/>
      <point x="165.89285714285714" y="157.19047619047618"/>
      <point x="122.70238095238098" y="157.19047619047618" type="curve" smooth="yes"/>
      <point x="83.84761904761906" y="157.19047619047618"/>
      <point x="49.29285714285714" y="129.70000000000002"/>
      <point x="49.29285714285714" y="83.65714285714286" type="curve" smooth="yes"/>
      <point x="49.29285714285714" y="28.433333333333337"/>
      <point x="91.02619047619048" y="28.19761904761905"/>
      <point x="91.02619047619048" y="-12.109523809523811" type="curve" smooth="yes"/>
      <point x="91.02619047619048" y="-52.50952380952381"/>
      <point x="59.842857142857135" y="-80.34523809523809"/>
      <point x="-1.1571428571428564" y="-97.20952380952382" type="curve"/>
    </contour>
    <contour>
      <point x="208.64999999999998" y="374.80952380952385" type="curve" smooth="yes"/>
      <point x="250.21666666666667" y="374.80952380952385"/>
      <point x="296.4142857142857" y="399.45238095238096"/>
      <point x="296.4142857142857" y="469.26904761904757" type="curve" smooth="yes"/>
      <point x="296.4142857142857" y="518.304761904762"/>
      <point x="263.5761904761905" y="541.0"/>
      <point x="218.69761904761904" y="541.0" type="curve" smooth="yes"/>
      <point x="166.05238095238096" y="541.0"/>
      <point x="131.25" y="502.8095238095238"/>
      <point x="131.25" y="447.17380952380955" type="curve" smooth="yes"/>
      <point x="131.25" y="399.6357142857143"/>
      <point x="162.95238095238096" y="374.80952380952385"/>
    </contour>
  </outline>
</glyph>
<glyph name="less" format="2">
  <advance width="466.84285714285716"/>
  <unicode hex="003C"/>
  <outline>
    <contour>
      <point x="445.44761904761907" y="101.95000000000002" type="line"/>
      <point x="445.44761904761907" y="182.84761904761905" type="line"/>
      <point x="164.88809523809525" y="357.0" type="line"/>
      <point x="445.44761904761907" y="533.152380952381" type="line"/>
      <point x="445.44761904761907" y="614.0499999999998" type="line"/>
      <point x="66.0952380952381" y="378.3952380952381" type="line"/>
      <point x="66.0952380952381" y="336.6047619047619" type="line"/>
    </contour>
  </outline>
</glyph>
<glyph name="equal" format="2">
  <advance width="466.84285714285716"/>
  <unicode hex="003D"/>
  <outline>
    <contour>
      <point x="63.54761904761906" y="414.02142857142854" type="line"/>
      <point x="448.1595238095239" y="414.02142857142854" type="line"/>
      <point x="448.1595238095239" y="485.5357142857143" type="line"/>
      <point x="63.54761904761906" y="485.5357142857143" type="line"/>
    </contour>
    <contour>
      <point x="63.54761904761906" y="228.46428571428575" type="line"/>
      <point x="448.1595238095239" y="228.46428571428575" type="line"/>
      <point x="448.1595238095239" y="299.97857142857146" type="line"/>
      <point x="63.54761904761906" y="299.97857142857146" type="line"/>
    </contour>
  </outline>
</glyph>
<glyph name="question" format="2">
  <advance width="480.954761904762"/>
  <unicode hex="003F"/>
  <outline>
    <contour>
      <point x="179.25952380952384" y="232.20952380952383" type="line"/>
      <point x="244.61190476190475" y="232.20952380952383" type="line"/>
      <point x="279.22619047619054" y="317.0" type="line"/>
      <point x="406.92142857142863" y="369.3333333333333"/>
      <point x="503.10476190476186" y="444.7333333333333"/>
      <point x="503.10476190476186" y="565.8833333333333" type="curve" smooth="yes"/>
      <point x="503.10476190476186" y="674.0833333333334"/>
      <point x="429.2515952380952" y="724.0"/>
      <point x="307.40238095238095" y="724.0" type="curve" smooth="yes"/>
      <point x="176.24523809523808" y="724.0"/>
      <point x="89.85238095238097" y="665.5428571428572"/>
      <point x="89.85238095238097" y="592.447619047619" type="curve" smooth="yes"/>
      <point x="89.85238095238097" y="540.402380952381"/>
      <point x="132.45714285714286" y="514.8595238095238"/>
      <point x="218.6952380952381" y="514.8595238095238" type="curve"/>
      <point x="227.1357142857143" y="590.8595238095237"/>
      <point x="247.7761904761905" y="661.1023809523809"/>
      <point x="293.21190476190475" y="661.1023809523809" type="curve" smooth="yes"/>
      <point x="320.9380952380953" y="661.1023809523809"/>
      <point x="341.87142857142857" y="627.1333333333332"/>
      <point x="341.87142857142857" y="567.6761904761905" type="curve" smooth="yes"/>
      <point x="341.87142857142857" y="451.75"/>
      <point x="273.35" y="396.247619047619"/>
      <point x="168.50952380952378" y="352.3952380952381" type="curve"/>
    </contour>
    <contour>
      <point x="183.59999999999997" y="-8.0" type="curve" smooth="yes"/>
      <point x="225.55000000000004" y="-8.0"/>
      <point x="271.36428571428576" y="16.095238095238095"/>
      <point x="271.36428571428576" y="86.07619047619048" type="curve" smooth="yes"/>
      <point x="271.36428571428576" y="134.94761904761907"/>
      <point x="238.9095238095238" y="158.19047619047618"/>
      <point x="194.03095238095239" y="158.19047619047618" type="curve" smooth="yes"/>
      <point x="141.00238095238095" y="158.19047619047618"/>
      <point x="106.58333333333333" y="120.00000000000001"/>
      <point x="106.58333333333333" y="64.36428571428571" type="curve" smooth="yes"/>
      <point x="106.58333333333333" y="16.27857142857143"/>
      <point x="137.90238095238095" y="-8.0"/>
    </contour>
  </outline>
</glyph>
<glyph name="bracketleft" format="2">
  <advance width="384.6047619047619"/>
  <unicode hex="005B"/>
  <outline>
    <contour>
      <point x="21.90476190476191" y="-128.0" type="line"/>
      <point x="288.0261904761905" y="-128.0" type="line"/>
      <point x="299.57380952380953" y="-73.10238095238095" type="line"/>
      <point x="262.1738095238095" y="-73.10238095238095" type="line" smooth="yes"/>
      <point x="231.7333333333333" y="-73.10238095238095"/>
      <point x="205.08571428571432" y="-67.10238095238095"/>
      <point x="205.08571428571432" y="-27.247619047619047" type="curve" smooth="yes"/>
      <point x="205.08571428571432" y="-18.3"/>
      <point x="205.92142857142863" y="-10.707142857142856"/>
      <point x="207.92142857142863" y="-0.8595238095238077" type="curve"/>
      <point x="340.3476190476191" y="633.1023809523809" type="line"/>
      <point x="353.3476190476191" y="696.1023809523809"/>
      <point x="389.67857142857144" y="705.1023809523809"/>
      <point x="426.8309523809524" y="705.1023809523809" type="curve" smooth="yes"/>
      <point x="464.61428571428576" y="705.1023809523809" type="line"/>
      <point x="477.0261904761905" y="760.0" type="line"/>
      <point x="210.9047619047619" y="760.0" type="line"/>
    </contour>
  </outline>
</glyph>
<glyph name="backslash" format="2">
  <advance width="250.26666666666665"/>
  <unicode hex="005C"/>
  <outline>
    <contour>
      <point x="143.78809523809522" y="-121.0" type="line"/>
      <point x="209.3857142857143" y="-121.0" type="line"/>
      <point x="177.0547619047619" y="760.0" type="line"/>
      <point x="110.59285714285714" y="760.0" type="line"/>
    </contour>
  </outline>
</glyph>
<glyph name="bracketright" format="2">
  <advance width="384.6047619047619"/>
  <unicode hex="005D"/>
  <outline>
    <contour>
      <point x="-53.25476190476191" y="-128.0" type="line"/>
      <point x="211.8666666666667" y="-128.0" type="line"/>
      <point x="400.55" y="760.0" type="line"/>
      <point x="134.74523809523808" y="760.0" type="line"/>
      <point x="123.19761904761904" y="705.1023809523809" type="line"/>
      <point x="160.59761904761908" y="705.1023809523809" type="line" smooth="yes"/>
      <point x="191.03809523809522" y="705.1023809523809"/>
      <point x="217.8380952380952" y="699.1023809523809"/>
      <point x="217.8380952380952" y="659.247619047619" type="curve" smooth="yes"/>
      <point x="217.8380952380952" y="650.3000000000001"/>
      <point x="216.68571428571428" y="642.7071428571429"/>
      <point x="214.68571428571428" y="632.8595238095237" type="curve" smooth="yes"/>
      <point x="83.12380952380953" y="-1.1023809523809502" type="line"/>
      <point x="70.12380952380953" y="-64.10238095238094"/>
      <point x="35.02380952380952" y="-73.10238095238095"/>
      <point x="-3.0595238095238093" y="-73.10238095238095" type="curve" smooth="yes"/>
      <point x="-40.45952380952381" y="-73.10238095238095" type="line"/>
    </contour>
  </outline>
</glyph>
<glyph name="asciicircum" format="2">
  <advance width="466.84285714285716"/>
  <unicode hex="005E"/>
  <outline>
    <contour>
      <point x="47.38809523809523" y="258.4714285714286" type="line"/>
      <point x="119.5857142857143" y="258.4714285714286" type="line"/>
      <point x="254.27142857142857" y="602.5309523809524" type="line"/>
      <point x="390.4095238095238" y="258.4714285714286" type="line"/>
      <point x="462.9904761904762" y="258.4714285714286" type="line"/>
      <point x="275.43095238095236" y="714.0" type="line"/>
      <point x="234.42857142857147" y="714.0" type="line"/>
    </contour>
  </outline>
</glyph>
<glyph name="underscore" format="2">
  <advance width="398.55"/>
  <unicode hex="005F"/>
  <outline>
    <contour>
      <point x="-83.3" y="-142.0" type="line"/>
      <point x="323.55" y="-142.0" type="line"/>
      <point x="336.55" y="-83.0" type="line"/>
      <point x="-70.3" y="-83.0" type="line"/>
    </contour>
  </outline>
</glyph>
<glyph name="braceleft" format="2">
  <advance width="390.45952380952383"/>
  <unicode hex="007B"/>
  <outline>
    <contour>
      <point x="207.07142857142858" y="-124.6047619047619" type="curve" smooth="yes"/>
      <point x="301.9880952380953" y="-124.6047619047619" type="line"/>
      <point x="315.0833333333334" y="-69.39047619047619" type="line"/>
      <point x="277.697619047619" y="-69.39047619047619" type="line" smooth="yes"/>
      <point x="245.3404761904762" y="-69.39047619047619"/>
      <point x="233.7" y="-52.35000000000001"/>
      <point x="233.7" y="-22.104761904761904" type="curve" smooth="yes"/>
      <point x="233.7" y="-6.073809523809524"/>
      <point x="235.40000000000003" y="9.79047619047619"/>
      <point x="239.39999999999998" y="26.790476190476195" type="curve" smooth="yes"/>
      <point x="272.5166666666667" y="176.77380952380952" type="line" smooth="yes"/>
      <point x="275.9166666666667" y="191.57619047619045"/>
      <point x="280.41666666666674" y="212.4452380952381"/>
      <point x="280.41666666666674" y="228.34761904761902" type="curve" smooth="yes"/>
      <point x="280.41666666666674" y="270.1690476190476"/>
      <point x="257.16428571428577" y="298.5928571428571"/>
      <point x="206.41666666666666" y="315.54761904761904" type="curve"/>
      <point x="208.42857142857142" y="322.32380952380953" type="line"/>
      <point x="280.5595238095238" y="340.56666666666666"/>
      <point x="313.8642857142857" y="379.7071428571429"/>
      <point x="327.0166666666667" y="440.0" type="curve" smooth="yes"/>
      <point x="360.45000000000005" y="594.102380952381" type="line" smooth="yes"/>
      <point x="377.4690476190476" y="673.3785714285715"/>
      <point x="391.75476190476195" y="705.65"/>
      <point x="439.64285714285717" y="705.65" type="curve" smooth="yes"/>
      <point x="477.8928571428571" y="705.65" type="line"/>
      <point x="490.3047619047619" y="760.0" type="line"/>
      <point x="409.2404761904762" y="760.0" type="line" smooth="yes"/>
      <point x="289.3928571428571" y="760.0"/>
      <point x="225.01904761904763" y="723.1166666666667"/>
      <point x="202.07142857142856" y="614.152380952381" type="curve" smooth="yes"/>
      <point x="165.91904761904763" y="441.45238095238096" type="line" smooth="yes"/>
      <point x="150.6309523809524" y="367.7904761904762"/>
      <point x="104.87857142857142" y="352.35"/>
      <point x="47.595238095238095" y="350.8976190476191" type="curve"/>
      <point x="32.635714285714286" y="286.497619047619" type="line"/>
      <point x="80.23571428571427" y="284.497619047619"/>
      <point x="116.6190476190476" y="273.6047619047619"/>
      <point x="116.6190476190476" y="223.25238095238095" type="curve" smooth="yes"/>
      <point x="116.6190476190476" y="215.26428571428573"/>
      <point x="116.09999999999998" y="204.93095238095236"/>
      <point x="113.78333333333335" y="194.24285714285716" type="curve" smooth="yes"/>
      <point x="87.15476190476191" y="69.54761904761904" type="line" smooth="yes"/>
      <point x="76.18333333333334" y="16.883333333333336"/>
      <point x="74.33095238095237" y="-1.0"/>
      <point x="74.33095238095237" y="-17.669047619047618" type="curve" smooth="yes"/>
      <point x="74.33095238095237" y="-83.89761904761903"/>
      <point x="119.01904761904763" y="-124.6047619047619"/>
    </contour>
  </outline>
</glyph>
<glyph name="bar" format="2">
  <advance width="492.3761904761905"/>
  <unicode hex="007C"/>
  <outline>
    <contour>
      <point x="229.88095238095238" y="-240.0" type="line"/>
      <point x="298.0261904761905" y="-240.0" type="line"/>
      <point x="298.0261904761905" y="760.0" type="line"/>
      <point x="229.88095238095238" y="760.0" type="line"/>
    </contour>
  </outline>
</glyph>
<glyph name="braceright" format="2">
  <advance width="390.4595238095238"/>
  <unicode hex="007D"/>
  <outline>
    <contour>
      <point x="-52.45952380952381" y="-123.75714285714287" type="line"/>
      <point x="27.740476190476194" y="-123.75714285714287" type="line" smooth="yes"/>
      <point x="149.23809523809527" y="-123.75714285714287"/>
      <point x="212.81428571428575" y="-85.09047619047618"/>
      <point x="235.6095238095238" y="22.790476190476195" type="curve" smooth="yes"/>
      <point x="271.6095238095238" y="194.24285714285716" type="line" smooth="yes"/>
      <point x="287.06190476190477" y="268.6047619047619"/>
      <point x="332.96666666666664" y="283.497619047619"/>
      <point x="390.25" y="285.65" type="curve"/>
      <point x="405.2095238095238" y="349.35" type="line"/>
      <point x="357.60952380952375" y="351.35"/>
      <point x="320.90952380952376" y="362.09047619047624"/>
      <point x="320.90952380952376" y="413.1428571428571" type="curve" smooth="yes"/>
      <point x="320.90952380952376" y="421.7642857142858"/>
      <point x="322.06190476190477" y="431.7809523809524"/>
      <point x="324.06190476190477" y="441.7690476190476" type="curve" smooth="yes"/>
      <point x="356.35714285714283" y="597.195238095238" type="line" smooth="yes"/>
      <point x="363.21428571428567" y="629.1904761904761"/>
      <point x="363.34999999999997" y="642.3928571428572"/>
      <point x="363.34999999999997" y="654.5452380952381" type="curve" smooth="yes"/>
      <point x="363.34999999999997" y="719.2571428571428"/>
      <point x="319.92857142857144" y="761.547619047619"/>
      <point x="231.40714285714284" y="761.547619047619" type="curve" smooth="yes"/>
      <point x="134.99285714285716" y="761.547619047619" type="line"/>
      <point x="121.89761904761903" y="706.65" type="line"/>
      <point x="160.1476190476191" y="706.65" type="line" smooth="yes"/>
      <point x="192.5047619047619" y="706.65"/>
      <point x="203.28095238095239" y="689.9261904761905"/>
      <point x="203.28095238095239" y="660.3142857142857" type="curve" smooth="yes"/>
      <point x="203.28095238095239" y="642.6999999999999"/>
      <point x="201.5809523809524" y="627.1523809523809"/>
      <point x="197.58095238095237" y="610.152380952381" type="curve" smooth="yes"/>
      <point x="164.84761904761908" y="455.2023809523809" type="line" smooth="yes"/>
      <point x="161.8309523809524" y="442.21904761904767"/>
      <point x="157.42857142857142" y="421.98333333333335"/>
      <point x="157.42857142857142" y="408.04761904761904" type="curve" smooth="yes"/>
      <point x="157.42857142857142" y="366.70714285714286"/>
      <point x="179.81666666666666" y="337.95476190476194"/>
      <point x="231.26428571428573" y="321.54761904761904" type="curve"/>
      <point x="228.71666666666667" y="312.6047619047619" type="line"/>
      <point x="156.42142857142858" y="293.497619047619"/>
      <point x="122.96428571428572" y="255.60476190476192"/>
      <point x="110.12857142857143" y="196.3952380952381" type="curve" smooth="yes"/>
      <point x="73.12857142857143" y="26.790476190476195" type="line" smooth="yes"/>
      <point x="59.359523809523814" y="-36.36904761904762"/>
      <point x="46.79047619047619" y="-68.70714285714287"/>
      <point x="-2.345238095238094" y="-68.70714285714287" type="curve" smooth="yes"/>
      <point x="-40.04761904761905" y="-68.70714285714287" type="line"/>
    </contour>
  </outline>
</glyph>
<glyph name="asciitilde" format="2">
  <advance width="466.84285714285716"/>
  <unicode hex="007E"/>
  <outline>
    <contour>
      <point x="44.192857142857136" y="261.04523809523806" type="curve"/>
      <point x="115.98571428571428" y="261.04523809523806" type="line"/>
      <point x="117.07142857142857" y="344.65000000000003"/>
      <point x="134.11904761904762" y="377.67857142857144"/>
      <point x="165.96904761904761" y="377.67857142857144" type="curve" smooth="yes"/>
      <point x="186.35238095238097" y="377.67857142857144"/>
      <point x="198.02619047619046" y="364.8619047619048"/>
      <point x="235.03571428571428" y="326.20952380952383" type="curve" smooth="yes"/>
      <point x="285.9333333333333" y="272.8285714285714"/>
      <point x="312.7595238095238" y="261.04523809523806"/>
      <point x="349.34285714285716" y="261.04523809523806" type="curve" smooth="yes"/>
      <point x="439.48809523809524" y="261.04523809523806"/>
      <point x="466.397619047619" y="344.68571428571425"/>
      <point x="468.06666666666666" y="451.95476190476194" type="curve"/>
      <point x="395.49285714285713" y="451.95476190476194" type="line"/>
      <point x="394.452380952381" y="367.8380952380952"/>
      <point x="379.00714285714287" y="335.6380952380952"/>
      <point x="348.3833333333334" y="335.6380952380952" type="curve" smooth="yes"/>
      <point x="327.56190476190477" y="335.6380952380952"/>
      <point x="315.12619047619046" y="351.13571428571436"/>
      <point x="281.11428571428576" y="384.57142857142856" type="curve" smooth="yes"/>
      <point x="229.76190476190473" y="434.6380952380952"/>
      <point x="204.66428571428568" y="451.95476190476194"/>
      <point x="164.3642857142857" y="451.95476190476194" type="curve" smooth="yes"/>
      <point x="73.62619047619049" y="451.95476190476194"/>
      <point x="44.826190476190476" y="365.60238095238094"/>
    </contour>
  </outline>
</glyph>
<glyph name="twosuperior" format="2">
  <advance width="347.4142857142857"/>
  <unicode hex="00B2"/>
  <outline>
    <contour>
      <point x="61.86666666666667" y="386.0" type="line"/>
      <point x="349.0023809523809" y="386.0" type="line"/>
      <point x="376.68571428571425" y="529.247619047619" type="line"/>
      <point x="340.9428571428571" y="529.247619047619" type="line"/>
      <point x="333.6428571428571" y="508.24761904761897" type="line" smooth="yes"/>
      <point x="326.34285714285716" y="486.247619047619"/>
      <point x="313.3595238095238" y="467.247619047619"/>
      <point x="286.5595238095238" y="467.247619047619" type="curve" smooth="yes"/>
      <point x="153.99285714285713" y="467.247619047619" type="line"/>
      <point x="266.9333333333333" y="556.0547619047619" type="line" smooth="yes"/>
      <point x="371.5452380952381" y="638.5285714285715"/>
      <point x="405.65000000000003" y="681.2190476190476"/>
      <point x="405.65000000000003" y="737.2071428571429" type="curve" smooth="yes"/>
      <point x="405.65000000000003" y="789.247619047619"/>
      <point x="360.8190476190476" y="824.0"/>
      <point x="287.75952380952384" y="824.0" type="curve" smooth="yes"/>
      <point x="202.04523809523812" y="824.0"/>
      <point x="148.24999999999997" y="782.1690476190477"/>
      <point x="148.24999999999997" y="728.2428571428572" type="curve" smooth="yes"/>
      <point x="148.24999999999997" y="697.8476190476191"/>
      <point x="175.2404761904762" y="677.6999999999999"/>
      <point x="217.97857142857143" y="677.6999999999999" type="curve"/>
      <point x="223.81428571428572" y="730.7285714285714"/>
      <point x="244.07142857142858" y="777.8928571428571"/>
      <point x="272.56904761904764" y="777.8928571428571" type="curve" smooth="yes"/>
      <point x="296.3142857142857" y="777.8928571428571"/>
      <point x="304.98333333333335" y="755.5523809523809"/>
      <point x="304.98333333333335" y="730.7142857142857" type="curve" smooth="yes"/>
      <point x="304.98333333333335" y="677.647619047619"/>
      <point x="281.45" y="630.8785714285714"/>
      <point x="207.36428571428573" y="569.7952380952381" type="curve" smooth="yes"/>
      <point x="81.03333333333335" y="466.3095238095238" type="line"/>
    </contour>
  </outline>
</glyph>
<glyph name="threesuperior" format="2">
  <advance width="347.4142857142857"/>
  <unicode hex="00B3"/>
  <outline>
    <contour>
      <point x="202.37857142857143" y="380.0" type="curve" smooth="yes"/>
      <point x="303.67619047619047" y="380.0"/>
      <point x="381.9158809523809" y="429.4"/>
      <point x="381.91904761904755" y="520.1666666666666" type="curve" smooth="yes"/>
      <point x="381.91904761904755" y="572.75"/>
      <point x="348.5357142857143" y="603.0"/>
      <point x="296.63571428571424" y="610.0" type="curve"/>
      <point x="297.63571428571424" y="614.6833333333333" type="line"/>
      <point x="362.93571428571425" y="630.7"/>
      <point x="409.7880952380952" y="664.4"/>
      <point x="409.7880952380952" y="735.8" type="curve" smooth="yes"/>
      <point x="409.7880952380952" y="784.0166666666667"/>
      <point x="372.24047619047616" y="824.0"/>
      <point x="289.8285714285714" y="824.0" type="curve" smooth="yes"/>
      <point x="202.25" y="824.0"/>
      <point x="149.00238095238095" y="783.752380952381"/>
      <point x="149.00238095238095" y="736.4357142857143" type="curve" smooth="yes"/>
      <point x="149.00238095238095" y="705.452380952381"/>
      <point x="178.29285714285714" y="690.8928571428571"/>
      <point x="224.82619047619045" y="690.8928571428571" type="curve"/>
      <point x="230.0309523809524" y="735.8095238095237"/>
      <point x="243.4880952380953" y="776.1095238095237"/>
      <point x="280.25000000000006" y="776.1095238095237" type="curve" smooth="yes"/>
      <point x="300.0785714285714" y="776.1095238095237"/>
      <point x="310.7642857142857" y="758.3571428571428"/>
      <point x="310.7642857142857" y="734.4380952380953" type="curve" smooth="yes"/>
      <point x="310.7642857142857" y="669.2357142857144"/>
      <point x="267.9904761904761" y="630.0"/>
      <point x="218.13809523809525" y="630.0" type="curve" smooth="yes"/>
      <point x="188.4904761904762" y="630.0" type="line"/>
      <point x="179.7904761904762" y="582.209523809524" type="line"/>
      <point x="208.5904761904762" y="582.209523809524" type="line" smooth="yes"/>
      <point x="262.8071428571428" y="582.209523809524"/>
      <point x="286.60714285714283" y="552.6380952380953"/>
      <point x="286.60714285714283" y="515.7833333333333" type="curve" smooth="yes"/>
      <point x="286.60714285714283" y="456.8071428571429"/>
      <point x="252.20238095238096" y="432.95476190476194"/>
      <point x="211.60952380952384" y="432.95476190476194" type="curve" smooth="yes"/>
      <point x="159.14523809523808" y="432.95476190476194"/>
      <point x="141.19285714285715" y="481.502380952381"/>
      <point x="142.59285714285716" y="518.9547619047619" type="curve"/>
      <point x="100.0952380952381" y="518.9547619047619"/>
      <point x="68.54047619047617" y="497.24285714285713"/>
      <point x="68.54047619047617" y="460.1595238095238" type="curve" smooth="yes"/>
      <point x="68.54047619047617" y="410.78095238095233"/>
      <point x="112.63571428571427" y="380.0"/>
    </contour>
  </outline>
</glyph>
<glyph name="multiply" format="2">
  <advance width="466.84285714285716"/>
  <unicode hex="00D7"/>
  <outline>
    <contour>
      <point x="126.81190476190474" y="160.02380952380952" type="line"/>
      <point x="255.2047619047619" y="305.48095238095243" type="line"/>
      <point x="382.8142857142857" y="161.80714285714285" type="line"/>
      <point x="435.01666666666665" y="208.79285714285717" type="line"/>
      <point x="302.50714285714287" y="359.0833333333333" type="line"/>
      <point x="435.01666666666665" y="508.67380952380955" type="line"/>
      <point x="381.81428571428575" y="555.5761904761905" type="line"/>
      <point x="255.2047619047619" y="412.76666666666665" type="line"/>
      <point x="127.19523809523807" y="557.0595238095237" type="line"/>
      <point x="73.82857142857142" y="510.45714285714286" type="line"/>
      <point x="207.43809523809523" y="359.3833333333333" type="line"/>
      <point x="73.82857142857142" y="207.3095238095238" type="line"/>
    </contour>
  </outline>
</glyph>
<glyph name="divide" format="2">
  <advance width="466.84285714285716"/>
  <unicode hex="00F7"/>
  <outline>
    <contour>
      <point x="66.0952380952381" y="321.5928571428571" type="line"/>
      <point x="445.44761904761907" y="321.5928571428571" type="line"/>
      <point x="445.44761904761907" y="393.4071428571429" type="line"/>
      <point x="66.0952380952381" y="393.4071428571429" type="line"/>
    </contour>
    <contour>
      <point x="256.2714285714286" y="104.95000000000002" type="curve" smooth="yes"/>
      <point x="284.8666666666667" y="104.95000000000002"/>
      <point x="308.31428571428575" y="121.11428571428571"/>
      <point x="308.31428571428575" y="166.35714285714286" type="curve" smooth="yes"/>
      <point x="308.31428571428575" y="212.6"/>
      <point x="284.8666666666667" y="227.76428571428573"/>
      <point x="256.2714285714286" y="227.76428571428573" type="curve" smooth="yes"/>
      <point x="225.42857142857144" y="227.76428571428573"/>
      <point x="203.68095238095236" y="212.6"/>
      <point x="203.68095238095236" y="166.35714285714286" type="curve" smooth="yes"/>
      <point x="203.68095238095236" y="121.11428571428571"/>
      <point x="225.42857142857144" y="104.95000000000002"/>
    </contour>
    <contour>
      <point x="256.2714285714286" y="487.23571428571427" type="curve" smooth="yes"/>
      <point x="284.8666666666667" y="487.23571428571427"/>
      <point x="308.31428571428575" y="503.40000000000003"/>
      <point x="308.31428571428575" y="548.6428571428571" type="curve" smooth="yes"/>
      <point x="308.31428571428575" y="594.8857142857142"/>
      <point x="284.8666666666667" y="610.0499999999998"/>
      <point x="256.2714285714286" y="610.0499999999998" type="curve" smooth="yes"/>
      <point x="225.42857142857144" y="610.0499999999998"/>
      <point x="203.68095238095236" y="594.8857142857142"/>
      <point x="203.68095238095236" y="548.6428571428571" type="curve" smooth="yes"/>
      <point x="203.68095238095236" y="503.40000000000003"/>
      <point x="225.42857142857144" y="487.23571428571427"/>
    </contour>
  </outline>
</glyph>
<glyph name="udatta-deva" format="2">
  <unicode hex="0951"/>
  <anchor x="62.80714285714286" y="572.0666666666666" name="_vedic"/>
  <outline>
    <contour>
      <point x="108.02857142857142" y="948.754761904762" type="line"/>
      <point x="177.7666666666667" y="948.754761904762" type="line"/>
      <point x="221.29761904761907" y="1153.7476190476189" type="line"/>
      <point x="151.7404761904762" y="1153.7476190476189" type="line"/>
    </contour>
  </outline>
</glyph>
<glyph name="anudatta-deva" format="2">
  <unicode hex="0952"/>
  <anchor x="-59.0" y="0.0" name="_bottom"/>
  <outline>
    <contour>
      <point x="-373.86428571428576" y="-569.2761904761905" type="line"/>
      <point x="14.638095238095236" y="-569.2761904761905" type="line"/>
      <point x="33.88095238095238" y="-477.1952380952381" type="line"/>
      <point x="-354.7857142857143" y="-477.1952380952381" type="line"/>
    </contour>
  </outline>
</glyph>
<glyph name="danda-deva" format="2">
  <advance width="304.84999999999997"/>
  <unicode hex="0964"/>
  <outline>
    <contour>
      <point x="7.542857142857142" y="0.0" type="line"/>
      <point x="175.50000000000003" y="0.0" type="line"/>
      <point x="297.3071428571429" y="572.0666666666666" type="line"/>
      <point x="128.96666666666664" y="572.0666666666666" type="line"/>
    </contour>
  </outline>
</glyph>
<glyph name="dbldanda-deva" format="2">
  <advance width="565.8142857142857"/>
  <unicode hex="0965"/>
  <outline>
    <contour>
      <point x="268.64285714285717" y="0.0" type="line"/>
      <point x="436.4642857142857" y="0.0" type="line"/>
      <point x="558.2714285714286" y="572.0666666666666" type="line"/>
      <point x="389.93095238095236" y="572.0666666666666" type="line"/>
    </contour>
    <contour>
      <point x="7.542857142857142" y="0.0" type="line"/>
      <point x="175.50000000000003" y="0.0" type="line"/>
      <point x="297.3071428571429" y="572.0666666666666" type="line"/>
      <point x="128.96666666666664" y="572.0666666666666" type="line"/>
    </contour>
  </outline>
</glyph>
<glyph name="anusvara-tamil" format="2">
  <unicode hex="0B82"/>
  <note>
uni0B82
</note>
  <anchor x="62.80714285714286" y="572.0666666666666" name="_top"/>
  <outline>
    <contour>
      <point x="101.9952380952381" y="625.3809523809524" type="curve" smooth="yes"/>
      <point x="179.447619047619" y="625.3809523809524"/>
      <point x="241.7357142857143" y="684.9"/>
      <point x="241.7357142857143" y="764.402380952381" type="curve" smooth="yes"/>
      <point x="241.7357142857143" y="843.6857142857143"/>
      <point x="179.447619047619" y="902.3404761904762"/>
      <point x="101.9952380952381" y="902.3404761904762" type="curve" smooth="yes"/>
      <point x="24.542857142857144" y="902.3404761904762"/>
      <point x="-37.74523809523809" y="843.6857142857143"/>
      <point x="-37.74523809523809" y="764.402380952381" type="curve" smooth="yes"/>
      <point x="-37.74523809523809" y="684.9"/>
      <point x="24.542857142857144" y="625.3809523809524"/>
    </contour>
    <contour>
      <point x="101.9952380952381" y="705.202380952381" type="curve" smooth="yes"/>
      <point x="71.11190476190475" y="705.202380952381"/>
      <point x="44.297619047619044" y="731.152380952381"/>
      <point x="44.297619047619044" y="764.0190476190477" type="curve" smooth="yes"/>
      <point x="44.297619047619044" y="796.5857142857143"/>
      <point x="71.11190476190475" y="822.5357142857143"/>
      <point x="101.9952380952381" y="822.5357142857143" type="curve" smooth="yes"/>
      <point x="132.8785714285714" y="822.5357142857143"/>
      <point x="159.69285714285712" y="796.5857142857143"/>
      <point x="159.69285714285712" y="764.0190476190477" type="curve" smooth="yes"/>
      <point x="159.69285714285712" y="731.152380952381"/>
      <point x="132.8785714285714" y="705.202380952381"/>
    </contour>
  </outline>
</glyph>
<glyph name="visarga-tamil" format="2">
  <advance width="780.2119047619049"/>
  <unicode hex="0B83"/>
  <note>
uni0B83
</note>
  <outline>
    <contour>
      <point x="141.7809523809524" y="-5.0" type="curve" smooth="yes"/>
      <point x="254.05476190476193" y="-5.0"/>
      <point x="336.71666666666664" y="99.03809523809522"/>
      <point x="336.71666666666664" y="227.89761904761903" type="curve" smooth="yes"/>
      <point x="336.71666666666664" y="324.5571428571429"/>
      <point x="283.6666666666667" y="375.68333333333334"/>
      <point x="200.64285714285714" y="375.68333333333334" type="curve" smooth="yes"/>
      <point x="85.66666666666667" y="375.68333333333334"/>
      <point x="14.478571428571431" y="254.7857142857143"/>
      <point x="14.478571428571431" y="140.56666666666666" type="curve" smooth="yes"/>
      <point x="14.478571428571431" y="56.235714285714295"/>
      <point x="59.82380952380952" y="-5.0"/>
    </contour>
    <contour>
      <point x="129.38333333333335" y="67.75000000000001" type="curve" smooth="yes"/>
      <point x="94.23571428571431" y="67.75000000000001"/>
      <point x="79.97142857142858" y="99.02142857142857"/>
      <point x="79.97142857142858" y="147.07142857142856" type="curve" smooth="yes"/>
      <point x="79.97142857142858" y="220.37142857142862"/>
      <point x="117.67142857142856" y="303.3357142857143"/>
      <point x="171.92857142857142" y="303.3357142857143" type="curve" smooth="yes"/>
      <point x="207.752380952381" y="303.3357142857143"/>
      <point x="220.07619047619048" y="275.4357142857143"/>
      <point x="220.07619047619048" y="228.88809523809522" type="curve" smooth="yes"/>
      <point x="220.07619047619048" y="145.93571428571425"/>
      <point x="182.73571428571427" y="67.75000000000001"/>
    </contour>
    <contour>
      <point x="527.8285714285714" y="-5.0" type="curve" smooth="yes"/>
      <point x="640.1023809523808" y="-5.0"/>
      <point x="722.7642857142857" y="99.03809523809522"/>
      <point x="722.7642857142858" y="227.89761904761903" type="curve" smooth="yes"/>
      <point x="722.7642857142857" y="324.5571428571429"/>
      <point x="669.7142857142857" y="375.68333333333334"/>
      <point x="586.6904761904761" y="375.68333333333334" type="curve" smooth="yes"/>
      <point x="471.7142857142857" y="375.68333333333334"/>
      <point x="400.52619047619044" y="254.7857142857143"/>
      <point x="400.52619047619044" y="140.56666666666666" type="curve" smooth="yes"/>
      <point x="400.52619047619044" y="56.235714285714295"/>
      <point x="445.8714285714286" y="-5.0"/>
    </contour>
    <contour>
      <point x="515.4309523809524" y="67.75000000000001" type="curve" smooth="yes"/>
      <point x="480.2833333333333" y="67.75000000000001"/>
      <point x="466.0190476190476" y="99.02142857142857"/>
      <point x="466.0190476190476" y="147.07142857142856" type="curve" smooth="yes"/>
      <point x="466.0190476190476" y="220.37142857142862"/>
      <point x="503.71904761904767" y="303.3357142857143"/>
      <point x="557.9761904761905" y="303.3357142857143" type="curve" smooth="yes"/>
      <point x="593.8" y="303.3357142857143"/>
      <point x="606.1238095238097" y="275.4357142857143"/>
      <point x="606.1238095238097" y="228.88809523809522" type="curve" smooth="yes"/>
      <point x="606.1238095238097" y="145.93571428571425"/>
      <point x="568.7833333333333" y="67.75000000000001"/>
    </contour>
    <contour>
      <point x="428.3928571428571" y="433.96190476190475" type="curve" smooth="yes"/>
      <point x="540.6666666666666" y="433.96190476190475"/>
      <point x="623.3285714285715" y="537.6166666666668"/>
      <point x="623.3285714285715" y="666.4761904761905" type="curve" smooth="yes"/>
      <point x="623.3285714285715" y="763.5190476190476"/>
      <point x="570.2785714285714" y="814.6452380952381"/>
      <point x="487.25476190476184" y="814.6452380952381" type="curve" smooth="yes"/>
      <point x="372.2785714285714" y="814.6452380952381"/>
      <point x="301.09047619047624" y="693.7476190476191"/>
      <point x="301.09047619047624" y="579.5285714285715" type="curve" smooth="yes"/>
      <point x="301.09047619047624" y="495.19761904761907"/>
      <point x="346.4357142857143" y="433.96190476190475"/>
    </contour>
    <contour>
      <point x="415.9952380952381" y="506.71190476190463" type="curve" smooth="yes"/>
      <point x="380.84761904761905" y="506.71190476190463"/>
      <point x="366.58333333333337" y="537.9833333333333"/>
      <point x="366.58333333333337" y="586.0333333333333" type="curve" smooth="yes"/>
      <point x="366.58333333333337" y="659.3333333333334"/>
      <point x="404.28333333333336" y="742.297619047619"/>
      <point x="458.5404761904762" y="742.297619047619" type="curve" smooth="yes"/>
      <point x="494.36428571428564" y="742.297619047619"/>
      <point x="506.6880952380952" y="714.3976190476191"/>
      <point x="506.6880952380952" y="667.85" type="curve" smooth="yes"/>
      <point x="506.6880952380952" y="584.8976190476191"/>
      <point x="469.34761904761893" y="506.71190476190463"/>
    </contour>
  </outline>
</glyph>
<glyph name="a-tamil" format="2">
  <advance width="1201.7"/>
  <unicode hex="0B85"/>
  <note>
uni0B85
</note>
  <anchor x="519.0952380952381" y="0.0" name="bottom"/>
  <anchor x="312.85714285714283" y="-156.00476190476195" name="nukta"/>
  <anchor x="632.2476190476192" y="572.0666666666666" name="top"/>
  <anchor x="632.8809523809525" y="572.0666666666666" name="vedic"/>
  <outline>
    <contour>
      <point x="860.954761904762" y="-223.64285714285717" type="line"/>
      <point x="1028.2214285714285" y="-223.64285714285717" type="line"/>
      <point x="1197.5404761904763" y="572.0666666666666" type="line"/>
      <point x="1030.2071428571428" y="572.0666666666666" type="line"/>
      <point x="942.1785714285714" y="158.8238095238095" type="line"/>
      <point x="78.43571428571428" y="158.8238095238095" type="line" smooth="yes"/>
      <point x="17.561904761904763" y="158.8238095238095"/>
      <point x="-22.092857142857145" y="115.9404761904762"/>
      <point x="-22.092857142857145" y="54.97857142857143" type="curve" smooth="yes"/>
      <point x="-22.092857142857145" y="-58.923809523809524"/>
      <point x="121.58095238095238" y="-156.00476190476195"/>
      <point x="320.70000000000005" y="-156.00476190476195" type="curve" smooth="yes"/>
      <point x="619.1571428571428" y="-156.00476190476195"/>
      <point x="865.0928571428572" y="7.307142857142852"/>
      <point x="865.0928571428572" y="294.65238095238095" type="curve" smooth="yes"/>
      <point x="865.0928571428572" y="475.1357142857143"/>
      <point x="737.9690476190476" y="577.0666666666666"/>
      <point x="572.6119047619048" y="577.0666666666666" type="curve" smooth="yes"/>
      <point x="425.2619047619048" y="577.0666666666666"/>
      <point x="311.07619047619045" y="486.55238095238093"/>
      <point x="311.07619047619045" y="353.85" type="curve" smooth="yes"/>
      <point x="311.07619047619045" y="277.0380952380952"/>
      <point x="366.18571428571425" y="217.12857142857143"/>
      <point x="449.29523809523806" y="217.12857142857143" type="curve" smooth="yes"/>
      <point x="550.6928571428571" y="217.12857142857143"/>
      <point x="620.5976190476191" y="281.9428571428572"/>
      <point x="620.5976190476191" y="386.33095238095234" type="curve" smooth="yes"/>
      <point x="620.5976190476191" y="452.8261904761905"/>
      <point x="581.9357142857143" y="508.6595238095239"/>
      <point x="532.1642857142857" y="534.6119047619047" type="curve"/>
      <point x="471.3071428571429" y="526.2714285714285" type="line"/>
      <point x="506.56904761904764" y="501.46190476190475"/>
      <point x="527.7499999999999" y="455.07142857142856"/>
      <point x="527.7499999999999" y="410.00476190476195" type="curve" smooth="yes"/>
      <point x="527.7499999999999" y="349.4904761904762"/>
      <point x="498.57619047619045" y="298.51190476190476"/>
      <point x="442.4999999999999" y="298.51190476190476" type="curve" smooth="yes"/>
      <point x="412.1261904761905" y="298.51190476190476"/>
      <point x="385.23333333333335" y="323.4214285714285"/>
      <point x="385.23333333333335" y="366.01666666666665" type="curve" smooth="yes"/>
      <point x="385.23333333333335" y="448.4928571428572"/>
      <point x="454.39761904761895" y="509.4809523809524"/>
      <point x="547.9761904761905" y="509.4809523809524" type="curve" smooth="yes"/>
      <point x="646.4952380952382" y="509.4809523809524"/>
      <point x="712.047619047619" y="441.38095238095235"/>
      <point x="712.047619047619" y="321.6119047619048" type="curve" smooth="yes"/>
      <point x="712.047619047619" y="75.96190476190476"/>
      <point x="555.9380952380953" y="-88.80238095238096"/>
      <point x="309.9904761904762" y="-88.80238095238096" type="curve" smooth="yes"/>
      <point x="160.35714285714286" y="-88.80238095238096"/>
      <point x="53.202380952380956" y="-14.023809523809526"/>
      <point x="53.202380952380956" y="54.07142857142857" type="curve" smooth="yes"/>
      <point x="53.202380952380956" y="80.08333333333333"/>
      <point x="63.876190476190466" y="92.12857142857142"/>
      <point x="88.66666666666667" y="92.12857142857142" type="curve" smooth="yes"/>
      <point x="927.9190476190474" y="92.12857142857142" type="line"/>
    </contour>
  </outline>
</glyph>
<glyph name="aa-tamil" format="2">
  <advance width="1424.3904761904762"/>
  <unicode hex="0B86"/>
  <note>
uni0B86
</note>
  <anchor x="648.4595238095241" y="0.0" name="bottom"/>
  <anchor x="300.4404761904762" y="-156.00476190476195" name="nukta"/>
  <anchor x="770.6738095238095" y="572.0666666666666" name="top"/>
  <anchor x="771.3452380952381" y="572.0666666666666" name="vedic"/>
  <outline>
    <contour>
      <point x="801.7285714285714" y="-428.4738095238095" type="curve" smooth="yes"/>
      <point x="1071.6214285714289" y="-428.4738095238095"/>
      <point x="1339.7952380952381" y="-278.0714285714286"/>
      <point x="1339.7952380952381" y="-35.89285714285714" type="curve" smooth="yes"/>
      <point x="1339.7952380952381" y="53.99285714285715"/>
      <point x="1287.0357142857144" y="102.7404761904762"/>
      <point x="1214.9880952380952" y="102.7404761904762" type="curve" smooth="yes"/>
      <point x="1132.7761904761905" y="102.7404761904762"/>
      <point x="1065.0261904761905" y="39.66666666666667"/>
      <point x="1026.064285714286" y="-89.34285714285714" type="curve"/>
      <point x="1052.9309523809522" y="-96.65952380952382" type="line"/>
      <point x="1064.3119047619048" y="-38.53333333333333"/>
      <point x="1090.9952380952382" y="-16.91190476190476"/>
      <point x="1123.9928571428572" y="-16.91190476190476" type="curve" smooth="yes"/>
      <point x="1152.6904761904764" y="-16.91190476190476"/>
      <point x="1171.6261904761905" y="-36.07142857142856"/>
      <point x="1171.6261904761905" y="-71.58809523809525" type="curve" smooth="yes"/>
      <point x="1171.6261904761905" y="-239.19047619047615"/>
      <point x="993.9095238095238" y="-362.53333333333336"/>
      <point x="805.6428571428573" y="-362.53333333333336" type="curve" smooth="yes"/>
      <point x="717.3547619047619" y="-362.53333333333336"/>
      <point x="651.2428571428571" y="-336.8785714285715"/>
      <point x="651.2428571428571" y="-279.57142857142856" type="curve" smooth="yes"/>
      <point x="651.2428571428571" y="-231.4738095238095"/>
      <point x="695.7928571428571" y="-207.76190476190473"/>
      <point x="757.5" y="-193.1" type="curve"/>
      <point x="744.6428571428571" y="-132.04285714285712" type="line"/>
      <point x="645.207142857143" y="-157.02142857142857"/>
      <point x="581.0809523809523" y="-200.74285714285713"/>
      <point x="581.0809523809523" y="-287.7071428571428" type="curve" smooth="yes"/>
      <point x="581.0809523809523" y="-373.8142857142857"/>
      <point x="669.0428571428572" y="-428.4738095238095"/>
    </contour>
    <component base="a-tamil"/>
  </outline>
</glyph>
<glyph name="i-tamil" format="2">
  <advance width="931.4928571428574"/>
  <unicode hex="0B87"/>
  <note>
uni0B87
</note>
  <anchor x="385.2000000000001" y="0.0" name="bottom"/>
  <anchor x="322.69523809523804" y="-287.86666666666673" name="nukta"/>
  <anchor x="536.9214285714285" y="848.3214285714286" name="top"/>
  <anchor x="493.53333333333325" y="572.0666666666666" name="vedic"/>
  <outline>
    <contour>
      <point x="94.3547619047619" y="-326.00714285714287" type="curve" smooth="yes"/>
      <point x="409.09047619047624" y="-326.00714285714287"/>
      <point x="736.9238095238095" y="-1.4142857142857141"/>
      <point x="736.9238095238095" y="323.9833333333333" type="curve" smooth="yes"/>
      <point x="736.9238095238095" y="485.50714285714287"/>
      <point x="638.9309523809524" y="577.0666666666666"/>
      <point x="482.8238095238095" y="577.0666666666666" type="curve" smooth="yes"/>
      <point x="348.8738095238095" y="577.0666666666666"/>
      <point x="233.5071428571429" y="480.3119047619047"/>
      <point x="233.5071428571429" y="353.2238095238095" type="curve" smooth="yes"/>
      <point x="233.5071428571429" y="275.75714285714287"/>
      <point x="286.04999999999995" y="218.48571428571427"/>
      <point x="365.3047619047619" y="218.48571428571427" type="curve" smooth="yes"/>
      <point x="467.0142857142857" y="218.48571428571427"/>
      <point x="537.6023809523809" y="285.8452380952381"/>
      <point x="537.6023809523809" y="388.604761904762" type="curve" smooth="yes"/>
      <point x="537.6023809523809" y="455.25714285714287"/>
      <point x="498.4309523809524" y="512.2785714285715"/>
      <point x="449.29047619047617" y="537.052380952381" type="curve"/>
      <point x="391.5666666666667" y="525.4476190476191" type="line"/>
      <point x="423.32142857142856" y="501.7333333333333"/>
      <point x="443.9738095238095" y="453.1261904761905"/>
      <point x="443.9738095238095" y="408.49523809523805" type="curve" smooth="yes"/>
      <point x="443.9738095238095" y="349.32619047619045"/>
      <point x="415.8833333333333" y="299.5976190476191"/>
      <point x="359.12142857142857" y="299.5976190476191" type="curve" smooth="yes"/>
      <point x="327.00952380952384" y="299.5976190476191"/>
      <point x="306.75952380952384" y="325.50952380952384"/>
      <point x="306.75952380952384" y="363.7380952380953" type="curve" smooth="yes"/>
      <point x="306.75952380952384" y="443.84999999999997"/>
      <point x="371.70238095238096" y="509.6166666666667"/>
      <point x="463.1738095238095" y="509.6166666666667" type="curve" smooth="yes"/>
      <point x="549.4261904761904" y="509.6166666666667"/>
      <point x="589.5952380952382" y="452.75952380952384"/>
      <point x="589.5952380952382" y="354.99285714285713" type="curve" smooth="yes"/>
      <point x="589.5952380952382" y="52.64285714285714"/>
      <point x="368.36666666666673" y="-255.6952380952381"/>
      <point x="103.35" y="-255.6952380952381" type="curve" smooth="yes"/>
      <point x="43.44761904761905" y="-255.6952380952381"/>
      <point x="10.897619047619047" y="-224.05714285714288"/>
      <point x="10.897619047619047" y="-174.15476190476193" type="curve" smooth="yes"/>
      <point x="10.897619047619047" y="-37.37142857142857"/>
      <point x="201.98809523809524" y="43.77380952380952"/>
      <point x="376.6952380952381" y="43.77380952380952" type="curve" smooth="yes"/>
      <point x="541.4047619047619" y="43.77380952380952"/>
      <point x="707.25" y="-30.178571428571423"/>
      <point x="707.25" y="-147.13571428571427" type="curve" smooth="yes"/>
      <point x="707.25" y="-220.62380952380954"/>
      <point x="658.0738095238096" y="-255.6952380952381"/>
      <point x="580.0666666666667" y="-255.6952380952381" type="curve" smooth="yes"/>
      <point x="355.83809523809526" y="-255.6952380952381"/>
      <point x="127.16428571428573" y="17.483333333333334"/>
      <point x="127.16428571428573" y="294.5619047619047" type="curve" smooth="yes"/>
      <point x="127.16428571428573" y="546.092857142857"/>
      <point x="269.6357142857143" y="715.1880952380952"/>
      <point x="523.395238095238" y="715.1880952380952" type="curve" smooth="yes"/>
      <point x="748.852380952381" y="715.1880952380952"/>
      <point x="883.2619047619047" y="574.8404761904762"/>
      <point x="834.1214285714286" y="344.3285714285715" type="curve" smooth="yes"/>
      <point x="782.5214285714287" y="100.82142857142857" type="line"/>
      <point x="852.0857142857144" y="100.82142857142857" type="line"/>
      <point x="905.85" y="352.04523809523806" type="line" smooth="yes"/>
      <point x="970.2666666666669" y="651.4809523809524"/>
      <point x="821.5690476190475" y="848.3214285714286"/>
      <point x="536.7571428571428" y="848.3214285714286" type="curve" smooth="yes"/>
      <point x="223.2690476190476" y="848.3214285714286"/>
      <point x="55.342857142857135" y="611.847619047619"/>
      <point x="55.342857142857135" y="310.5904761904762" type="curve" smooth="yes"/>
      <point x="55.342857142857135" y="-27.18571428571428"/>
      <point x="331.0023809523809" y="-325.87142857142857"/>
      <point x="577.1809523809524" y="-325.87142857142857" type="curve" smooth="yes"/>
      <point x="697.447619047619" y="-325.87142857142857"/>
      <point x="785.7714285714287" y="-266.6928571428571"/>
      <point x="785.9357142857144" y="-146.76428571428568" type="curve" smooth="yes"/>
      <point x="786.1000000000001" y="15.078571428571431"/>
      <point x="593.5761904761905" y="105.52142857142856"/>
      <point x="382.16666666666663" y="105.52142857142856" type="curve" smooth="yes"/>
      <point x="162.46666666666664" y="105.52142857142856"/>
      <point x="-66.89285714285715" y="1.6857142857142873"/>
      <point x="-66.89285714285715" y="-185.76904761904763" type="curve" smooth="yes"/>
      <point x="-66.89285714285715" y="-269.7190476190476"/>
      <point x="-7.121428571428571" y="-326.00714285714287"/>
    </contour>
  </outline>
</glyph>
<glyph name="ii-tamil" format="2">
  <advance width="759.1547619047619"/>
  <unicode hex="0B88"/>
  <note>
uni0B88
</note>
  <anchor x="323.8880952380952" y="0.0" name="bottom"/>
  <anchor x="324.43571428571425" y="0.0" name="nukta"/>
  <anchor x="447.8214285714286" y="572.0666666666666" name="top"/>
  <anchor x="448.1761904761906" y="572.0666666666666" name="vedic"/>
  <outline>
    <contour>
      <point x="4.295238095238098" y="0.0" type="line"/>
      <point x="74.61428571428573" y="0.0" type="line"/>
      <point x="182.16190476190476" y="506.78333333333336" type="line"/>
      <point x="402.21428571428567" y="506.78333333333336" type="line"/>
      <point x="294.5023809523809" y="0.0" type="line"/>
      <point x="464.02857142857147" y="0.0" type="line"/>
      <point x="571.5761904761906" y="506.78333333333336" type="line"/>
      <point x="761.0833333333334" y="506.78333333333336" type="line"/>
      <point x="774.6595238095238" y="572.0666666666666" type="line"/>
      <point x="125.71904761904761" y="572.0666666666666" type="line"/>
    </contour>
    <contour>
      <point x="241.47619047619048" y="201.41666666666669" type="curve" smooth="yes"/>
      <point x="281.102380952381" y="201.41666666666669"/>
      <point x="314.84523809523813" y="233.43095238095236"/>
      <point x="314.84523809523813" y="272.3047619047619" type="curve" smooth="yes"/>
      <point x="314.84523809523813" y="310.17857142857144"/>
      <point x="281.2666666666667" y="342.04047619047617"/>
      <point x="241.6404761904762" y="342.04047619047617" type="curve" smooth="yes"/>
      <point x="201.85000000000002" y="342.04047619047617"/>
      <point x="168.97142857142856" y="310.17857142857144"/>
      <point x="168.97142857142856" y="272.3047619047619" type="curve" smooth="yes"/>
      <point x="168.97142857142856" y="233.43095238095236"/>
      <point x="201.68571428571428" y="201.41666666666669"/>
    </contour>
    <contour>
      <point x="631.1928571428572" y="201.41666666666669" type="curve" smooth="yes"/>
      <point x="670.8190476190478" y="201.41666666666669"/>
      <point x="704.5619047619048" y="233.43095238095236"/>
      <point x="704.5619047619048" y="272.3047619047619" type="curve" smooth="yes"/>
      <point x="704.5619047619048" y="310.17857142857144"/>
      <point x="670.9833333333333" y="342.04047619047617"/>
      <point x="631.3571428571429" y="342.04047619047617" type="curve" smooth="yes"/>
      <point x="591.5666666666667" y="342.04047619047617"/>
      <point x="558.6880952380952" y="310.17857142857144"/>
      <point x="558.6880952380952" y="272.3047619047619" type="curve" smooth="yes"/>
      <point x="558.6880952380952" y="233.43095238095236"/>
      <point x="591.402380952381" y="201.41666666666669"/>
    </contour>
  </outline>
</glyph>
<glyph name="u-tamil" format="2">
  <advance width="844.0666666666666"/>
  <unicode hex="0B89"/>
  <note>
uni0B89
</note>
  <anchor x="359.0976190476191" y="0.0" name="bottom"/>
  <anchor x="359.0976190476191" y="0.0" name="nukta"/>
  <anchor x="484.38571428571436" y="572.0666666666666" name="top"/>
  <anchor x="483.7690476190476" y="572.0666666666666" name="vedic"/>
  <outline>
    <contour>
      <point x="80.43571428571428" y="0.0" type="curve" smooth="yes"/>
      <point x="774.1238095238095" y="0.0" type="line"/>
      <point x="788.3833333333334" y="65.60000000000001" type="line"/>
      <point x="86.11666666666667" y="65.60000000000001" type="line" smooth="yes"/>
      <point x="68.89761904761906" y="65.60000000000001"/>
      <point x="54.500000000000014" y="76.84761904761905"/>
      <point x="54.500000000000014" y="96.56428571428572" type="curve" smooth="yes"/>
      <point x="54.500000000000014" y="119.95714285714287"/>
      <point x="71.26904761904763" y="131.19761904761904"/>
      <point x="92.00238095238096" y="131.19761904761904" type="curve" smooth="yes"/>
      <point x="314.7738095238095" y="131.19761904761904" type="line" smooth="yes"/>
      <point x="493.6214285714286" y="131.19761904761904"/>
      <point x="637.7380952380952" y="210.01904761904757"/>
      <point x="637.7380952380952" y="378.57380952380953" type="curve" smooth="yes"/>
      <point x="637.7380952380952" y="508.4214285714285"/>
      <point x="526.6714285714287" y="577.0666666666666"/>
      <point x="378.5214285714286" y="577.0666666666666" type="curve" smooth="yes"/>
      <point x="233.76904761904765" y="577.0666666666666"/>
      <point x="114.11190476190478" y="486.59285714285716"/>
      <point x="114.11190476190478" y="364.22380952380956" type="curve" smooth="yes"/>
      <point x="114.11190476190478" y="291.1595238095239"/>
      <point x="164.84761904761905" y="241.59999999999997"/>
      <point x="238.20238095238096" y="241.59999999999997" type="curve" smooth="yes"/>
      <point x="333.5404761904761" y="241.59999999999997"/>
      <point x="404.1238095238095" y="301.102380952381"/>
      <point x="404.1238095238095" y="395.39523809523814" type="curve" smooth="yes"/>
      <point x="404.1238095238095" y="456.55476190476196"/>
      <point x="367.0380952380952" y="509.6976190476191"/>
      <point x="317.8880952380952" y="533.9547619047619" type="curve"/>
      <point x="253.78571428571425" y="528.7238095238095" type="line"/>
      <point x="294.7738095238095" y="498.85476190476186"/>
      <point x="313.11428571428576" y="457.30952380952385"/>
      <point x="313.11428571428576" y="412.79761904761904" type="curve" smooth="yes"/>
      <point x="313.11428571428576" y="356.84523809523813"/>
      <point x="284.71666666666675" y="317.07380952380953"/>
      <point x="236.10476190476192" y="317.07380952380953" type="curve" smooth="yes"/>
      <point x="207.29523809523806" y="317.07380952380953"/>
      <point x="187.7214285714286" y="341.03571428571433"/>
      <point x="187.7214285714286" y="375.7261904761905" type="curve" smooth="yes"/>
      <point x="187.7214285714286" y="448.23571428571427"/>
      <point x="254.7952380952381" y="511.81190476190477"/>
      <point x="349.1119047619047" y="511.81190476190477" type="curve" smooth="yes"/>
      <point x="430.81666666666666" y="511.81190476190477"/>
      <point x="483.16904761904766" y="471.252380952381"/>
      <point x="483.16904761904766" y="385.1928571428572" type="curve" smooth="yes"/>
      <point x="483.16904761904766" y="272.31666666666666"/>
      <point x="414.3619047619047" y="193.22142857142856"/>
      <point x="304.00476190476184" y="193.22142857142856" type="curve" smooth="yes"/>
      <point x="102.07619047619046" y="193.22142857142856" type="line" smooth="yes"/>
      <point x="30.711904761904773" y="193.22142857142856"/>
      <point x="-11.545238095238094" y="152.10238095238097"/>
      <point x="-11.545238095238094" y="90.23809523809526" type="curve" smooth="yes"/>
      <point x="-11.545238095238094" y="37.088095238095235"/>
      <point x="25.48809523809524" y="0.0"/>
    </contour>
  </outline>
</glyph>
<glyph name="uu-tamil" format="2">
  <advance width="1612.4857142857145"/>
  <unicode hex="0B8A"/>
  <note>
uni0B8A
</note>
  <anchor x="751.1190476190476" y="0.0" name="bottom"/>
  <anchor x="751.1190476190476" y="0.0" name="nukta"/>
  <anchor x="874.6761904761905" y="572.0666666666666" name="top"/>
  <anchor x="875.7904761904763" y="572.0666666666666" name="vedic"/>
  <outline>
    <contour>
      <point x="80.43571428571428" y="0.0" type="curve" smooth="yes"/>
      <point x="1499.347619047619" y="0.0" type="line"/>
      <point x="1513.6071428571427" y="65.60000000000001" type="line"/>
      <point x="86.11666666666667" y="65.60000000000001" type="line" smooth="yes"/>
      <point x="68.89761904761906" y="65.60000000000001"/>
      <point x="54.500000000000014" y="76.84761904761905"/>
      <point x="54.500000000000014" y="96.56428571428572" type="curve" smooth="yes"/>
      <point x="54.500000000000014" y="119.95714285714287"/>
      <point x="71.26904761904763" y="131.19761904761904"/>
      <point x="92.00238095238096" y="131.19761904761904" type="curve" smooth="yes"/>
      <point x="314.7738095238095" y="131.19761904761904" type="line" smooth="yes"/>
      <point x="493.6214285714286" y="131.19761904761904"/>
      <point x="637.7380952380952" y="210.01904761904757"/>
      <point x="637.7380952380952" y="378.57380952380953" type="curve" smooth="yes"/>
      <point x="637.7380952380952" y="508.4214285714285"/>
      <point x="526.6714285714287" y="577.0666666666666"/>
      <point x="378.5214285714286" y="577.0666666666666" type="curve" smooth="yes"/>
      <point x="233.76904761904765" y="577.0666666666666"/>
      <point x="114.11190476190478" y="486.59285714285716"/>
      <point x="114.11190476190478" y="364.22380952380956" type="curve" smooth="yes"/>
      <point x="114.11190476190478" y="291.1595238095239"/>
      <point x="164.84761904761905" y="241.59999999999997"/>
      <point x="238.20238095238096" y="241.59999999999997" type="curve" smooth="yes"/>
      <point x="333.5404761904761" y="241.59999999999997"/>
      <point x="404.1238095238095" y="301.102380952381"/>
      <point x="404.1238095238095" y="395.39523809523814" type="curve" smooth="yes"/>
      <point x="404.1238095238095" y="456.55476190476196"/>
      <point x="367.0380952380952" y="509.6976190476191"/>
      <point x="317.8880952380952" y="533.9547619047619" type="curve"/>
      <point x="253.78571428571425" y="528.7238095238095" type="line"/>
      <point x="294.7738095238095" y="498.85476190476186"/>
      <point x="313.11428571428576" y="457.30952380952385"/>
      <point x="313.11428571428576" y="412.79761904761904" type="curve" smooth="yes"/>
      <point x="313.11428571428576" y="356.84523809523813"/>
      <point x="284.71666666666675" y="317.07380952380953"/>
      <point x="236.10476190476192" y="317.07380952380953" type="curve" smooth="yes"/>
      <point x="207.29523809523806" y="317.07380952380953"/>
      <point x="187.7214285714286" y="341.03571428571433"/>
      <point x="187.7214285714286" y="375.7261904761905" type="curve" smooth="yes"/>
      <point x="187.7214285714286" y="448.23571428571427"/>
      <point x="254.7952380952381" y="511.81190476190477"/>
      <point x="349.1119047619047" y="511.81190476190477" type="curve" smooth="yes"/>
      <point x="430.81666666666666" y="511.81190476190477"/>
      <point x="483.16904761904766" y="471.252380952381"/>
      <point x="483.16904761904766" y="385.1928571428572" type="curve" smooth="yes"/>
      <point x="483.16904761904766" y="272.31666666666666"/>
      <point x="414.3619047619047" y="193.22142857142856"/>
      <point x="304.00476190476184" y="193.22142857142856" type="curve" smooth="yes"/>
      <point x="102.07619047619046" y="193.22142857142856" type="line" smooth="yes"/>
      <point x="30.711904761904773" y="193.22142857142856"/>
      <point x="-11.545238095238094" y="152.10238095238097"/>
      <point x="-11.545238095238094" y="90.23809523809526" type="curve" smooth="yes"/>
      <point x="-11.545238095238094" y="37.088095238095235"/>
      <point x="25.48809523809524" y="0.0"/>
    </contour>
    <contour>
      <point x="841.0476190476192" y="120.35238095238097" type="curve" smooth="yes"/>
      <point x="943.8023809523811" y="120.35238095238097"/>
      <point x="1017.0690476190476" y="186.94285714285712"/>
      <point x="1017.0690476190476" y="287.28571428571433" type="curve" smooth="yes"/>
      <point x="1017.0690476190476" y="361.40714285714284"/>
      <point x="966.8785714285715" y="403.62142857142857"/>
      <point x="901.6380952380953" y="403.62142857142857" type="curve" smooth="yes"/>
      <point x="810.7142857142858" y="403.62142857142857"/>
      <point x="753.1404761904763" y="328.7761904761905"/>
      <point x="728.0642857142858" y="238.81428571428572" type="curve"/>
      <point x="756.2357142857144" y="213.8452380952381" type="line"/>
      <point x="776.102380952381" y="285.6547619047619"/>
      <point x="815.3190476190476" y="333.0"/>
      <point x="859.2214285714288" y="333.0" type="curve" smooth="yes"/>
      <point x="892.9357142857143" y="333.0"/>
      <point x="909.7928571428572" y="305.4642857142858"/>
      <point x="909.7928571428572" y="273.4642857142857" type="curve" smooth="yes"/>
      <point x="909.7928571428572" y="225.55952380952382"/>
      <point x="879.204761904762" y="187.25238095238095"/>
      <point x="830.1119047619048" y="187.25238095238095" type="curve" smooth="yes"/>
      <point x="785.6428571428571" y="187.25238095238095"/>
      <point x="747.0000000000001" y="227.34285714285713"/>
      <point x="747.0000000000001" y="300.56428571428575" type="curve" smooth="yes"/>
      <point x="747.0000000000001" y="421.2047619047618"/>
      <point x="824.5309523809524" y="512.3309523809525"/>
      <point x="944.8595238095238" y="512.3309523809525" type="curve" smooth="yes"/>
      <point x="1050.7761904761905" y="512.3309523809525"/>
      <point x="1111.6095238095238" y="445.59523809523813"/>
      <point x="1088.6238095238095" y="332.7047619047619" type="curve"/>
      <point x="1152.2071428571428" y="332.7047619047619" type="line"/>
      <point x="1177.95" y="479.6214285714286"/>
      <point x="1094.3285714285712" y="577.0666666666666"/>
      <point x="948.6666666666667" y="577.0666666666666" type="curve" smooth="yes"/>
      <point x="793.4309523809526" y="577.0666666666666"/>
      <point x="680.0261904761905" y="453.052380952381"/>
      <point x="680.0261904761905" y="293.354761904762" type="curve" smooth="yes"/>
      <point x="680.0261904761905" y="192.75952380952378"/>
      <point x="749.6404761904761" y="120.35238095238097"/>
    </contour>
    <contour>
      <point x="1043.6047619047617" y="122.15" type="line"/>
      <point x="1184.197619047619" y="122.15" type="line"/>
      <point x="1267.0904761904762" y="511.8285714285714" type="line"/>
      <point x="1383.5357142857144" y="511.8285714285714" type="line"/>
      <point x="1300.7785714285717" y="122.15" type="line"/>
      <point x="1441.4214285714284" y="122.15" type="line"/>
      <point x="1524.3309523809523" y="511.8285714285714" type="line"/>
      <point x="1607.2357142857143" y="511.8285714285714" type="line"/>
      <point x="1620.0833333333333" y="572.0666666666666" type="line"/>
      <point x="1171.2642857142855" y="572.0666666666666" type="line"/>
      <point x="1135.685714285714" y="388.6476190476191" type="line"/>
      <point x="1100.2166666666667" y="387.69761904761907" type="line"/>
    </contour>
  </outline>
</glyph>
<glyph name="e-tamil" format="2">
  <advance width="849.8261904761904"/>
  <unicode hex="0B8E"/>
  <note>
uni0B8E
</note>
  <anchor x="385.7642857142857" y="0.0" name="bottom"/>
  <anchor x="385.9" y="0.0" name="nukta"/>
  <anchor x="510.0261904761905" y="572.0666666666666" name="top"/>
  <anchor x="510.0523809523809" y="572.0666666666666" name="vedic"/>
  <outline>
    <contour>
      <point x="218.28095238095239" y="-5.0" type="curve" smooth="yes"/>
      <point x="330.70952380952383" y="-5.0"/>
      <point x="418.34285714285716" y="72.16666666666667"/>
      <point x="418.34285714285716" y="194.5357142857143" type="curve" smooth="yes"/>
      <point x="418.34285714285716" y="280.0476190476191"/>
      <point x="363.9785714285714" y="335.37619047619046"/>
      <point x="282.5928571428571" y="335.37619047619046" type="curve" smooth="yes"/>
      <point x="185.7952380952381" y="335.37619047619046"/>
      <point x="117.50952380952381" y="256.7952380952381"/>
      <point x="79.2261904761905" y="142.34285714285716" type="curve"/>
      <point x="112.56904761904762" y="113.15476190476191" type="line"/>
      <point x="140.14523809523808" y="195.07619047619048"/>
      <point x="172.6714285714286" y="235.4"/>
      <point x="215.49523809523808" y="235.4" type="curve" smooth="yes"/>
      <point x="249.9214285714286" y="235.4"/>
      <point x="267.5333333333333" y="205.55"/>
      <point x="267.5333333333333" y="168.7738095238095" type="curve" smooth="yes"/>
      <point x="267.5333333333333" y="114.33333333333333"/>
      <point x="238.7547619047619" y="72.20238095238096"/>
      <point x="187.81666666666666" y="72.20238095238096" type="curve" smooth="yes"/>
      <point x="137.25238095238097" y="72.20238095238096"/>
      <point x="103.24761904761904" y="132.82619047619048"/>
      <point x="103.24761904761904" y="213.19761904761904" type="curve" smooth="yes"/>
      <point x="103.24761904761904" y="379.7595238095238"/>
      <point x="208.23333333333335" y="506.78333333333336"/>
      <point x="411.9785714285714" y="506.78333333333336" type="curve" smooth="yes"/>
      <point x="603.2214285714285" y="506.78333333333336" type="line"/>
      <point x="495.6738095238095" y="0.0" type="line"/>
      <point x="664.8833333333334" y="0.0" type="line"/>
      <point x="772.2952380952381" y="506.78333333333336" type="line"/>
      <point x="881.9880952380953" y="506.78333333333336" type="line"/>
      <point x="896.2476190476191" y="572.0666666666666" type="line"/>
      <point x="412.2238095238095" y="572.0666666666666" type="line" smooth="yes"/>
      <point x="173.14523809523808" y="572.0666666666666"/>
      <point x="33.97619047619048" y="412.8571428571429"/>
      <point x="33.97619047619048" y="207.25" type="curve" smooth="yes"/>
      <point x="33.97619047619048" y="89.16428571428571"/>
      <point x="106.75476190476189" y="-5.0"/>
    </contour>
  </outline>
</glyph>
<glyph name="ee-tamil" format="2">
  <advance width="849.9785714285713"/>
  <unicode hex="0B8F"/>
  <note>
uni0B8F
</note>
  <anchor x="388.4" y="0.0" name="bottom"/>
  <anchor x="347.13095238095235" y="-193.75952380952384" name="nukta"/>
  <anchor x="512.9071428571428" y="572.0666666666666" name="top"/>
  <anchor x="512.6880952380951" y="572.0666666666666" name="vedic"/>
  <outline>
    <contour>
      <point x="324.404761904762" y="-246.37857142857143" type="line"/>
      <point x="674.1476190476191" y="42.095238095238095" type="line"/>
      <point x="772.9666666666666" y="506.78333333333336" type="line"/>
      <point x="882.5238095238096" y="506.78333333333336" type="line"/>
      <point x="896.4000000000001" y="572.0666666666666" type="line"/>
      <point x="412.2238095238095" y="572.0666666666666" type="line" smooth="yes"/>
      <point x="173.14523809523808" y="572.0666666666666"/>
      <point x="33.97619047619048" y="412.8571428571429"/>
      <point x="33.97619047619048" y="207.25" type="curve" smooth="yes"/>
      <point x="33.97619047619048" y="89.16428571428571"/>
      <point x="102.92142857142856" y="-5.0"/>
      <point x="218.28095238095239" y="-5.0" type="curve" smooth="yes"/>
      <point x="330.70952380952383" y="-5.0"/>
      <point x="418.34285714285716" y="72.16666666666667"/>
      <point x="418.34285714285716" y="194.5357142857143" type="curve" smooth="yes"/>
      <point x="418.34285714285716" y="280.0476190476191"/>
      <point x="363.9785714285714" y="335.37619047619046"/>
      <point x="282.5928571428571" y="335.37619047619046" type="curve" smooth="yes"/>
      <point x="185.7952380952381" y="335.37619047619046"/>
      <point x="117.50952380952381" y="256.7952380952381"/>
      <point x="79.2261904761905" y="142.34285714285716" type="curve"/>
      <point x="112.56904761904762" y="113.15476190476191" type="line"/>
      <point x="140.14523809523808" y="195.07619047619048"/>
      <point x="172.6714285714286" y="235.4"/>
      <point x="215.49523809523808" y="235.4" type="curve" smooth="yes"/>
      <point x="249.9214285714286" y="235.4"/>
      <point x="267.5333333333333" y="205.55"/>
      <point x="267.5333333333333" y="168.7738095238095" type="curve" smooth="yes"/>
      <point x="267.5333333333333" y="114.33333333333333"/>
      <point x="238.7547619047619" y="72.20238095238096"/>
      <point x="187.81666666666666" y="72.20238095238096" type="curve" smooth="yes"/>
      <point x="137.25238095238097" y="72.20238095238096"/>
      <point x="103.24761904761904" y="132.82619047619048"/>
      <point x="103.24761904761904" y="213.19761904761904" type="curve" smooth="yes"/>
      <point x="103.24761904761904" y="379.7595238095238"/>
      <point x="208.23333333333335" y="506.78333333333336"/>
      <point x="411.9785714285714" y="506.78333333333336" type="curve" smooth="yes"/>
      <point x="603.5380952380953" y="506.78333333333336" type="line"/>
      <point x="491.83809523809515" y="-22.17857142857143" type="line"/>
      <point x="282.3285714285714" y="-193.95238095238096" type="line"/>
    </contour>
  </outline>
</glyph>
<glyph name="ai-tamil" format="2">
  <advance width="901.0904761904761"/>
  <unicode hex="0B90"/>
  <note>
uni0B90
</note>
  <anchor x="389.92857142857144" y="0.0" name="bottom"/>
  <anchor x="317.5333333333333" y="-325.32380952380953" name="nukta"/>
  <anchor x="522.0999999999999" y="572.0666666666666" name="top"/>
  <anchor x="520.1238095238095" y="572.0666666666666" name="vedic"/>
  <outline>
    <contour>
      <point x="143.0047619047619" y="-325.32380952380953" type="curve" smooth="yes"/>
      <point x="248.45476190476194" y="-325.32380952380953"/>
      <point x="324.1642857142857" y="-275.9190476190476"/>
      <point x="365.18571428571425" y="-190.57380952380953" type="curve"/>
      <point x="370.9333333333334" y="-266.8619047619047"/>
      <point x="432.3523809523809" y="-325.32380952380953"/>
      <point x="534.2309523809524" y="-325.32380952380953" type="curve" smooth="yes"/>
      <point x="680.0333333333335" y="-325.32380952380953"/>
      <point x="775.9238095238097" y="-222.6404761904762"/>
      <point x="775.9238095238097" y="-71.75714285714287" type="curve" smooth="yes"/>
      <point x="775.9238095238097" y="-21.845238095238095"/>
      <point x="764.7904761904763" y="23.97857142857143"/>
      <point x="749.2261904761905" y="64.4738095238095" type="curve"/>
      <point x="681.3166666666667" y="37.371428571428574" type="line"/>
      <point x="694.6928571428572" y="0.9523809523809494"/>
      <point x="705.05" y="-37.21904761904762"/>
      <point x="705.05" y="-72.92142857142856" type="curve" smooth="yes"/>
      <point x="705.05" y="-181.55952380952377"/>
      <point x="640.7428571428572" y="-254.70238095238093"/>
      <point x="537.0571428571428" y="-254.70238095238093" type="curve" smooth="yes"/>
      <point x="455.33095238095245" y="-254.70238095238093"/>
      <point x="427.47380952380956" y="-198.0261904761905"/>
      <point x="446.854761904762" y="-105.50476190476192" type="curve" smooth="yes"/>
      <point x="463.52142857142866" y="-25.978571428571428" type="line"/>
      <point x="330.68809523809523" y="-25.978571428571428" type="line"/>
      <point x="314.22380952380956" y="-103.55952380952381" type="line" smooth="yes"/>
      <point x="294.32857142857137" y="-197.53095238095239"/>
      <point x="252.83571428571435" y="-254.6238095238095"/>
      <point x="183.5952380952381" y="-254.6238095238095" type="curve" smooth="yes"/>
      <point x="130.20476190476188" y="-254.6238095238095"/>
      <point x="107.56428571428573" y="-214.4190476190476"/>
      <point x="107.56428571428573" y="-156.65714285714287" type="curve" smooth="yes"/>
      <point x="107.56428571428573" y="23.554761904761904"/>
      <point x="225.84047619047618" y="57.30714285714285"/>
      <point x="435.80476190476196" y="78.98809523809523" type="curve" smooth="yes"/>
      <point x="691.8119047619048" y="105.50476190476189"/>
      <point x="876.3214285714284" y="175.91666666666669"/>
      <point x="876.3214285714284" y="396.45952380952383" type="curve" smooth="yes"/>
      <point x="876.3214285714284" y="504.2952380952381"/>
      <point x="805.1857142857143" y="577.5857142857144"/>
      <point x="691.3285714285714" y="577.5857142857144" type="curve" smooth="yes"/>
      <point x="606.9190476190477" y="577.5857142857144"/>
      <point x="538.5690476190478" y="539.8404761904762"/>
      <point x="496.38333333333344" y="458.91190476190474" type="curve"/>
      <point x="479.03095238095244" y="535.0000000000001"/>
      <point x="410.8690476190476" y="577.5857142857144"/>
      <point x="316.2738095238096" y="577.5857142857144" type="curve" smooth="yes"/>
      <point x="165.1238095238095" y="577.5857142857144"/>
      <point x="55.89285714285714" y="455.5809523809524"/>
      <point x="55.89285714285714" y="305.42857142857144" type="curve" smooth="yes"/>
      <point x="55.89285714285714" y="220.45476190476188"/>
      <point x="105.73809523809527" y="153.4738095238095"/>
      <point x="187.53571428571428" y="153.4738095238095" type="curve" smooth="yes"/>
      <point x="277.4595238095239" y="153.4738095238095"/>
      <point x="344.8857142857143" y="216.19047619047618"/>
      <point x="344.8857142857143" y="307.4285714285714" type="curve" smooth="yes"/>
      <point x="344.8857142857143" y="370.302380952381"/>
      <point x="305.1285714285715" y="410.1523809523809"/>
      <point x="246.49761904761908" y="410.1523809523809" type="curve" smooth="yes"/>
      <point x="177.86190476190478" y="410.1523809523809"/>
      <point x="125.97380952380954" y="362.2547619047619"/>
      <point x="90.20714285714286" y="255.1833333333333" type="curve"/>
      <point x="116.1619047619048" y="234.86428571428573" type="line"/>
      <point x="141.8095238095238" y="311.23333333333335"/>
      <point x="172.75714285714284" y="339.0047619047619"/>
      <point x="201.2" y="339.0047619047619" type="curve" smooth="yes"/>
      <point x="225.44761904761904" y="339.0047619047619"/>
      <point x="239.05714285714282" y="322.12619047619046"/>
      <point x="239.05714285714282" y="294.9666666666667" type="curve" smooth="yes"/>
      <point x="239.05714285714282" y="255.96666666666667"/>
      <point x="216.5547619047619" y="223.28095238095239"/>
      <point x="178.88571428571427" y="223.28095238095239" type="curve" smooth="yes"/>
      <point x="142.96666666666667" y="223.28095238095239"/>
      <point x="123.24285714285715" y="258.18333333333334"/>
      <point x="123.24285714285715" y="308.9928571428571" type="curve" smooth="yes"/>
      <point x="123.24285714285715" y="415.9547619047619"/>
      <point x="194.72142857142856" y="508.25952380952384"/>
      <point x="304.6119047619048" y="508.25952380952384" type="curve" smooth="yes"/>
      <point x="389.9761904761905" y="508.25952380952384"/>
      <point x="432.48809523809524" y="460.402380952381"/>
      <point x="414.1904761904762" y="374.97380952380956" type="curve" smooth="yes"/>
      <point x="378.8309523809524" y="209.34999999999997" type="line"/>
      <point x="511.6642857142857" y="209.34999999999997" type="line"/>
      <point x="550.8595238095239" y="392.57619047619045" type="line" smooth="yes"/>
      <point x="566.1142857142858" y="465.1571428571429"/>
      <point x="598.7642857142857" y="506.68333333333334"/>
      <point x="650.8571428571428" y="506.68333333333334" type="curve" smooth="yes"/>
      <point x="698.9976190476191" y="506.68333333333334"/>
      <point x="723.5238095238095" y="471.7833333333333"/>
      <point x="723.5238095238095" y="413.2452380952381" type="curve" smooth="yes"/>
      <point x="723.5238095238095" y="201.95"/>
      <point x="614.9738095238095" y="150.0785714285714"/>
      <point x="364.29047619047617" y="123.54285714285714" type="curve" smooth="yes"/>
      <point x="151.0261904761905" y="100.96190476190476"/>
      <point x="-45.61666666666667" y="48.23571428571427"/>
      <point x="-45.61666666666667" y="-148.99285714285713" type="curve" smooth="yes"/>
      <point x="-45.61666666666667" y="-253.53571428571428"/>
      <point x="25.366666666666678" y="-325.32380952380953"/>
    </contour>
  </outline>
</glyph>
<glyph name="o-tamil" format="2">
  <advance width="949.6071428571429"/>
  <unicode hex="0B92"/>
  <note>
uni0B92
</note>
  <anchor x="413.7261904761905" y="0.0" name="bottom"/>
  <anchor x="340.2452380952381" y="-335.0" name="nukta"/>
  <anchor x="522.4357142857142" y="572.0666666666666" name="top"/>
  <anchor x="522.4357142857143" y="572.0666666666666" name="vedic"/>
  <outline>
    <contour>
      <point x="222.23571428571427" y="-338.72142857142853" type="curve" smooth="yes"/>
      <point x="427.452380952381" y="-338.72142857142853"/>
      <point x="501.9904761904763" y="-139.85000000000002"/>
      <point x="647.9547619047619" y="-139.85000000000002" type="curve" smooth="yes"/>
      <point x="697.5857142857144" y="-139.85000000000002" type="line"/>
      <point x="711.597619047619" y="-73.77857142857144" type="line"/>
      <point x="638.5000000000001" y="-73.77857142857144" type="line" smooth="yes"/>
      <point x="472.8261904761905" y="-73.77857142857144"/>
      <point x="442.03333333333336" y="71.88333333333333"/>
      <point x="553.1214285714287" y="220.64523809523808" type="curve"/>
      <point x="558.4380952380952" y="217.48095238095237" type="line"/>
      <point x="504.21190476190475" y="93.52857142857144"/>
      <point x="540.3785714285715" y="-3.4238095238095236"/>
      <point x="666.611904761905" y="-3.4238095238095236" type="curve" smooth="yes"/>
      <point x="797.254761904762" y="-3.4238095238095236"/>
      <point x="896.002380952381" y="104.98095238095237"/>
      <point x="896.002380952381" y="255.51190476190473" type="curve" smooth="yes"/>
      <point x="896.002380952381" y="469.1642857142857"/>
      <point x="712.7833333333333" y="577.45"/>
      <point x="487.16666666666663" y="577.45" type="curve" smooth="yes"/>
      <point x="234.70000000000005" y="577.45"/>
      <point x="31.142857142857146" y="416.3214285714286"/>
      <point x="31.142857142857146" y="208.24761904761905" type="curve" smooth="yes"/>
      <point x="31.142857142857146" y="90.81904761904764"/>
      <point x="97.3309523809524" y="-5.0"/>
      <point x="212.69047619047623" y="-5.0" type="curve" smooth="yes"/>
      <point x="325.11904761904754" y="-5.0"/>
      <point x="412.2571428571428" y="72.16666666666667"/>
      <point x="412.2571428571428" y="194.5357142857143" type="curve" smooth="yes"/>
      <point x="412.2571428571428" y="280.0476190476191"/>
      <point x="358.29761904761904" y="335.37619047619046"/>
      <point x="276.9119047619048" y="335.37619047619046" type="curve" smooth="yes"/>
      <point x="180.1142857142857" y="335.37619047619046"/>
      <point x="113.4547619047619" y="256.7952380952381"/>
      <point x="75.17142857142859" y="142.34285714285716" type="curve"/>
      <point x="108.5142857142857" y="113.15476190476191" type="line"/>
      <point x="136.0904761904762" y="195.07619047619048"/>
      <point x="167.6238095238095" y="235.4"/>
      <point x="210.44761904761904" y="235.4" type="curve" smooth="yes"/>
      <point x="244.87380952380948" y="235.4"/>
      <point x="261.447619047619" y="205.55"/>
      <point x="261.447619047619" y="168.7738095238095" type="curve" smooth="yes"/>
      <point x="261.447619047619" y="114.33333333333333"/>
      <point x="233.16428571428568" y="72.20238095238096"/>
      <point x="182.22619047619048" y="72.20238095238096" type="curve" smooth="yes"/>
      <point x="131.6619047619048" y="72.20238095238096"/>
      <point x="100.41428571428571" y="134.48095238095237"/>
      <point x="100.41428571428571" y="214.19523809523807" type="curve" smooth="yes"/>
      <point x="100.41428571428571" y="384.6"/>
      <point x="278.9857142857143" y="508.6857142857143"/>
      <point x="464.67380952380955" y="508.6857142857143" type="curve" smooth="yes"/>
      <point x="629.0738095238097" y="508.6857142857143"/>
      <point x="743.9000000000001" y="424.1666666666667"/>
      <point x="743.9000000000001" y="266.31190476190477" type="curve" smooth="yes"/>
      <point x="743.9000000000001" y="168.14523809523814"/>
      <point x="705.2071428571429" y="78.87857142857143"/>
      <point x="635.1857142857142" y="78.87857142857143" type="curve" smooth="yes"/>
      <point x="568.1523809523809" y="78.87857142857143"/>
      <point x="585.8214285714286" y="190.33095238095237"/>
      <point x="636.5119047619047" y="273.64761904761906" type="curve"/>
      <point x="566.9309523809525" y="313.7357142857143" type="line"/>
      <point x="427.52142857142854" y="166.6833333333333"/>
      <point x="367.98809523809524" y="-23.128571428571433"/>
      <point x="515.9809523809524" y="-97.70238095238095" type="curve"/>
      <point x="514.9809523809524" y="-102.70238095238095" type="line"/>
      <point x="378.0571428571429" y="-128.53333333333333"/>
      <point x="314.4380952380952" y="-263.747619047619"/>
      <point x="203.69285714285718" y="-263.747619047619" type="curve" smooth="yes"/>
      <point x="155.88095238095238" y="-263.747619047619"/>
      <point x="128.97857142857143" y="-233.15714285714284"/>
      <point x="128.97857142857143" y="-196.88095238095238" type="curve" smooth="yes"/>
      <point x="128.97857142857143" y="-154.96666666666667"/>
      <point x="150.88571428571433" y="-130.50476190476192"/>
      <point x="192.92619047619047" y="-98.67380952380952" type="curve"/>
      <point x="160.42619047619047" y="-55.326190476190476" type="line"/>
      <point x="102.15238095238095" y="-99.09047619047618"/>
      <point x="64.95952380952382" y="-139.46904761904761"/>
      <point x="64.95952380952382" y="-208.6452380952381" type="curve" smooth="yes"/>
      <point x="64.95952380952382" y="-279.2523809523809"/>
      <point x="122.35000000000001" y="-338.72142857142853"/>
    </contour>
  </outline>
</glyph>
<glyph name="oo-tamil" format="2">
  <advance width="949.6071428571429"/>
  <unicode hex="0B93"/>
  <note>
uni0B93
</note>
  <anchor x="413.3619047619048" y="0.0" name="bottom"/>
  <anchor x="342.8619047619048" y="-321.32380952380953" name="nukta"/>
  <anchor x="522.1857142857142" y="572.0666666666666" name="top"/>
  <anchor x="522.1857142857143" y="572.0666666666666" name="vedic"/>
  <outline>
    <contour>
      <point x="193.57857142857142" y="-357.78809523809525" type="curve" smooth="yes"/>
      <point x="411.59523809523813" y="-357.78809523809525"/>
      <point x="501.99047619047616" y="-140.5071428571429"/>
      <point x="647.954761904762" y="-140.5071428571429" type="curve" smooth="yes"/>
      <point x="695.6857142857141" y="-140.5071428571429" type="line"/>
      <point x="709.697619047619" y="-74.43571428571428" type="line"/>
      <point x="638.5" y="-74.43571428571428" type="line" smooth="yes"/>
      <point x="472.82619047619045" y="-74.43571428571428"/>
      <point x="442.0333333333334" y="71.88333333333333"/>
      <point x="553.1214285714285" y="220.6452380952381" type="curve"/>
      <point x="558.4380952380952" y="217.48095238095237" type="line"/>
      <point x="504.21190476190475" y="93.52857142857144"/>
      <point x="540.3785714285715" y="-3.4238095238095236"/>
      <point x="666.611904761905" y="-3.4238095238095236" type="curve" smooth="yes"/>
      <point x="797.254761904762" y="-3.4238095238095236"/>
      <point x="896.002380952381" y="104.98095238095237"/>
      <point x="896.002380952381" y="255.51190476190473" type="curve" smooth="yes"/>
      <point x="896.002380952381" y="469.1642857142857"/>
      <point x="712.7833333333333" y="577.45"/>
      <point x="487.16666666666663" y="577.45" type="curve" smooth="yes"/>
      <point x="234.70000000000005" y="577.45"/>
      <point x="31.142857142857146" y="416.3214285714286"/>
      <point x="31.142857142857146" y="208.24761904761905" type="curve" smooth="yes"/>
      <point x="31.142857142857146" y="90.81904761904764"/>
      <point x="97.3309523809524" y="-5.0"/>
      <point x="212.69047619047623" y="-5.0" type="curve" smooth="yes"/>
      <point x="325.11904761904754" y="-5.0"/>
      <point x="412.2571428571428" y="72.16666666666667"/>
      <point x="412.2571428571428" y="194.5357142857143" type="curve" smooth="yes"/>
      <point x="412.2571428571428" y="280.0476190476191"/>
      <point x="358.29761904761904" y="335.37619047619046"/>
      <point x="276.9119047619048" y="335.37619047619046" type="curve" smooth="yes"/>
      <point x="180.1142857142857" y="335.37619047619046"/>
      <point x="113.4547619047619" y="256.7952380952381"/>
      <point x="75.17142857142859" y="142.34285714285716" type="curve"/>
      <point x="108.5142857142857" y="113.15476190476191" type="line"/>
      <point x="136.0904761904762" y="195.07619047619048"/>
      <point x="167.6238095238095" y="235.4"/>
      <point x="210.44761904761904" y="235.4" type="curve" smooth="yes"/>
      <point x="244.87380952380948" y="235.4"/>
      <point x="261.447619047619" y="205.55"/>
      <point x="261.447619047619" y="168.7738095238095" type="curve" smooth="yes"/>
      <point x="261.447619047619" y="114.33333333333333"/>
      <point x="233.16428571428568" y="72.20238095238096"/>
      <point x="182.22619047619048" y="72.20238095238096" type="curve" smooth="yes"/>
      <point x="131.6619047619048" y="72.20238095238096"/>
      <point x="100.41428571428571" y="134.48095238095237"/>
      <point x="100.41428571428571" y="214.19523809523807" type="curve" smooth="yes"/>
      <point x="100.41428571428571" y="384.6"/>
      <point x="278.9857142857143" y="508.6857142857143"/>
      <point x="464.67380952380955" y="508.6857142857143" type="curve" smooth="yes"/>
      <point x="629.0738095238097" y="508.6857142857143"/>
      <point x="743.9000000000001" y="424.1666666666667"/>
      <point x="743.9000000000001" y="266.31190476190477" type="curve" smooth="yes"/>
      <point x="743.9000000000001" y="168.14523809523814"/>
      <point x="705.2071428571429" y="78.87857142857143"/>
      <point x="635.1857142857142" y="78.87857142857143" type="curve" smooth="yes"/>
      <point x="568.1523809523809" y="78.87857142857143"/>
      <point x="585.8214285714286" y="190.33095238095237"/>
      <point x="636.5119047619047" y="273.64761904761906" type="curve"/>
      <point x="566.9309523809525" y="313.7357142857143" type="line"/>
      <point x="427.52142857142854" y="166.6833333333333"/>
      <point x="367.98809523809524" y="-23.78571428571429"/>
      <point x="515.9809523809524" y="-98.35952380952381" type="curve"/>
      <point x="514.9809523809524" y="-103.35952380952381" type="line"/>
      <point x="378.05714285714294" y="-129.19047619047615"/>
      <point x="291.28333333333336" y="-283.2214285714286"/>
      <point x="172.3238095238095" y="-283.2214285714286" type="curve" smooth="yes"/>
      <point x="117.57857142857142" y="-283.2214285714286"/>
      <point x="91.97619047619048" y="-250.80714285714282"/>
      <point x="91.97619047619048" y="-211.22142857142856" type="curve" smooth="yes"/>
      <point x="91.97619047619048" y="-168.8690476190476"/>
      <point x="119.21666666666665" y="-135.39285714285717"/>
      <point x="160.49761904761905" y="-135.39285714285717" type="curve" smooth="yes"/>
      <point x="198.25714285714287" y="-135.39285714285717"/>
      <point x="223.73571428571432" y="-159.13333333333338"/>
      <point x="228.3166666666667" y="-206.5547619047619" type="curve"/>
      <point x="274.1928571428572" y="-192.32619047619048"/>
      <point x="304.2476190476191" y="-162.05000000000004"/>
      <point x="304.2476190476191" y="-120.44047619047618" type="curve" smooth="yes"/>
      <point x="304.2476190476191" y="-77.25714285714287"/>
      <point x="262.15952380952376" y="-50.79047619047619"/>
      <point x="205.97380952380954" y="-50.79047619047619" type="curve" smooth="yes"/>
      <point x="104.95952380952383" y="-50.79047619047619"/>
      <point x="30.776190476190475" y="-125.56190476190477"/>
      <point x="30.776190476190475" y="-219.79047619047617" type="curve" smooth="yes"/>
      <point x="30.776190476190475" y="-299.93809523809523"/>
      <point x="96.26904761904763" y="-357.78809523809525"/>
    </contour>
  </outline>
</glyph>
<glyph name="ja-tamil" format="2">
  <advance width="905.0666666666666"/>
  <unicode hex="0B9C"/>
  <note>
uni0B9C
</note>
  <anchor x="390.5023809523809" y="0.0" name="bottom"/>
  <anchor x="318.10714285714283" y="-325.32380952380953" name="nukta"/>
  <anchor x="514.1095238095238" y="572.0666666666666" name="top"/>
  <anchor x="508.95714285714297" y="572.0666666666666" name="vedic"/>
  <outline>
    <contour>
      <point x="126.96428571428571" y="-325.32380952380953" type="curve" smooth="yes"/>
      <point x="328.8904761904762" y="-325.32380952380953"/>
      <point x="403.74999999999994" y="-27.469047619047622"/>
      <point x="548.1476190476191" y="-27.469047619047622" type="curve" smooth="yes"/>
      <point x="597.3047619047619" y="-27.469047619047622"/>
      <point x="622.0880952380954" y="-66.50238095238096"/>
      <point x="622.0880952380954" y="-115.18333333333334" type="curve" smooth="yes"/>
      <point x="622.0880952380954" y="-189.1357142857143"/>
      <point x="580.5380952380953" y="-250.02619047619046"/>
      <point x="506.35714285714295" y="-250.02619047619046" type="curve" smooth="yes"/>
      <point x="477.96666666666675" y="-250.02619047619046"/>
      <point x="449.02619047619044" y="-238.1642857142857"/>
      <point x="423.32142857142856" y="-220.7142857142857" type="curve"/>
      <point x="386.6333333333333" y="-274.72380952380945" type="line"/>
      <point x="427.26904761904757" y="-307.1595238095238"/>
      <point x="479.49999999999994" y="-325.32380952380953"/>
      <point x="541.9809523809524" y="-325.32380952380953" type="curve" smooth="yes"/>
      <point x="666.6690476190477" y="-325.32380952380953"/>
      <point x="775.2976190476192" y="-248.07619047619048"/>
      <point x="775.2976190476192" y="-111.45952380952382" type="curve" smooth="yes"/>
      <point x="775.2976190476192" y="-12.266666666666666"/>
      <point x="705.5142857142857" y="48.354761904761915"/>
      <point x="602.9642857142857" y="48.519047619047626" type="curve" smooth="yes"/>
      <point x="378.5642857142857" y="49.011904761904766"/>
      <point x="299.84761904761905" y="-246.8095238095238"/>
      <point x="175.2761904761905" y="-246.8095238095238" type="curve" smooth="yes"/>
      <point x="131.197619047619" y="-246.8095238095238"/>
      <point x="108.47380952380952" y="-207.16904761904757"/>
      <point x="108.47380952380952" y="-150.75714285714284" type="curve" smooth="yes"/>
      <point x="108.47380952380952" y="17.197619047619046"/>
      <point x="223.61428571428567" y="59.19761904761906"/>
      <point x="436.9714285714286" y="81.75" type="curve" smooth="yes"/>
      <point x="692.9785714285715" y="108.86666666666666"/>
      <point x="876.0642857142857" y="175.91666666666669"/>
      <point x="876.0642857142857" y="396.45952380952383" type="curve" smooth="yes"/>
      <point x="876.0642857142857" y="504.2952380952381"/>
      <point x="804.9285714285713" y="577.5857142857144"/>
      <point x="691.0714285714287" y="577.5857142857144" type="curve" smooth="yes"/>
      <point x="606.6619047619048" y="577.5857142857144"/>
      <point x="538.3119047619049" y="539.8404761904762"/>
      <point x="496.1261904761905" y="458.91190476190474" type="curve"/>
      <point x="478.77380952380946" y="535.0000000000001"/>
      <point x="410.6119047619048" y="577.5857142857144"/>
      <point x="316.0166666666667" y="577.5857142857144" type="curve" smooth="yes"/>
      <point x="164.86666666666667" y="577.5857142857144"/>
      <point x="55.6357142857143" y="455.5809523809524"/>
      <point x="55.6357142857143" y="305.42857142857144" type="curve" smooth="yes"/>
      <point x="55.6357142857143" y="220.45476190476188"/>
      <point x="105.48095238095239" y="153.4738095238095"/>
      <point x="187.27857142857144" y="153.4738095238095" type="curve" smooth="yes"/>
      <point x="277.202380952381" y="153.4738095238095"/>
      <point x="344.6285714285715" y="216.19047619047618"/>
      <point x="344.6285714285715" y="307.4285714285714" type="curve" smooth="yes"/>
      <point x="344.6285714285715" y="370.302380952381"/>
      <point x="304.87142857142857" y="410.1523809523809"/>
      <point x="246.24047619047622" y="410.1523809523809" type="curve" smooth="yes"/>
      <point x="177.60476190476194" y="410.1523809523809"/>
      <point x="125.71666666666665" y="362.2547619047619"/>
      <point x="89.95" y="255.1833333333333" type="curve"/>
      <point x="115.90476190476191" y="234.86428571428573" type="line"/>
      <point x="141.55238095238096" y="311.23333333333335"/>
      <point x="172.49999999999997" y="339.0047619047619"/>
      <point x="200.94285714285718" y="339.0047619047619" type="curve" smooth="yes"/>
      <point x="225.19047619047618" y="339.0047619047619"/>
      <point x="238.8" y="322.12619047619046"/>
      <point x="238.8" y="294.9666666666667" type="curve" smooth="yes"/>
      <point x="238.8" y="255.96666666666667"/>
      <point x="216.29761904761907" y="223.28095238095239"/>
      <point x="178.6285714285714" y="223.28095238095239" type="curve" smooth="yes"/>
      <point x="142.70952380952377" y="223.28095238095239"/>
      <point x="122.98571428571428" y="258.18333333333334"/>
      <point x="122.98571428571428" y="308.9928571428571" type="curve" smooth="yes"/>
      <point x="122.98571428571428" y="415.9547619047619"/>
      <point x="194.46428571428572" y="508.25952380952384"/>
      <point x="304.3547619047619" y="508.25952380952384" type="curve" smooth="yes"/>
      <point x="389.71904761904767" y="508.25952380952384"/>
      <point x="432.2309523809525" y="460.402380952381"/>
      <point x="413.9333333333333" y="374.97380952380956" type="curve" smooth="yes"/>
      <point x="378.5738095238095" y="209.34999999999997" type="line"/>
      <point x="511.40714285714284" y="209.34999999999997" type="line"/>
      <point x="550.6023809523809" y="392.57619047619045" type="line" smooth="yes"/>
      <point x="565.857142857143" y="465.1571428571429"/>
      <point x="598.642857142857" y="506.68333333333334"/>
      <point x="650.7357142857144" y="506.68333333333334" type="curve" smooth="yes"/>
      <point x="698.8761904761905" y="506.68333333333334"/>
      <point x="723.2666666666668" y="471.7833333333333"/>
      <point x="723.2666666666668" y="413.2452380952381" type="curve" smooth="yes"/>
      <point x="723.2666666666668" y="201.95000000000002"/>
      <point x="616.1404761904762" y="150.99047619047622"/>
      <point x="365.45714285714286" y="124.12619047619049" type="curve" smooth="yes"/>
      <point x="147.75714285714287" y="100.88809523809523"/>
      <point x="-44.707142857142856" y="37.67857142857143"/>
      <point x="-44.707142857142856" y="-144.4547619047619" type="curve" smooth="yes"/>
      <point x="-44.707142857142856" y="-245.19047619047623"/>
      <point x="14.704761904761902" y="-325.32380952380953"/>
    </contour>
  </outline>
</glyph>
<glyph name="nya-tamil" format="2">
  <advance width="1242.7928571428572"/>
  <unicode hex="0B9E"/>
  <note>
uni0B9E
</note>
  <anchor x="572.5809523809525" y="0.0" name="bottom"/>
  <anchor x="994.9119047619049" y="572.0666666666666" name="imatra"/>
  <anchor x="514.2523809523809" y="-346.8857142857143" name="nukta"/>
  <anchor x="718.9285714285714" y="572.0666666666666" name="top"/>
  <anchor x="684.204761904762" y="572.0666666666666" name="vedic"/>
  <outline>
    <contour>
      <point x="514.252380952381" y="-346.8857142857143" type="curve" smooth="yes"/>
      <point x="876.8761904761905" y="-346.8857142857143"/>
      <point x="1172.8" y="-135.33809523809526"/>
      <point x="1172.8" y="184.41666666666666" type="curve" smooth="yes"/>
      <point x="1172.8" y="291.55"/>
      <point x="1118.2261904761904" y="346.52619047619044"/>
      <point x="1041.2119047619046" y="346.52619047619044" type="curve" smooth="yes"/>
      <point x="951.5190476190478" y="346.52619047619044"/>
      <point x="887.4642857142857" y="267.0571428571429"/>
      <point x="866.2142857142858" y="172.0738095238095" type="curve" smooth="yes"/>
      <point x="859.802380952381" y="142.5857142857143" type="line"/>
      <point x="885.5452380952382" y="142.5857142857143" type="line"/>
      <point x="891.5047619047618" y="171.57619047619045" type="line" smooth="yes"/>
      <point x="900.8238095238097" y="216.4047619047619"/>
      <point x="923.6642857142855" y="243.70238095238096"/>
      <point x="960.0571428571429" y="243.70238095238096" type="curve" smooth="yes"/>
      <point x="997.842857142857" y="243.70238095238096"/>
      <point x="1015.0738095238096" y="213.45714285714286"/>
      <point x="1015.0738095238096" y="161.25238095238097" type="curve" smooth="yes"/>
      <point x="1015.0738095238096" y="-85.0142857142857"/>
      <point x="806.4523809523811" y="-276.7761904761905"/>
      <point x="519.3642857142859" y="-276.7761904761905" type="curve" smooth="yes"/>
      <point x="285.602380952381" y="-276.7761904761905"/>
      <point x="94.95238095238095" y="-129.13333333333333"/>
      <point x="94.95238095238095" y="131.16190476190476" type="curve" smooth="yes"/>
      <point x="94.95238095238095" y="324.44285714285706"/>
      <point x="179.58809523809526" y="486.0452380952381"/>
      <point x="332.9785714285714" y="637.1142857142856" type="curve"/>
      <point x="287.37857142857143" y="681.6261904761905" type="line"/>
      <point x="122.14285714285714" y="518.5857142857144"/>
      <point x="22.478571428571428" y="334.6714285714285"/>
      <point x="22.478571428571428" y="119.31190476190476" type="curve" smooth="yes"/>
      <point x="22.478571428571428" y="-162.39285714285717"/>
      <point x="234.66666666666669" y="-346.8857142857143"/>
    </contour>
    <component base="e-tamil" xOffset="191.6071428571429"/>
  </outline>
</glyph>
<glyph name="tta-tamil" format="2">
  <advance width="814.4904761904762"/>
  <unicode hex="0B9F"/>
  <note>
uni0B9F
</note>
  <anchor x="353.81904761904764" y="0.0" name="bottom"/>
  <anchor x="353.81904761904764" y="0.0" name="nukta"/>
  <anchor x="492.7642857142858" y="572.0666666666666" name="top"/>
  <anchor x="495.92142857142863" y="572.0666666666666" name="vedic"/>
  <outline>
    <contour>
      <point x="4.295238095238098" y="0.0" type="line"/>
      <point x="745.6785714285713" y="0.0" type="line"/>
      <point x="759.554761904762" y="65.60000000000001" type="line"/>
      <point x="186.49999999999997" y="65.60000000000001" type="line"/>
      <point x="294.2119047619048" y="572.0666666666666" type="line"/>
      <point x="125.71904761904761" y="572.0666666666666" type="line"/>
    </contour>
  </outline>
</glyph>
<glyph name="ta-tamil" format="2">
  <advance width="795.4809523809524"/>
  <unicode hex="0BA4"/>
  <note>
uni0BA4
</note>
  <anchor x="329.72619047619054" y="0.0" name="bottom"/>
  <anchor x="596.9309523809524" y="572.0666666666666" name="imatra"/>
  <anchor x="369.23095238095243" y="-134.84285714285716" name="nukta"/>
  <anchor x="467.7285714285714" y="572.0666666666666" name="top"/>
  <anchor x="459.4761904761905" y="572.0666666666666" name="vedic"/>
  <outline>
    <contour>
      <point x="77.72619047619048" y="-284.6499999999999" type="curve"/>
      <point x="94.81190476190477" y="-186.93095238095236"/>
      <point x="132.0571428571429" y="-129.10238095238097"/>
      <point x="238.9" y="-129.10238095238097" type="curve" smooth="yes"/>
      <point x="375.3452380952381" y="-129.10238095238097" type="line" smooth="yes"/>
      <point x="571.4071428571428" y="-129.10238095238097"/>
      <point x="726.7499999999999" y="-30.326190476190487"/>
      <point x="726.7499999999999" y="153.63333333333333" type="curve" smooth="yes"/>
      <point x="726.7499999999999" y="280.10238095238094"/>
      <point x="638.1904761904761" y="336.6095238095238"/>
      <point x="517.2523809523811" y="336.6095238095238" type="curve" smooth="yes"/>
      <point x="495.1190476190476" y="336.6095238095238" type="line"/>
      <point x="531.1071428571429" y="506.302380952381" type="line"/>
      <point x="658.8904761904762" y="506.302380952381" type="line"/>
      <point x="673.1500000000002" y="572.0666666666666" type="line"/>
      <point x="197.12380952380954" y="572.0666666666666" type="line"/>
      <point x="139.3952380952381" y="300.75714285714287" type="line"/>
      <point x="208.70476190476194" y="300.75714285714287" type="line"/>
      <point x="251.85714285714283" y="506.302380952381" type="line"/>
      <point x="360.6904761904762" y="506.302380952381" type="line"/>
      <point x="324.95" y="336.6095238095238" type="line"/>
      <point x="210.12857142857143" y="336.6095238095238" type="line" smooth="yes"/>
      <point x="104.29047619047621" y="336.6095238095238"/>
      <point x="23.852380952380962" y="262.22857142857146"/>
      <point x="23.852380952380962" y="155.7095238095238" type="curve" smooth="yes"/>
      <point x="23.852380952380962" y="69.93809523809524"/>
      <point x="91.67619047619048" y="-4.0"/>
      <point x="219.66666666666669" y="-4.0" type="curve" smooth="yes"/>
      <point x="364.05" y="-4.0"/>
      <point x="437.5238095238095" y="64.18571428571428"/>
      <point x="465.7261904761905" y="196.82619047619048" type="curve" smooth="yes"/>
      <point x="481.24285714285713" y="270.84523809523813" type="line"/>
      <point x="494.83095238095245" y="270.84523809523813" type="line" smooth="yes"/>
      <point x="537.5904761904761" y="270.84523809523813"/>
      <point x="571.4452380952381" y="238.8976190476191"/>
      <point x="571.4452380952381" y="153.83095238095237" type="curve" smooth="yes"/>
      <point x="571.4452380952381" y="12.702380952380953"/>
      <point x="489.1547619047619" y="-72.05"/>
      <point x="325.6095238095238" y="-72.05" type="curve" smooth="yes"/>
      <point x="193.56666666666663" y="-72.05" type="line" smooth="yes"/>
      <point x="69.50476190476189" y="-72.05"/>
      <point x="-32.33571428571428" y="-97.67619047619047"/>
      <point x="-32.33571428571428" y="-198.85476190476192" type="curve" smooth="yes"/>
      <point x="-32.33571428571428" y="-252.68571428571428"/>
      <point x="10.319047619047621" y="-284.6499999999999"/>
    </contour>
    <contour>
      <point x="184.99285714285713" y="72.08095238095238" type="curve" smooth="yes"/>
      <point x="132.94047619047618" y="72.08095238095238"/>
      <point x="94.33571428571427" y="105.23333333333335"/>
      <point x="94.33571428571427" y="164.05714285714285" type="curve" smooth="yes"/>
      <point x="94.33571428571427" y="228.18095238095236"/>
      <point x="133.34761904761902" y="270.84523809523813"/>
      <point x="203.52857142857144" y="270.84523809523813" type="curve" smooth="yes"/>
      <point x="310.6904761904762" y="270.84523809523813" type="line"/>
      <point x="293.9380952380953" y="188.26190476190476" type="line" smooth="yes"/>
      <point x="276.6571428571429" y="104.18095238095238"/>
      <point x="245.48809523809524" y="72.08095238095238"/>
    </contour>
  </outline>
</glyph>
<glyph name="na-tamil" format="2">
  <advance width="750.9023809523809"/>
  <unicode hex="0BA8"/>
  <note>
uni0BA8
</note>
  <anchor x="293.92619047619047" y="0.0" name="bottom"/>
  <anchor x="536.3285714285713" y="572.0666666666666" name="imatra"/>
  <anchor x="277.97857142857146" y="-223.00952380952384" name="nukta"/>
  <anchor x="417.5166666666667" y="572.0666666666666" name="top"/>
  <anchor x="442.4523809523809" y="572.0666666666666" name="vedic"/>
  <outline>
    <contour>
      <point x="73.83333333333334" y="-286.8666666666666" type="curve"/>
      <point x="90.91904761904762" y="-189.14761904761906"/>
      <point x="130.96428571428575" y="-130.66190476190476"/>
      <point x="237.80714285714288" y="-130.66190476190476" type="curve" smooth="yes"/>
      <point x="341.1666666666667" y="-130.66190476190476" type="line" smooth="yes"/>
      <point x="529.3166666666667" y="-130.66190476190476"/>
      <point x="686.3190476190476" y="-2.7452380952380953"/>
      <point x="686.3190476190476" y="194.38333333333335" type="curve" smooth="yes"/>
      <point x="686.3190476190476" y="296.5214285714285"/>
      <point x="634.3666666666667" y="352.99523809523816"/>
      <point x="553.9095238095239" y="352.99523809523816" type="curve" smooth="yes"/>
      <point x="492.1166666666667" y="352.99523809523816"/>
      <point x="459.4738095238095" y="321.3690476190476"/>
      <point x="425.72380952380956" y="283.39523809523814" type="curve"/>
      <point x="472.7357142857143" y="506.78333333333336" type="line"/>
      <point x="592.4190476190477" y="506.78333333333336" type="line"/>
      <point x="606.2952380952382" y="572.0666666666666" type="line"/>
      <point x="128.9261904761905" y="572.0666666666666" type="line"/>
      <point x="7.502380952380957" y="0.0" type="line"/>
      <point x="77.43809523809524" y="0.0" type="line"/>
      <point x="184.84999999999997" y="506.78333333333336" type="line"/>
      <point x="304.04999999999995" y="506.78333333333336" type="line"/>
      <point x="196.63809523809525" y="0.0" type="line"/>
      <point x="365.18809523809523" y="0.0" type="line"/>
      <point x="403.1071428571429" y="178.66666666666666" type="line" smooth="yes"/>
      <point x="413.38333333333327" y="226.67619047619047"/>
      <point x="440.0690476190477" y="249.53809523809528"/>
      <point x="470.20476190476194" y="249.53809523809528" type="curve" smooth="yes"/>
      <point x="507.3809523809523" y="249.53809523809528"/>
      <point x="525.7261904761905" y="223.34285714285716"/>
      <point x="525.7261904761905" y="175.86904761904762" type="curve" smooth="yes"/>
      <point x="525.7261904761905" y="31.435714285714283"/>
      <point x="445.6047619047619" y="-74.0904761904762"/>
      <point x="300.8690476190476" y="-74.0904761904762" type="curve" smooth="yes"/>
      <point x="192.7904761904762" y="-74.0904761904762" type="line" smooth="yes"/>
      <point x="68.72857142857144" y="-74.0904761904762"/>
      <point x="-36.22857142857143" y="-100.2095238095238"/>
      <point x="-36.22857142857143" y="-201.38809523809525" type="curve" smooth="yes"/>
      <point x="-36.22857142857143" y="-255.21904761904764"/>
      <point x="6.426190476190478" y="-286.8666666666666"/>
    </contour>
  </outline>
</glyph>
<glyph name="nnna-tamil" format="2">
  <advance width="1232.895238095238"/>
  <unicode hex="0BA9"/>
  <note>
uni0BA9
</note>
  <anchor x="535.5690476190475" y="0.0" name="bottom"/>
  <anchor x="1146.3142857142857" y="572.0666666666666" name="imatra"/>
  <anchor x="537.4619047619046" y="0.0" name="nukta"/>
  <anchor x="703.4285714285713" y="572.0666666666666" name="top"/>
  <anchor x="694.1880952380951" y="572.0666666666666" name="vedic"/>
  <outline>
    <contour>
      <point x="216.36428571428576" y="-5.0" type="curve" smooth="yes"/>
      <point x="328.79285714285714" y="-5.0"/>
      <point x="416.4261904761905" y="72.16666666666667"/>
      <point x="416.4261904761905" y="194.5357142857143" type="curve" smooth="yes"/>
      <point x="416.4261904761905" y="280.0476190476191"/>
      <point x="362.0619047619047" y="335.37619047619046"/>
      <point x="280.67619047619047" y="335.37619047619046" type="curve" smooth="yes"/>
      <point x="183.8785714285714" y="335.37619047619046"/>
      <point x="115.59285714285714" y="256.7952380952381"/>
      <point x="77.30952380952381" y="142.34285714285716" type="curve"/>
      <point x="110.65238095238095" y="113.15476190476191" type="line"/>
      <point x="138.22857142857146" y="195.07619047619048"/>
      <point x="170.7547619047619" y="235.4"/>
      <point x="213.57857142857142" y="235.4" type="curve" smooth="yes"/>
      <point x="248.00476190476195" y="235.4"/>
      <point x="265.6166666666666" y="205.55"/>
      <point x="265.6166666666666" y="168.7738095238095" type="curve" smooth="yes"/>
      <point x="265.6166666666666" y="114.33333333333333"/>
      <point x="236.83809523809526" y="72.20238095238096"/>
      <point x="185.90000000000003" y="72.20238095238096" type="curve" smooth="yes"/>
      <point x="135.33571428571432" y="72.20238095238096"/>
      <point x="101.33095238095237" y="136.65952380952382"/>
      <point x="101.33095238095237" y="217.03095238095239" type="curve" smooth="yes"/>
      <point x="101.33095238095237" y="375.29761904761904"/>
      <point x="245.45238095238096" y="507.60238095238094"/>
      <point x="417.5404761904762" y="507.60238095238094" type="curve" smooth="yes"/>
      <point x="591.7000000000002" y="507.60238095238094"/>
      <point x="676.1833333333334" y="398.2071428571428"/>
      <point x="675.5500000000001" y="246.6095238095238" type="curve" smooth="yes"/>
      <point x="675.2333333333333" y="153.93095238095236"/>
      <point x="645.8714285714285" y="75.80000000000001"/>
      <point x="584.4000000000001" y="75.80000000000001" type="curve" smooth="yes"/>
      <point x="552.445238095238" y="75.80000000000001"/>
      <point x="534.802380952381" y="108.26666666666667"/>
      <point x="534.802380952381" y="164.67142857142858" type="curve" smooth="yes"/>
      <point x="534.802380952381" y="361.66904761904766"/>
      <point x="718.9642857142858" y="506.78333333333336"/>
      <point x="924.3238095238095" y="506.78333333333336" type="curve" smooth="yes"/>
      <point x="1265.4404761904761" y="506.78333333333336" type="line"/>
      <point x="1279.0" y="572.0666666666666" type="line"/>
      <point x="930.3928571428571" y="572.0666666666666" type="line" smooth="yes"/>
      <point x="683.0619047619048" y="572.0666666666666"/>
      <point x="466.38095238095246" y="394.87380952380954"/>
      <point x="466.38095238095246" y="161.05714285714288" type="curve" smooth="yes"/>
      <point x="466.38095238095246" y="67.08571428571429"/>
      <point x="514.95" y="-4.135714285714286"/>
      <point x="614.2261904761906" y="-4.135714285714286" type="curve" smooth="yes"/>
      <point x="736.7904761904762" y="-4.135714285714286"/>
      <point x="824.6523809523809" y="84.44523809523811"/>
      <point x="824.6523809523809" y="236.67619047619047" type="curve" smooth="yes"/>
      <point x="824.6523809523809" y="449.15714285714284"/>
      <point x="660.0166666666667" y="577.45"/>
      <point x="433.0833333333333" y="577.45" type="curve" smooth="yes"/>
      <point x="219.40952380952382" y="577.45"/>
      <point x="32.05952380952381" y="413.2238095238095"/>
      <point x="32.05952380952381" y="211.08333333333334" type="curve" smooth="yes"/>
      <point x="32.05952380952381" y="92.99761904761904"/>
      <point x="101.00476190476192" y="-5.0"/>
    </contour>
    <contour>
      <point x="878.742857142857" y="0.0" type="line"/>
      <point x="1048.0738095238094" y="0.0" type="line"/>
      <point x="1162.6785714285713" y="539.6214285714286" type="line"/>
      <point x="993.3190476190476" y="539.6214285714286" type="line"/>
    </contour>
  </outline>
</glyph>
<glyph name="pa-tamil" format="2">
  <advance width="813.5166666666667"/>
  <unicode hex="0BAA"/>
  <note>
uni0BAA
</note>
  <anchor x="350.0357142857143" y="0.0" name="bottom"/>
  <anchor x="801.0571428571429" y="572.0666666666666" name="imatra"/>
  <anchor x="350.0357142857143" y="0.0" name="nukta"/>
  <anchor x="472.9595238095239" y="572.0666666666666" name="top"/>
  <anchor x="467.8119047619048" y="572.0666666666666" name="vedic"/>
  <outline>
    <contour>
      <point x="4.295238095238098" y="0.0" type="line"/>
      <point x="687.9333333333333" y="0.0" type="line"/>
      <point x="809.2214285714285" y="572.0666666666666" type="line"/>
      <point x="642.4952380952382" y="572.0666666666666" type="line"/>
      <point x="534.9476190476191" y="65.60000000000001" type="line"/>
      <point x="186.2857142857143" y="65.60000000000001" type="line"/>
      <point x="293.83333333333337" y="572.0666666666666" type="line"/>
      <point x="125.71904761904761" y="572.0666666666666" type="line"/>
    </contour>
  </outline>
</glyph>
<glyph name="ya-tamil" format="2">
  <advance width="915.5595238095237"/>
  <unicode hex="0BAF"/>
  <note>
uni0BAF
</note>
  <anchor x="402.38571428571424" y="0.0" name="bottom"/>
  <anchor x="907.7" y="572.0666666666666" name="imatra"/>
  <anchor x="399.6595238095239" y="0.0" name="nukta"/>
  <anchor x="519.9095238095239" y="572.0666666666666" name="top"/>
  <anchor x="517.4404761904761" y="572.0666666666666" name="vedic"/>
  <outline>
    <contour>
      <point x="159.8452380952381" y="-10.626190476190477" type="curve" smooth="yes"/>
      <point x="222.61190476190475" y="-10.626190476190477"/>
      <point x="266.85476190476186" y="17.238095238095234"/>
      <point x="300.8095238095239" y="56.60714285714286" type="curve"/>
      <point x="288.82619047619045" y="0.0" type="line"/>
      <point x="789.9761904761905" y="0.0" type="line"/>
      <point x="911.2642857142857" y="572.0666666666666" type="line"/>
      <point x="742.8785714285716" y="572.0666666666666" type="line"/>
      <point x="634.9476190476192" y="65.60000000000001" type="line"/>
      <point x="448.247619047619" y="65.60000000000001" type="line"/>
      <point x="555.9761904761906" y="572.0666666666666" type="line"/>
      <point x="393.12619047619046" y="572.0666666666666" type="line"/>
      <point x="301.23571428571427" y="137.8976190476191" type="line" smooth="yes"/>
      <point x="292.01428571428573" y="94.35714285714285"/>
      <point x="266.7642857142857" y="73.82380952380953"/>
      <point x="237.59761904761908" y="73.82380952380953" type="curve" smooth="yes"/>
      <point x="205.27142857142857" y="73.82380952380953"/>
      <point x="190.90952380952382" y="100.48571428571428"/>
      <point x="202.63333333333333" y="154.35238095238094" type="curve" smooth="yes"/>
      <point x="291.1571428571429" y="572.0666666666666" type="line"/>
      <point x="123.71904761904761" y="572.0666666666666" type="line"/>
      <point x="38.95952380952381" y="173.06904761904758" type="line" smooth="yes"/>
      <point x="14.988095238095243" y="60.25476190476191"/>
      <point x="71.49047619047617" y="-10.626190476190477"/>
    </contour>
  </outline>
</glyph>
<glyph name="ra-tamil" format="2">
  <advance width="575.0285714285715"/>
  <unicode hex="0BB0"/>
  <note>
uni0BB0
</note>
  <anchor x="220.63095238095235" y="0.0" name="bottom"/>
  <anchor x="555.0404761904762" y="572.0666666666666" name="imatra"/>
  <anchor x="169.4" y="-242.4261904761905" name="nukta"/>
  <anchor x="359.6642857142857" y="572.0666666666666" name="top"/>
  <anchor x="373.16666666666663" y="572.0666666666666" name="vedic"/>
  <outline>
    <contour>
      <point x="48.93333333333333" y="-246.3785714285714" type="line"/>
      <point x="398.6761904761905" y="42.095238095238095" type="line"/>
      <point x="497.3309523809524" y="506.78333333333336" type="line"/>
      <point x="607.5738095238095" y="506.78333333333336" type="line"/>
      <point x="621.4499999999999" y="572.0666666666666" type="line"/>
      <point x="127.52619047619046" y="572.0666666666666" type="line"/>
      <point x="6.1023809523809565" y="0.0" type="line"/>
      <point x="76.73809523809524" y="0.0" type="line"/>
      <point x="184.28571428571425" y="506.78333333333336" type="line"/>
      <point x="328.73095238095243" y="506.78333333333336" type="line"/>
      <point x="216.78809523809528" y="-22.00714285714286" type="line"/>
      <point x="6.857142857142858" y="-193.95238095238096" type="line"/>
    </contour>
  </outline>
</glyph>
<glyph name="rra-tamil" format="2">
  <advance width="815.997619047619"/>
  <unicode hex="0BB1"/>
  <note>
uni0BB1
</note>
  <anchor x="358.0952380952381" y="0.0" name="bottom"/>
  <anchor x="376.0452380952381" y="-136.4642857142857" name="nukta"/>
  <anchor x="471.7904761904761" y="573.2166666666667" name="top"/>
  <anchor x="471.2309523809524" y="572.0666666666666" name="vedic"/>
  <outline>
    <contour>
      <point x="68.19285714285714" y="-287.27619047619044" type="curve"/>
      <point x="85.27857142857145" y="-189.55714285714285"/>
      <point x="125.32380952380956" y="-131.72857142857146"/>
      <point x="232.16666666666669" y="-131.72857142857146" type="curve" smooth="yes"/>
      <point x="337.9642857142857" y="-131.72857142857146" type="line" smooth="yes"/>
      <point x="615.2428571428572" y="-131.72857142857146"/>
      <point x="784.8809523809524" y="68.67142857142858"/>
      <point x="784.8809523809524" y="330.9452380952381" type="curve" smooth="yes"/>
      <point x="784.8809523809524" y="494.1166666666667"/>
      <point x="698.0404761904763" y="577.7785714285714"/>
      <point x="576.0857142857144" y="577.7785714285714" type="curve" smooth="yes"/>
      <point x="485.2761904761904" y="577.7785714285714"/>
      <point x="422.0880952380952" y="532.4928571428571"/>
      <point x="386.1" y="466.18095238095236" type="curve"/>
      <point x="374.77857142857147" y="533.1904761904761"/>
      <point x="328.67619047619047" y="577.0952380952381"/>
      <point x="256.51190476190476" y="577.0952380952381" type="curve" smooth="yes"/>
      <point x="173.79285714285714" y="577.0952380952381"/>
      <point x="111.79761904761907" y="524.0595238095236"/>
      <point x="91.21904761904761" y="425.8071428571429" type="curve" smooth="yes"/>
      <point x="0.4785714285714242" y="0.0" type="line"/>
      <point x="70.5904761904762" y="0.0" type="line"/>
      <point x="159.64761904761906" y="418.07380952380953" type="line" smooth="yes"/>
      <point x="172.13095238095238" y="475.57380952380953"/>
      <point x="196.56904761904764" y="504.95000000000005"/>
      <point x="238.10714285714283" y="504.95000000000005" type="curve" smooth="yes"/>
      <point x="288.15000000000003" y="504.95000000000005"/>
      <point x="298.5190476190476" y="457.4547619047619"/>
      <point x="286.56666666666666" y="400.6761904761905" type="curve" smooth="yes"/>
      <point x="201.50238095238097" y="0.0" type="line"/>
      <point x="373.9476190476191" y="0.0" type="line"/>
      <point x="458.27857142857147" y="396.20952380952383" type="line" smooth="yes"/>
      <point x="473.52857142857147" y="467.78571428571433"/>
      <point x="501.0904761904762" y="505.46904761904767"/>
      <point x="549.2285714285715" y="505.46904761904767" type="curve" smooth="yes"/>
      <point x="600.5452380952381" y="505.46904761904767"/>
      <point x="620.9238095238095" y="457.39047619047625"/>
      <point x="620.9238095238095" y="375.9119047619048" type="curve" smooth="yes"/>
      <point x="620.9238095238095" y="139.02619047619046"/>
      <point x="537.0666666666666" y="-74.20714285714286"/>
      <point x="314.28571428571433" y="-74.20714285714286" type="curve" smooth="yes"/>
      <point x="187.28571428571428" y="-74.20714285714286" type="line" smooth="yes"/>
      <point x="63.08809523809523" y="-74.20714285714286"/>
      <point x="-41.86904761904762" y="-100.30238095238096"/>
      <point x="-41.86904761904762" y="-201.48095238095237" type="curve" smooth="yes"/>
      <point x="-41.86904761904762" y="-255.31190476190477"/>
      <point x="0.7857142857142878" y="-287.27619047619044"/>
    </contour>
  </outline>
</glyph>
<glyph name="la-tamil" format="2">
  <advance width="969.7547619047621"/>
  <unicode hex="0BB2"/>
  <note>
uni0BB2
</note>
  <anchor x="420.39523809523814" y="0.0" name="bottom"/>
  <anchor x="418.75238095238103" y="0.0" name="nukta"/>
  <anchor x="544.9452380952381" y="572.0666666666666" name="top"/>
  <anchor x="543.704761904762" y="572.0666666666666" name="vedic"/>
  <outline>
    <contour>
      <point x="217.1833333333333" y="-5.0" type="curve" smooth="yes"/>
      <point x="329.6119047619047" y="-5.0"/>
      <point x="417.2452380952381" y="72.16666666666667"/>
      <point x="417.2452380952381" y="194.5357142857143" type="curve" smooth="yes"/>
      <point x="417.2452380952381" y="280.0476190476191"/>
      <point x="362.247619047619" y="335.37619047619046"/>
      <point x="280.86190476190484" y="335.37619047619046" type="curve" smooth="yes"/>
      <point x="184.06428571428575" y="335.37619047619046"/>
      <point x="116.41190476190474" y="256.7952380952381"/>
      <point x="78.12857142857143" y="142.34285714285716" type="curve"/>
      <point x="111.47142857142858" y="113.15476190476191" type="line"/>
      <point x="139.04761904761907" y="195.07619047619048"/>
      <point x="171.57380952380953" y="235.4"/>
      <point x="214.39761904761906" y="235.4" type="curve" smooth="yes"/>
      <point x="248.8238095238095" y="235.4"/>
      <point x="266.4357142857142" y="205.55"/>
      <point x="266.4357142857142" y="168.7738095238095" type="curve" smooth="yes"/>
      <point x="266.4357142857142" y="114.33333333333333"/>
      <point x="237.65714285714287" y="72.20238095238096"/>
      <point x="186.71904761904764" y="72.20238095238096" type="curve" smooth="yes"/>
      <point x="136.15476190476193" y="72.20238095238096"/>
      <point x="102.15" y="136.65952380952382"/>
      <point x="102.15" y="217.03095238095239" type="curve" smooth="yes"/>
      <point x="102.15" y="375.9761904761905"/>
      <point x="224.05238095238096" y="504.0785714285714"/>
      <point x="373.6380952380953" y="504.0785714285714" type="curve" smooth="yes"/>
      <point x="505.3285714285715" y="504.0785714285714"/>
      <point x="544.1261904761905" y="415.2380952380952"/>
      <point x="513.254761904762" y="278.75952380952384" type="curve" smooth="yes"/>
      <point x="492.33333333333337" y="186.46190476190475" type="line" smooth="yes"/>
      <point x="466.01904761904757" y="70.04285714285714"/>
      <point x="520.3619047619048" y="-4.050000000000001"/>
      <point x="641.3380952380952" y="-4.050000000000001" type="curve" smooth="yes"/>
      <point x="815.8190476190476" y="-4.050000000000001"/>
      <point x="937.4047619047619" y="156.58809523809524"/>
      <point x="937.4047619047619" y="368.79523809523806" type="curve" smooth="yes"/>
      <point x="937.4047619047619" y="449.4904761904762"/>
      <point x="919.2595238095239" y="514.7261904761905"/>
      <point x="891.6214285714286" y="576.902380952381" type="curve"/>
      <point x="825.1309523809523" y="548.3" type="line"/>
      <point x="849.3714285714287" y="491.8690476190476"/>
      <point x="866.7476190476191" y="430.06904761904764"/>
      <point x="866.7476190476191" y="362.03095238095233" type="curve" smooth="yes"/>
      <point x="866.7476190476191" y="199.5738095238095"/>
      <point x="776.9547619047619" y="76.35714285714286"/>
      <point x="695.4309523809524" y="76.35714285714286" type="curve" smooth="yes"/>
      <point x="649.6904761904763" y="76.35714285714286"/>
      <point x="646.302380952381" y="119.56904761904762"/>
      <point x="659.8619047619047" y="177.65238095238092" type="curve" smooth="yes"/>
      <point x="685.4761904761904" y="288.46666666666664" type="line" smooth="yes"/>
      <point x="729.2095238095238" y="475.1690476190476"/>
      <point x="615.1095238095238" y="577.0666666666666"/>
      <point x="419.1119047619047" y="577.0666666666666" type="curve" smooth="yes"/>
      <point x="199.30714285714288" y="577.0666666666666"/>
      <point x="32.87857142857143" y="413.7738095238096"/>
      <point x="32.87857142857143" y="211.08333333333334" type="curve" smooth="yes"/>
      <point x="32.87857142857143" y="92.99761904761904"/>
      <point x="101.82380952380956" y="-5.0"/>
    </contour>
  </outline>
</glyph>
<glyph name="llla-tamil" format="2">
  <advance width="809.4380952380952"/>
  <unicode hex="0BB4"/>
  <note>
uni0BB4
</note>
  <anchor x="354.26428571428573" y="0.0" name="bottom"/>
  <anchor x="282.8666666666667" y="-341.19761904761907" name="nukta"/>
  <anchor x="493.43333333333334" y="572.0666666666666" name="top"/>
  <anchor x="473.1261904761905" y="572.0666666666666" name="vedic"/>
  <anchor x="816.7642857142857" y="572.0666666666666" name="imatra"/>
  <outline>
    <contour>
      <point x="170.4452380952381" y="-364.6166666666667" type="curve" smooth="yes"/>
      <point x="375.16666666666674" y="-364.6166666666667"/>
      <point x="437.63333333333327" y="-171.09999999999997"/>
      <point x="596.1928571428571" y="-171.09999999999997" type="curve" smooth="yes"/>
      <point x="616.5238095238096" y="-171.09999999999997" type="line"/>
      <point x="630.7380952380952" y="-105.63095238095238" type="line"/>
      <point x="605.804761904762" y="-105.63095238095238" type="line" smooth="yes"/>
      <point x="520.2142857142858" y="-105.63095238095238"/>
      <point x="465.3071428571428" y="-73.08809523809525"/>
      <point x="482.81190476190466" y="10.119047619047619" type="curve" smooth="yes"/>
      <point x="505.5571428571429" y="117.88333333333334" type="line"/>
      <point x="337.17142857142863" y="117.88333333333334" type="line"/>
      <point x="316.04285714285714" y="15.033333333333335" type="line" smooth="yes"/>
      <point x="300.1833333333333" y="-60.788095238095245"/>
      <point x="371.9904761904762" y="-115.76428571428569"/>
      <point x="463.53333333333325" y="-130.37380952380954" type="curve"/>
      <point x="462.3690476190476" y="-136.23809523809524" type="line"/>
      <point x="303.20000000000005" y="-158.31428571428572"/>
      <point x="256.6857142857143" y="-287.1928571428571"/>
      <point x="142.86904761904765" y="-287.1928571428571" type="curve" smooth="yes"/>
      <point x="95.2190476190476" y="-287.1928571428571"/>
      <point x="61.397619047619045" y="-255.35238095238105"/>
      <point x="61.397619047619045" y="-210.78809523809525" type="curve" smooth="yes"/>
      <point x="61.397619047619045" y="-166.0261904761905"/>
      <point x="91.80952380952381" y="-130.27142857142857"/>
      <point x="142.5" y="-130.27142857142857" type="curve" smooth="yes"/>
      <point x="174.55238095238096" y="-130.27142857142857"/>
      <point x="203.46904761904764" y="-145.9857142857143"/>
      <point x="225.70952380952386" y="-168.97380952380954" type="curve"/>
      <point x="270.6595238095238" y="-119.6690476190476" type="line"/>
      <point x="238.05238095238093" y="-87.0857142857143"/>
      <point x="195.13095238095235" y="-67.63571428571427"/>
      <point x="144.20000000000002" y="-67.63571428571427" type="curve" smooth="yes"/>
      <point x="57.459523809523816" y="-67.63571428571427"/>
      <point x="-5.7761904761904805" y="-132.76428571428573"/>
      <point x="-5.7761904761904805" y="-218.2833333333333" type="curve" smooth="yes"/>
      <point x="-5.7761904761904805" y="-297.50714285714287"/>
      <point x="61.669047619047625" y="-364.6166666666667"/>
    </contour>
    <component base="ma-tamil"/>
  </outline>
</glyph>
<glyph name="va-tamil" format="2">
  <advance width="1031.607142857143"/>
  <unicode hex="0BB5"/>
  <note>
uni0BB5
</note>
  <anchor x="483.11904761904765" y="0.0" name="bottom"/>
  <anchor x="871.2595238095239" y="572.0666666666666" name="imatra"/>
  <anchor x="475.5238095238095" y="0.0" name="nukta"/>
  <anchor x="580.9928571428571" y="572.0666666666666" name="top"/>
  <anchor x="580.3238095238096" y="572.0666666666666" name="vedic"/>
  <outline>
    <contour>
      <point x="216.88333333333335" y="-5.0" type="curve" smooth="yes"/>
      <point x="329.31190476190477" y="-5.0"/>
      <point x="416.9452380952381" y="72.16666666666667"/>
      <point x="416.9452380952381" y="194.5357142857143" type="curve" smooth="yes"/>
      <point x="416.9452380952381" y="280.0476190476191"/>
      <point x="361.947619047619" y="335.37619047619046"/>
      <point x="280.56190476190477" y="335.37619047619046" type="curve" smooth="yes"/>
      <point x="183.76428571428573" y="335.37619047619046"/>
      <point x="116.11190476190477" y="256.7952380952381"/>
      <point x="77.82857142857144" y="142.34285714285716" type="curve"/>
      <point x="111.17142857142859" y="113.15476190476191" type="line"/>
      <point x="138.74761904761905" y="195.07619047619048"/>
      <point x="171.27380952380955" y="235.4"/>
      <point x="214.09761904761905" y="235.4" type="curve" smooth="yes"/>
      <point x="248.52380952380958" y="235.4"/>
      <point x="266.1357142857142" y="205.55"/>
      <point x="266.1357142857142" y="168.7738095238095" type="curve" smooth="yes"/>
      <point x="266.1357142857142" y="114.33333333333333"/>
      <point x="237.35714285714286" y="72.20238095238096"/>
      <point x="186.41904761904763" y="72.20238095238096" type="curve" smooth="yes"/>
      <point x="135.85476190476194" y="72.20238095238096"/>
      <point x="101.85" y="136.65952380952382"/>
      <point x="101.85" y="217.03095238095239" type="curve" smooth="yes"/>
      <point x="101.85" y="371.8761904761904"/>
      <point x="224.3380952380952" y="504.4071428571429"/>
      <point x="370.65714285714284" y="504.4071428571429" type="curve" smooth="yes"/>
      <point x="478.49047619047616" y="504.4071428571429"/>
      <point x="545.4142857142858" y="440.1952380952381"/>
      <point x="544.7809523809524" y="316.51666666666665" type="curve" smooth="yes"/>
      <point x="544.147619047619" y="211.49285714285713"/>
      <point x="504.252380952381" y="125.88095238095238"/>
      <point x="445.65238095238095" y="46.51904761904762" type="curve"/>
      <point x="460.0119047619048" y="0.0" type="line"/>
      <point x="906.0238095238096" y="0.0" type="line"/>
      <point x="1027.3119047619045" y="572.0666666666666" type="line"/>
      <point x="859.0904761904761" y="572.0666666666666" type="line"/>
      <point x="751.1595238095238" y="65.60000000000001" type="line"/>
      <point x="564.6523809523809" y="65.60000000000001" type="line"/>
      <point x="647.857142857143" y="133.69761904761904"/>
      <point x="710.15" y="221.37380952380954"/>
      <point x="710.15" y="336.4761904761905" type="curve" smooth="yes"/>
      <point x="710.15" y="499.44523809523804"/>
      <point x="574.645238095238" y="577.45"/>
      <point x="408.36904761904765" y="577.45" type="curve" smooth="yes"/>
      <point x="194.97857142857143" y="577.45"/>
      <point x="32.57857142857143" y="408.85238095238094"/>
      <point x="32.57857142857143" y="211.08333333333334" type="curve" smooth="yes"/>
      <point x="32.57857142857143" y="92.99761904761904"/>
      <point x="101.52380952380952" y="-5.0"/>
    </contour>
  </outline>
</glyph>
<glyph name="ssa-tamil" format="2">
  <advance width="1394.2904761904763"/>
  <unicode hex="0BB7"/>
  <note>
uni0BB7
</note>
  <anchor x="641.2785714285714" y="0.0" name="bottom"/>
  <anchor x="514.342857142857" y="0.0" name="nukta"/>
  <anchor x="785.495238095238" y="572.0666666666666" name="top"/>
  <anchor x="763.5619047619048" y="572.0666666666666" name="vedic"/>
  <outline>
    <contour>
      <point x="216.88333333333335" y="-5.0" type="curve" smooth="yes"/>
      <point x="329.31190476190477" y="-5.0"/>
      <point x="416.9452380952381" y="72.16666666666667"/>
      <point x="416.9452380952381" y="194.5357142857143" type="curve" smooth="yes"/>
      <point x="416.9452380952381" y="280.0476190476191"/>
      <point x="361.947619047619" y="335.37619047619046"/>
      <point x="280.56190476190477" y="335.37619047619046" type="curve" smooth="yes"/>
      <point x="183.76428571428573" y="335.37619047619046"/>
      <point x="116.11190476190477" y="256.7952380952381"/>
      <point x="77.82857142857144" y="142.34285714285716" type="curve"/>
      <point x="111.17142857142859" y="113.15476190476191" type="line"/>
      <point x="138.74761904761905" y="195.07619047619048"/>
      <point x="171.27380952380955" y="235.4"/>
      <point x="214.09761904761905" y="235.4" type="curve" smooth="yes"/>
      <point x="248.52380952380958" y="235.4"/>
      <point x="266.1357142857142" y="205.55"/>
      <point x="266.1357142857142" y="168.7738095238095" type="curve" smooth="yes"/>
      <point x="266.1357142857142" y="114.33333333333333"/>
      <point x="237.35714285714286" y="72.20238095238096"/>
      <point x="186.41904761904763" y="72.20238095238096" type="curve" smooth="yes"/>
      <point x="135.85476190476194" y="72.20238095238096"/>
      <point x="101.85" y="136.65952380952382"/>
      <point x="101.85" y="217.03095238095239" type="curve" smooth="yes"/>
      <point x="101.85" y="371.8761904761904"/>
      <point x="223.51666666666665" y="504.4071428571429"/>
      <point x="369.0142857142857" y="504.4071428571429" type="curve" smooth="yes"/>
      <point x="476.02619047619055" y="504.4071428571429"/>
      <point x="545.4142857142858" y="440.1952380952381"/>
      <point x="544.7809523809524" y="316.51666666666665" type="curve" smooth="yes"/>
      <point x="544.147619047619" y="211.49285714285716"/>
      <point x="504.252380952381" y="125.88095238095238"/>
      <point x="445.65238095238095" y="46.51904761904762" type="curve"/>
      <point x="460.0119047619048" y="0.0" type="line"/>
      <point x="1287.821428571429" y="0.0" type="line"/>
      <point x="1357.347619047619" y="323.9547619047619" type="line"/>
      <point x="1192.8190476190478" y="273.4761904761905" type="line"/>
      <point x="1148.1785714285713" y="65.60000000000001" type="line"/>
      <point x="564.6523809523809" y="65.60000000000001" type="line"/>
      <point x="647.857142857143" y="133.69761904761904"/>
      <point x="710.15" y="220.7166666666667"/>
      <point x="710.15" y="335.81904761904764" type="curve" smooth="yes"/>
      <point x="710.15" y="498.78809523809525"/>
      <point x="572.1809523809524" y="577.45"/>
      <point x="406.7261904761904" y="577.45" type="curve" smooth="yes"/>
      <point x="193.3357142857143" y="577.45"/>
      <point x="32.57857142857143" y="409.6738095238095"/>
      <point x="32.57857142857143" y="211.08333333333334" type="curve" smooth="yes"/>
      <point x="32.57857142857143" y="92.99761904761904"/>
      <point x="101.52380952380952" y="-5.0"/>
    </contour>
    <contour>
      <point x="813.4833333333333" y="-288.3404761904763" type="line"/>
      <point x="969.1690476190477" y="-288.3404761904763" type="line"/>
      <point x="1115.347619047619" y="397.7976190476191" type="line" smooth="yes"/>
      <point x="1138.4523809523807" y="505.1738095238095"/>
      <point x="1096.347619047619" y="577.5857142857144"/>
      <point x="990.5809523809525" y="577.5857142857144" type="curve" smooth="yes"/>
      <point x="869.1904761904761" y="577.5857142857144"/>
      <point x="790.4214285714286" y="482.79047619047617"/>
      <point x="790.4214285714286" y="370.6928571428571" type="curve" smooth="yes"/>
      <point x="790.4214285714286" y="271.28809523809525"/>
      <point x="863.3428571428573" y="197.14523809523808"/>
      <point x="990.7976190476193" y="197.14523809523808" type="curve" smooth="yes"/>
      <point x="1121.2142857142858" y="197.14523809523808"/>
      <point x="1221.4666666666667" y="239.3095238095238"/>
      <point x="1355.8285714285716" y="317.1928571428571" type="curve"/>
      <point x="1357.2642857142857" y="328.43571428571425" type="line"/>
      <point x="1331.2738095238094" y="374.15476190476187" type="line"/>
      <point x="1208.8261904761905" y="302.6809523809524"/>
      <point x="1103.3619047619047" y="260.2880952380952"/>
      <point x="999.1547619047618" y="260.2880952380952" type="curve" smooth="yes"/>
      <point x="901.4880952380952" y="260.2880952380952"/>
      <point x="856.1714285714287" y="306.7619047619047"/>
      <point x="856.1714285714287" y="380.1119047619047" type="curve" smooth="yes"/>
      <point x="856.1714285714287" y="427.8904761904762"/>
      <point x="883.2904761904762" y="478.87857142857143"/>
      <point x="925.3547619047621" y="478.87857142857143" type="curve" smooth="yes"/>
      <point x="958.1071428571428" y="478.87857142857143"/>
      <point x="970.5500000000001" y="449.95952380952383"/>
      <point x="962.2095238095238" y="410.7476190476191" type="curve" smooth="yes"/>
    </contour>
  </outline>
</glyph>
<glyph name="sa-tamil" format="2">
  <advance width="1272.7833333333333"/>
  <unicode hex="0BB8"/>
  <note>
uni0BB8
</note>
  <anchor x="600.9" y="0.0" name="bottom"/>
  <anchor x="598.0333333333333" y="0.0" name="nukta"/>
  <anchor x="711.9666666666668" y="572.0666666666666" name="top"/>
  <anchor x="715.9095238095239" y="572.0666666666666" name="vedic"/>
  <outline>
    <contour>
      <point x="465.86666666666673" y="0.0" type="line"/>
      <point x="634.0476190476192" y="0.0" type="line"/>
      <point x="725.7166666666667" y="432.48333333333335" type="line" smooth="yes"/>
      <point x="737.4904761904761" y="487.8666666666667"/>
      <point x="760.4261904761904" y="507.9142857142857"/>
      <point x="799.745238095238" y="507.9142857142857" type="curve" smooth="yes"/>
      <point x="838.0357142857143" y="507.9142857142857"/>
      <point x="857.6404761904762" y="476.96666666666675"/>
      <point x="847.0571428571429" y="428.26428571428573" type="curve" smooth="yes"/>
      <point x="794.0261904761905" y="186.46190476190475" type="line" smooth="yes"/>
      <point x="768.9047619047619" y="70.0142857142857"/>
      <point x="822.0547619047619" y="-4.050000000000001"/>
      <point x="943.0309523809525" y="-4.050000000000001" type="curve" smooth="yes"/>
      <point x="1119.6476190476192" y="-4.050000000000001"/>
      <point x="1239.7761904761905" y="154.45238095238096"/>
      <point x="1239.7761904761905" y="366.6595238095238" type="curve" smooth="yes"/>
      <point x="1239.7761904761905" y="447.35476190476186"/>
      <point x="1222.3095238095239" y="514.1261904761905"/>
      <point x="1195.5714285714284" y="576.602380952381" type="curve"/>
      <point x="1128.4809523809522" y="548.6" type="line"/>
      <point x="1152.1214285714286" y="491.8690476190476"/>
      <point x="1169.1190476190473" y="427.93333333333334"/>
      <point x="1169.1190476190473" y="359.8952380952381" type="curve" smooth="yes"/>
      <point x="1169.1190476190473" y="197.43809523809523"/>
      <point x="1080.290476190476" y="76.35714285714286"/>
      <point x="997.1238095238095" y="76.35714285714286" type="curve" smooth="yes"/>
      <point x="951.3833333333332" y="76.35714285714286"/>
      <point x="948.6404761904762" y="119.40476190476193"/>
      <point x="961.554761904762" y="177.65238095238092" type="curve" smooth="yes"/>
      <point x="1006.8023809523811" y="382.87857142857143" type="line" smooth="yes"/>
      <point x="1034.9738095238097" y="509.3095238095238"/>
      <point x="944.9095238095238" y="576.0380952380954"/>
      <point x="821.7904761904763" y="576.0380952380954" type="curve" smooth="yes"/>
      <point x="708.9857142857142" y="576.0380952380954"/>
      <point x="619.1309523809524" y="518.2928571428572"/>
      <point x="599.6428571428572" y="429.3404761904762" type="curve" smooth="yes"/>
      <point x="583.2642857142856" y="353.98809523809524" type="line"/>
      <point x="542.8047619047619" y="363.08095238095234" type="line"/>
    </contour>
    <contour>
      <point x="217.49999999999997" y="-5.0" type="curve" smooth="yes"/>
      <point x="329.92857142857144" y="-5.0"/>
      <point x="417.56190476190477" y="72.16666666666667"/>
      <point x="417.56190476190477" y="194.5357142857143" type="curve" smooth="yes"/>
      <point x="417.56190476190477" y="280.0476190476191"/>
      <point x="362.56428571428575" y="335.37619047619046"/>
      <point x="281.1785714285715" y="335.37619047619046" type="curve" smooth="yes"/>
      <point x="184.3809523809524" y="335.37619047619046"/>
      <point x="116.72857142857146" y="256.7952380952381"/>
      <point x="78.4452380952381" y="142.34285714285716" type="curve"/>
      <point x="111.78809523809524" y="113.15476190476191" type="line"/>
      <point x="139.3642857142857" y="195.07619047619048"/>
      <point x="171.8904761904762" y="235.4"/>
      <point x="214.7142857142857" y="235.4" type="curve" smooth="yes"/>
      <point x="249.14047619047614" y="235.4"/>
      <point x="266.752380952381" y="205.55"/>
      <point x="266.752380952381" y="168.7738095238095" type="curve" smooth="yes"/>
      <point x="266.752380952381" y="114.33333333333333"/>
      <point x="237.9738095238095" y="72.20238095238096"/>
      <point x="187.0357142857143" y="72.20238095238096" type="curve" smooth="yes"/>
      <point x="136.47142857142856" y="72.20238095238096"/>
      <point x="102.46666666666668" y="136.65952380952382"/>
      <point x="102.46666666666668" y="217.03095238095239" type="curve" smooth="yes"/>
      <point x="102.46666666666668" y="374.5333333333333"/>
      <point x="224.80714285714285" y="504.25476190476195"/>
      <point x="374.2142857142857" y="504.25476190476195" type="curve" smooth="yes"/>
      <point x="503.1190476190477" y="504.25476190476195"/>
      <point x="558.1333333333333" y="432.3619047619047"/>
      <point x="529.6119047619048" y="300.57380952380953" type="curve"/>
      <point x="605.2785714285715" y="309.70952380952383" type="line"/>
      <point x="636.652380952381" y="489.00714285714287"/>
      <point x="533.8809523809522" y="576.8738095238097"/>
      <point x="389.93095238095236" y="576.8738095238097" type="curve" smooth="yes"/>
      <point x="191.48571428571427" y="576.8738095238097"/>
      <point x="33.195238095238096" y="407.18333333333334"/>
      <point x="33.195238095238096" y="211.08333333333334" type="curve" smooth="yes"/>
      <point x="33.195238095238096" y="92.99761904761904"/>
      <point x="102.14047619047619" y="-5.0"/>
    </contour>
  </outline>
</glyph>
<glyph name="aaMatra-tamil" format="2">
  <advance width="573.3047619047619"/>
  <unicode hex="0BBE"/>
  <note>
uni0BBE
</note>
  <anchor x="240.2404761904762" y="0.0" name="bottom"/>
  <anchor x="239.2404761904762" y="0.0" name="nukta"/>
  <anchor x="354.6642857142857" y="572.0666666666666" name="top"/>
  <anchor x="354.6642857142857" y="572.0666666666666" name="vedic"/>
  <outline>
    <contour>
      <point x="4.295238095238098" y="0.0" type="line"/>
      <point x="74.93095238095239" y="0.0" type="line"/>
      <point x="182.4785714285714" y="506.78333333333336" type="line"/>
      <point x="327.85714285714283" y="506.78333333333336" type="line"/>
      <point x="220.1452380952381" y="0.0" type="line"/>
      <point x="388.5880952380953" y="0.0" type="line"/>
      <point x="496.13571428571424" y="506.78333333333336" type="line"/>
      <point x="605.85" y="506.78333333333336" type="line"/>
      <point x="619.4261904761905" y="572.0666666666666" type="line"/>
      <point x="125.71904761904761" y="572.0666666666666" type="line"/>
    </contour>
  </outline>
</glyph>
<glyph name="iMatra-tamil" format="2">
  <advance width="197.06904761904764"/>
  <unicode hex="0BBF"/>
  <note>
uni0BBF
</note>
  <anchor x="-32.91190476190475" y="854.75" name="top"/>
  <outline>
    <contour>
      <point x="-5.828571428571427" y="0.0" type="line"/>
      <point x="65.32857142857144" y="0.0" type="line"/>
      <point x="185.25714285714287" y="562.752380952381" type="line" smooth="yes"/>
      <point x="222.43809523809526" y="737.9880952380952"/>
      <point x="116.13809523809522" y="854.75"/>
      <point x="-62.81190476190476" y="854.75" type="curve" smooth="yes"/>
      <point x="-206.71904761904761" y="854.75"/>
      <point x="-311.42619047619047" y="767.5452380952382"/>
      <point x="-311.42619047619047" y="650.5023809523808" type="curve" smooth="yes"/>
      <point x="-311.42619047619047" y="575.95"/>
      <point x="-261.4166666666667" y="518.1595238095239"/>
      <point x="-167.852380952381" y="518.1595238095239" type="curve" smooth="yes"/>
      <point x="-165.91904761904766" y="518.1595238095239" type="line"/>
      <point x="-153.47857142857143" y="571.902380952381" type="line"/>
      <point x="-155.09523809523807" y="571.902380952381" type="line" smooth="yes"/>
      <point x="-195.3904761904762" y="571.902380952381"/>
      <point x="-224.34047619047615" y="588.1476190476191"/>
      <point x="-224.34047619047615" y="627.157142857143" type="curve" smooth="yes"/>
      <point x="-224.34047619047615" y="682.4500000000002"/>
      <point x="-163.60238095238094" y="721.747619047619"/>
      <point x="-75.89761904761905" y="721.747619047619" type="curve" smooth="yes"/>
      <point x="48.392857142857146" y="721.747619047619"/>
      <point x="132.35" y="650.9976190476191"/>
      <point x="106.05714285714285" y="526.6285714285715" type="curve" smooth="yes"/>
    </contour>
  </outline>
</glyph>
<glyph name="iiMatra-tamil" format="2">
  <unicode hex="0BC0"/>
  <note>
uni0BC0
</note>
  <anchor x="62.80714285714286" y="572.0666666666666" name="_imatra"/>
  <anchor x="110.0261904761905" y="920.952380952381" name="top"/>
  <outline>
    <contour>
      <point x="30.390476190476186" y="507.4166666666667" type="curve" smooth="yes"/>
      <point x="48.15238095238096" y="507.4166666666667" type="line"/>
      <point x="62.095238095238095" y="572.0666666666666" type="line"/>
      <point x="44.98571428571429" y="572.0666666666666" type="line" smooth="yes"/>
      <point x="-19.426190476190474" y="572.0666666666666"/>
      <point x="-57.62142857142858" y="617.1166666666667"/>
      <point x="-57.62142857142858" y="686.2857142857142" type="curve" smooth="yes"/>
      <point x="-57.62142857142858" y="777.1761904761905"/>
      <point x="1.757142857142855" y="852.0071428571428"/>
      <point x="94.89999999999999" y="852.0071428571428" type="curve" smooth="yes"/>
      <point x="146.1166666666667" y="852.0071428571428"/>
      <point x="173.76428571428568" y="824.0904761904762"/>
      <point x="173.76428571428568" y="777.6" type="curve" smooth="yes"/>
      <point x="173.76428571428568" y="732.8880952380952"/>
      <point x="151.24285714285713" y="695.3857142857142"/>
      <point x="109.44285714285712" y="695.3857142857142" type="curve" smooth="yes"/>
      <point x="45.46190476190476" y="695.3857142857142"/>
      <point x="57.02619047619048" y="800.6880952380952"/>
      <point x="107.17857142857143" y="875.2523809523809" type="curve"/>
      <point x="60.15" y="879.8" type="line"/>
      <point x="-30.823809523809523" y="757.6166666666667"/>
      <point x="-9.402380952380955" y="609.9880952380953"/>
      <point x="131.10714285714283" y="609.9880952380953" type="curve" smooth="yes"/>
      <point x="217.8738095238095" y="609.9880952380953"/>
      <point x="295.96428571428567" y="672.6523809523809"/>
      <point x="295.96428571428567" y="769.8047619047619" type="curve" smooth="yes"/>
      <point x="295.96428571428567" y="867.2309523809523"/>
      <point x="217.2952380952381" y="920.952380952381"/>
      <point x="110.0261904761905" y="920.952380952381" type="curve" smooth="yes"/>
      <point x="-20.28571428571429" y="920.952380952381"/>
      <point x="-126.88809523809527" y="817.402380952381"/>
      <point x="-126.88809523809527" y="679.6071428571429" type="curve" smooth="yes"/>
      <point x="-126.88809523809527" y="576.3928571428572"/>
      <point x="-63.61666666666667" y="507.4166666666667"/>
    </contour>
  </outline>
</glyph>
<glyph name="uMatra-tamil" format="2">
  <advance width="482.21428571428567"/>
  <unicode hex="0BC1"/>
  <note>
uni0BC1
</note>
  <anchor x="226.7357142857143" y="572.0666666666666" name="top"/>
  <outline>
    <contour>
      <point x="271.7547619047619" y="227.14523809523808" type="curve" smooth="yes"/>
      <point x="366.9357142857143" y="227.14523809523808"/>
      <point x="449.89047619047614" y="268.052380952381"/>
      <point x="474.93809523809534" y="384.0095238095238" type="curve" smooth="yes"/>
      <point x="515.354761904762" y="572.0666666666666" type="line"/>
      <point x="-202.7309523809524" y="572.0666666666666" type="line"/>
      <point x="-163.98809523809524" y="506.78333333333336" type="line"/>
      <point x="332.47142857142853" y="506.78333333333336" type="line"/>
      <point x="305.5595238095238" y="382.5690476190476" type="line" smooth="yes"/>
      <point x="294.1404761904762" y="330.23333333333335"/>
      <point x="270.4404761904762" y="309.2071428571429"/>
      <point x="234.5190476190476" y="309.2071428571429" type="curve" smooth="yes"/>
      <point x="192.5095238095238" y="309.2071428571429"/>
      <point x="177.9547619047619" y="347.44047619047626"/>
      <point x="192.27857142857144" y="413.15714285714296" type="curve" smooth="yes"/>
      <point x="217.98333333333332" y="532.4166666666666" type="line"/>
      <point x="149.37380952380954" y="532.4166666666666" type="line"/>
      <point x="125.89999999999999" y="419.84761904761905" type="line" smooth="yes"/>
      <point x="100.32857142857141" y="296.54285714285714"/>
      <point x="160.42619047619047" y="227.14523809523808"/>
    </contour>
  </outline>
</glyph>
<glyph name="uuMatra-tamil" format="2">
  <advance width="805.1857142857143"/>
  <unicode hex="0BC2"/>
  <note>
uni0BC2
</note>
  <anchor x="462.89761904761906" y="790.2095238095238" name="top"/>
  <outline>
    <contour>
      <point x="311.41666666666663" y="7.388095238095239" type="curve" smooth="yes"/>
      <point x="559.1642857142857" y="7.388095238095239"/>
      <point x="779.3428571428572" y="195.0071428571429"/>
      <point x="779.3428571428572" y="473.46190476190475" type="curve" smooth="yes"/>
      <point x="779.3428571428572" y="682.959523809524"/>
      <point x="638.2047619047621" y="790.209523809524"/>
      <point x="462.7619047619047" y="790.209523809524" type="curve" smooth="yes"/>
      <point x="269.2595238095238" y="790.209523809524"/>
      <point x="170.54285714285717" y="663.4642857142858"/>
      <point x="144.69761904761904" y="540.2357142857144" type="curve" smooth="yes"/>
      <point x="119.2357142857143" y="419.84761904761905" type="line" smooth="yes"/>
      <point x="93.36428571428573" y="296.54285714285714"/>
      <point x="153.76190476190476" y="227.14523809523808"/>
      <point x="265.09047619047624" y="227.14523809523808" type="curve" smooth="yes"/>
      <point x="360.2714285714286" y="227.14523809523808"/>
      <point x="443.22619047619037" y="268.052380952381"/>
      <point x="468.2738095238095" y="384.0095238095238" type="curve" smooth="yes"/>
      <point x="508.69047619047615" y="572.0666666666666" type="line"/>
      <point x="-211.1666666666667" y="572.0666666666666" type="line"/>
      <point x="-175.0166666666667" y="506.78333333333336" type="line"/>
      <point x="325.8071428571428" y="506.78333333333336" type="line"/>
      <point x="298.8952380952381" y="382.5690476190476" type="line" smooth="yes"/>
      <point x="287.4761904761904" y="330.23333333333335"/>
      <point x="263.7761904761905" y="309.2071428571429"/>
      <point x="227.8547619047619" y="309.2071428571429" type="curve" smooth="yes"/>
      <point x="185.84523809523807" y="309.2071428571429"/>
      <point x="171.5095238095238" y="347.44047619047626"/>
      <point x="185.6142857142857" y="413.15714285714296" type="curve" smooth="yes"/>
      <point x="212.71904761904764" y="539.5571428571429" type="line" smooth="yes"/>
      <point x="231.83809523809524" y="629.5571428571428"/>
      <point x="295.74285714285713" y="712.797619047619"/>
      <point x="417.0904761904762" y="712.797619047619" type="curve" smooth="yes"/>
      <point x="532.7214285714285" y="712.797619047619"/>
      <point x="603.2214285714285" y="636.6380952380953"/>
      <point x="603.2214285714285" y="500.92857142857144" type="curve" smooth="yes"/>
      <point x="603.2214285714285" y="280.8738095238095"/>
      <point x="484.55238095238093" y="84.28571428571429"/>
      <point x="291.4404761904762" y="84.28571428571429" type="curve" smooth="yes"/>
      <point x="192.35238095238094" y="84.28571428571429"/>
      <point x="126.63809523809525" y="119.60714285714285"/>
      <point x="72.62619047619047" y="197.68809523809523" type="curve"/>
      <point x="10.669047619047621" y="147.8333333333333" type="line"/>
      <point x="71.4547619047619" y="61.88095238095239"/>
      <point x="159.44761904761904" y="7.388095238095239"/>
    </contour>
  </outline>
</glyph>
<glyph name="eMatra-tamil" format="2">
  <advance width="745.4357142857143"/>
  <unicode hex="0BC6"/>
  <note>
uni0BC6
</note>
  <outline>
    <contour>
      <point x="257.72380952380956" y="-5.0" type="curve" smooth="yes"/>
      <point x="370.152380952381" y="-5.0"/>
      <point x="459.997619047619" y="72.03095238095237"/>
      <point x="459.997619047619" y="194.9428571428571" type="curve" smooth="yes"/>
      <point x="459.997619047619" y="280.997619047619"/>
      <point x="405.0904761904762" y="336.1904761904762"/>
      <point x="323.5690476190477" y="336.1904761904762" type="curve" smooth="yes"/>
      <point x="226.77142857142857" y="336.1904761904762"/>
      <point x="158.34999999999997" y="257.6095238095238"/>
      <point x="120.06666666666666" y="143.15714285714284" type="curve"/>
      <point x="153.40952380952382" y="113.9690476190476" type="line"/>
      <point x="180.98571428571427" y="195.8904761904762"/>
      <point x="213.64761904761903" y="236.21428571428572"/>
      <point x="256.4714285714286" y="236.21428571428572" type="curve" smooth="yes"/>
      <point x="290.89761904761906" y="236.21428571428572"/>
      <point x="309.18809523809523" y="206.6357142857143"/>
      <point x="309.18809523809523" y="169.18095238095236" type="curve" smooth="yes"/>
      <point x="309.18809523809523" y="113.7904761904762"/>
      <point x="279.7309523809523" y="72.20238095238096"/>
      <point x="228.79285714285717" y="72.20238095238096" type="curve" smooth="yes"/>
      <point x="169.6952380952381" y="72.20238095238096"/>
      <point x="128.40952380952382" y="147.05238095238096"/>
      <point x="128.40952380952382" y="280.197619047619" type="curve" smooth="yes"/>
      <point x="128.40952380952382" y="494.5833333333333"/>
      <point x="257.1714285714285" y="709.4309523809524"/>
      <point x="468.68095238095236" y="709.4309523809524" type="curve" smooth="yes"/>
      <point x="610.902380952381" y="709.4309523809524"/>
      <point x="675.4404761904761" y="623.7809523809524"/>
      <point x="643.5166666666665" y="472.37380952380954" type="curve" smooth="yes"/>
      <point x="544.1976190476191" y="0.0" type="line"/>
      <point x="614.242857142857" y="0.0" type="line"/>
      <point x="722.159523809524" y="509.46666666666664" type="line" smooth="yes"/>
      <point x="763.9857142857143" y="706.3761904761906"/>
      <point x="684.4" y="848.3214285714286"/>
      <point x="491.3833333333334" y="848.3214285714286" type="curve" smooth="yes"/>
      <point x="218.53095238095236" y="848.3214285714286"/>
      <point x="59.838095238095235" y="546.7190476190476"/>
      <point x="59.838095238095235" y="273.2166666666667" type="curve" smooth="yes"/>
      <point x="59.838095238095235" y="103.01428571428572"/>
      <point x="138.4309523809524" y="-5.0"/>
    </contour>
  </outline>
</glyph>
